M48
INCH,LZ
;FILE_FORMAT=2:4
;TYPE=PLATED
;Layer: PTH_Through
;EasyEDA v6.5.46, 2025-03-24 15:56:37
;10
;Gerber Generator version 0.2
;Holesize 1 = 0.0160 inch
T01C0.0160
;Holesize 2 = 0.0200 inch
T02C0.0200
;Holesize 3 = 0.0240 inch
T03C0.0240
;Holesize 4 = 0.0280 inch
T04C0.0280
;Holesize 5 = 0.0300 inch
T05C0.0300
;Holesize 6 = 0.0320 inch
T06C0.0320
;Holesize 7 = 0.0350 inch
T07C0.0350
;Holesize 8 = 0.0350 inch
T08C0.0350
;Holesize 9 = 0.0390 inch
T09C0.0390
;Holesize 10 = 0.0400 inch
T10C0.0400
;Holesize 11 = 0.0430 inch
T11C0.0430
%
G05
G90
T01
X016857Y000565G85X016857Y000841
X014043Y000565G85X014043Y000841
T02
X015962Y000703
X015706Y001097
X015450Y000703
X015194Y001097
X014938Y000703
T03
X007900Y004000
X005900Y004000
X011800Y036400
X009800Y036400
X025150Y004854
X025150Y002854
T04
X007600Y023715
X007600Y021785
X003900Y003150
X003400Y003150
X002900Y003150
X010200Y003850
X010700Y003850
X011200Y003850
T05
X004007Y012600
X005007Y012600
X006300Y012600
X007300Y012600
X008600Y012600
X009600Y012600
X010900Y012600
X011900Y012600
X024100Y004854
X024100Y003854
X022600Y004854
X022600Y003854
X021100Y004854
X021100Y003854
X018250Y004854
X018250Y003854
X016600Y004854
X016600Y003854
X015100Y004854
X015100Y003854
X001400Y003650
X000400Y003650
X009300Y002200
X010300Y002200
X002154Y002096
X001446Y002804
X011850Y002650
X011850Y001650
X000400Y005350
X001400Y005350
X013650Y006250
X012650Y006250
X012650Y011600
X012650Y010600
X013200Y009350
X014200Y009350
X017050Y012000
X017050Y011000
X015600Y009350
X016600Y009350
X019800Y004854
X019800Y003854
T06
X014000Y036844
X014000Y036056
X017050Y036076G85X017050Y036078
X017050Y037022G85X017050Y037024
X024850Y006800
X024850Y005854
X023350Y006800
X023350Y005854
X021850Y006800
X021850Y005854
X020350Y006800
X020350Y005854
X018850Y006800
X018850Y005854
X017350Y006800
X017350Y005854
X015850Y006800
X015850Y005854
X002900Y004950
X003400Y004950
X003900Y004950
X011300Y005700
X010800Y005700
X010300Y005700
X013616Y012584
X014284Y011916
X013616Y011084
X014284Y010416
X015366Y012634
X016034Y011966
X015316Y011034
X015984Y010366
T07
X003500Y007250
X004500Y007250
X005500Y007250
X006500Y007250
X007500Y007250
X008500Y007250
X008500Y011250
X007500Y011250
X006500Y011250
X005500Y011250
X004500Y011250
X003500Y011250
T08
X011525Y025200
X011525Y031200
X011525Y030200
X011525Y029200
X011525Y028200
X011525Y027200
X011525Y026200
X011525Y024200
X011525Y023200
X011525Y022200
X011525Y021200
X011525Y020200
X011525Y019200
X011525Y018200
X014675Y031200
X014675Y030200
X014675Y029200
X014675Y028200
X014675Y027200
X014675Y026200
X014675Y025200
X014675Y024200
X014675Y023200
X014675Y022200
X014675Y021200
X014675Y020200
X014675Y019200
X014675Y018200
X018150Y009400
X019150Y009400
X020150Y009400
X021150Y009400
X022150Y009400
X023150Y009400
X024150Y009400
X025150Y009400
X018150Y012400
X019150Y012400
X020150Y012400
X021150Y012400
X022150Y012400
X023150Y012400
X024150Y012400
X025150Y012400
X005250Y004600
X005250Y005600
X008350Y004650
X008350Y005650
X005250Y002250
X005250Y003250
X008250Y002050
X008250Y003050
T09
X016600Y034200
X015600Y034200
X014600Y034200
X013600Y034200
X012600Y034200
X011600Y034200
X010600Y034200
X009600Y034200
X016600Y032400
X015600Y032400
X014600Y032400
X013600Y032400
X012600Y032400
X011600Y032400
X010600Y032400
X009600Y032400
X025150Y013700
X024150Y013700
X023150Y013700
X022150Y013700
X021150Y013700
X020150Y013700
X019150Y013700
X018150Y013700
X025150Y008100
X024150Y008100
X023150Y008100
X022150Y008100
X021150Y008100
X020150Y008100
X019150Y008100
X018150Y008100
X009600Y017000
X010600Y017000
X011600Y017000
X012600Y017000
X013600Y017000
X014600Y017000
X015600Y017000
X016600Y017000
X009600Y015200
X010600Y015200
X011600Y015200
X012600Y015200
X013600Y015200
X014600Y015200
X015600Y015200
X016600Y015200
X000900Y013700
X001900Y013700
X002900Y013700
X003900Y013700
X004900Y013700
X005900Y013700
X006900Y013700
X007900Y013700
T10
X023150Y001000
X022150Y001000
X021150Y001000
X020150Y001000
X019150Y001000
T11
X020992Y034200
X021992Y034200
X022992Y034200
X023992Y034200
X020992Y032700
X021992Y032700
X022992Y032700
X023992Y032700
X003350Y000850
X004350Y000850
X005350Y000850
X006350Y000850
X013200Y004950
X013200Y003950
X013200Y002950
X013200Y001950
X013800Y013700
X014800Y013700
X015800Y013700
X016800Y013700
X013250Y008100
X014250Y008100
X015250Y008100
X016250Y008100
X002008Y015200
X003008Y015200
X004008Y015200
X005008Y015200
X002008Y016700
X003008Y016700
X004008Y016700
X005008Y016700
X021000Y015000
X022000Y015000
X023000Y015000
X024000Y015000
X021000Y016700
X022000Y016700
X023000Y016700
X024000Y016700
X009100Y013700
X010100Y013700
X011100Y013700
X012100Y013700
X007650Y000900
X008650Y000900
X009650Y000900
X010650Y000900
X002000Y033200
X002000Y034200
X003000Y033200
X003000Y034200
X004000Y033200
X004000Y034200
X005000Y033200
X005000Y034200
X006000Y033200
X006000Y034200
X002000Y025200
X002000Y018200
X002000Y019200
X002000Y020200
X002000Y021200
X002000Y022200
X002000Y023200
X002000Y024200
X002000Y026200
X002000Y027200
X002000Y028200
X002000Y029200
X002000Y030200
X002000Y031200
X024000Y031200
X024000Y030200
X024000Y029200
X024000Y028200
X024000Y027200
X024000Y026200
X024000Y025200
X024000Y024200
X024000Y023200
X024000Y022200
X024000Y021200
X024000Y020200
X024000Y019200
X024000Y018200
X022000Y031200
X022000Y030200
X022000Y029200
X022000Y028200
X022000Y027200
X022000Y026200
X022000Y025200
X022000Y024200
X022000Y023200
X022000Y022200
X022000Y021200
X022000Y020200
X022000Y019200
X022000Y018200
X004000Y025200
X004000Y018200
X004000Y019200
X004000Y020200
X004000Y021200
X004000Y022200
X004000Y023200
X004000Y024200
X004000Y026200
X004000Y027200
X004000Y028200
X004000Y029200
X004000Y030200
X004000Y031200
X009600Y025200
X009600Y018200
X009600Y019200
X009600Y020200
X009600Y021200
X009600Y022200
X009600Y023200
X009600Y024200
X009600Y026200
X009600Y027200
X009600Y028200
X009600Y029200
X009600Y030200
X009600Y031200
X016600Y031200
X016600Y030200
X016600Y029200
X016600Y028200
X016600Y027200
X016600Y026200
X016600Y025200
X016600Y024200
X016600Y023200
X016600Y022200
X016600Y021200
X016600Y020200
X016600Y019200
X016600Y018200
X015100Y002700
X016100Y002700
X017100Y002700
X018100Y002700
X019100Y002700
X020100Y002700
X021100Y002700
X022100Y002700
X023100Y002700
X024100Y002700
X005008Y016700
X013800Y013700
M30
