G04 Layer: TopPasteMaskLayer*
G04 EasyEDA v6.5.46, 2025-03-24 15:56:37*
G04 Gerber Generator version 0.2*
G04 Scale: 100 percent, Rotated: No, Reflected: No *
G04 Dimensions in inches *
G04 leading zeros omitted , absolute positions ,3 integer and 6 decimal *
%FSLAX36Y36*%
%MOIN*%

%ADD10R,0.0492X0.0394*%

%LPD*%
G36*
X746020Y3667960D02*
G01*
X744060Y3665980D01*
X744060Y3615600D01*
X746020Y3613620D01*
X791300Y3613620D01*
X793259Y3615600D01*
X793080Y3632120D01*
X775740Y3632120D01*
X775740Y3649840D01*
X793460Y3649840D01*
X793259Y3665980D01*
X791300Y3667960D01*
G37*
G36*
X830660Y3667960D02*
G01*
X828700Y3665980D01*
X828900Y3649840D01*
X846220Y3649840D01*
X846220Y3632120D01*
X828700Y3632120D01*
X828700Y3615600D01*
X830660Y3613620D01*
X875939Y3613620D01*
X877920Y3615600D01*
X877920Y3665980D01*
X875939Y3667960D01*
G37*
G36*
X2214800Y3686940D02*
G01*
X2212840Y3684960D01*
X2212840Y3639680D01*
X2214800Y3637720D01*
X2231340Y3637919D01*
X2231340Y3655240D01*
X2249060Y3655240D01*
X2249060Y3637520D01*
X2265200Y3637720D01*
X2267160Y3639680D01*
X2267160Y3684960D01*
X2265200Y3686940D01*
G37*
G36*
X2214800Y3602280D02*
G01*
X2212840Y3600320D01*
X2212840Y3555040D01*
X2214800Y3553080D01*
X2265200Y3553080D01*
X2267160Y3555040D01*
X2267160Y3600320D01*
X2265200Y3602280D01*
X2249060Y3602080D01*
X2249060Y3584760D01*
X2231340Y3584760D01*
X2231340Y3602280D01*
G37*
D10*
G01*
X1940000Y3688310D03*
G01*
X1940000Y3601689D03*
M02*
