G04 Layer: BottomPasteMaskLayer*
G04 EasyEDA v6.5.46, 2025-03-24 15:56:37*
G04 Gerber Generator version 0.2*
G04 Scale: 100 percent, Rotated: No, Reflected: No *
G04 Dimensions in inches *
G04 leading zeros omitted , absolute positions ,3 integer and 6 decimal *
%FSLAX36Y36*%
%MOIN*%

%ADD10C,0.0001*%

%LPD*%
G36*
X729800Y2557120D02*
G01*
X727840Y2555160D01*
X727840Y2509880D01*
X729800Y2507920D01*
X745939Y2507720D01*
X745939Y2525440D01*
X763660Y2525440D01*
X763660Y2508100D01*
X780200Y2507920D01*
X782159Y2509880D01*
X782159Y2555160D01*
X780200Y2557120D01*
G37*
G36*
X764060Y2472280D02*
G01*
X764060Y2454560D01*
X746340Y2454560D01*
X746340Y2471900D01*
X729800Y2472080D01*
X727840Y2470120D01*
X727840Y2424840D01*
X729800Y2422880D01*
X780200Y2422880D01*
X782159Y2424840D01*
X782159Y2470120D01*
X780200Y2472080D01*
G37*
G36*
X764060Y2007280D02*
G01*
X764060Y1989560D01*
X746340Y1989560D01*
X746340Y2006900D01*
X729800Y2007080D01*
X727840Y2005120D01*
X727840Y1959840D01*
X729800Y1957880D01*
X780200Y1957880D01*
X782159Y1959840D01*
X782159Y2005120D01*
X780200Y2007080D01*
G37*
G36*
X729800Y2092120D02*
G01*
X727840Y2090160D01*
X727840Y2044880D01*
X729800Y2042920D01*
X745939Y2042720D01*
X745939Y2060440D01*
X763660Y2060440D01*
X763660Y2043100D01*
X780200Y2042920D01*
X782159Y2044880D01*
X782159Y2090160D01*
X780200Y2092120D01*
G37*
G36*
X1926320Y2265820D02*
G01*
X1907900Y2250660D01*
X1907900Y2223600D01*
X1911840Y2219660D01*
X1958180Y2219660D01*
X1962100Y2223600D01*
X1962100Y2250660D01*
X1943680Y2265820D01*
G37*
G36*
X1911840Y2340340D02*
G01*
X1907900Y2336400D01*
X1907900Y2309340D01*
X1926320Y2294180D01*
X1943680Y2294180D01*
X1962100Y2309340D01*
X1962100Y2336400D01*
X1958180Y2340340D01*
G37*
G36*
X1926320Y2465820D02*
G01*
X1907900Y2450660D01*
X1907900Y2423600D01*
X1911840Y2419660D01*
X1958180Y2419660D01*
X1962100Y2423600D01*
X1962100Y2450660D01*
X1943680Y2465820D01*
G37*
G36*
X1911840Y2540340D02*
G01*
X1907900Y2536400D01*
X1907900Y2509340D01*
X1926320Y2494180D01*
X1943680Y2494180D01*
X1962100Y2509340D01*
X1962100Y2536400D01*
X1958180Y2540340D01*
G37*
M02*
