G04 Layer: TopLayer*
G04 EasyEDA v6.5.46, 2025-03-24 15:56:37*
G04 Gerber Generator version 0.2*
G04 Scale: 100 percent, Rotated: No, Reflected: No *
G04 Dimensions in inches *
G04 leading zeros omitted , absolute positions ,3 integer and 6 decimal *
%FSLAX36Y36*%
%MOIN*%

%AMMACRO1*21,1,$1,$2,0,0,$3*%
%ADD10C,0.0100*%
%ADD11C,0.0300*%
%ADD12R,0.0526X0.0591*%
%ADD13R,0.0492X0.0394*%
%ADD14MACRO1,0.0542X0.0446X0.0000*%
%ADD15R,0.0542X0.0446*%
%ADD16C,0.0551*%
%ADD17C,0.0512*%
%ADD18R,0.0669X0.0669*%
%ADD19C,0.0669*%
%ADD20R,0.0591X0.0591*%
%ADD21C,0.0591*%
%ADD22R,0.0620X0.0669*%
%ADD23C,0.0620*%
%ADD24R,0.0620X0.0620*%
%ADD25R,0.0650X0.0650*%
%ADD26C,0.0650*%
%ADD27C,0.0354*%
%ADD28O,0.031495999999999996X0.059054999999999996*%
%ADD29C,0.0630*%
%ADD30C,0.0551*%
%ADD31O,0.059054999999999996X0.07873999999999999*%
%ADD32R,0.0591X0.0787*%
%ADD33R,0.0394X0.0394*%
%ADD34C,0.0394*%
%ADD35O,0.035433X0.06299199999999999*%
%ADD36R,0.0354X0.0630*%
%ADD37C,0.1220*%
%ADD38C,0.0155*%

%LPD*%
G36*
X14200Y1420000D02*
G01*
X12660Y1420300D01*
X11379Y1421180D01*
X10500Y1422460D01*
X10200Y1424000D01*
X10200Y3785800D01*
X10500Y3787340D01*
X11379Y3788620D01*
X12660Y3789500D01*
X14200Y3789800D01*
X2585800Y3789800D01*
X2587340Y3789500D01*
X2588620Y3788620D01*
X2589500Y3787340D01*
X2589800Y3785800D01*
X2589800Y1424000D01*
X2589500Y1422460D01*
X2588620Y1421180D01*
X2587340Y1420300D01*
X2585800Y1420000D01*
X932440Y1420000D01*
X930920Y1420300D01*
X929620Y1421180D01*
X928740Y1422460D01*
X927500Y1425100D01*
X926540Y1426579D01*
X925480Y1427980D01*
X924220Y1429340D01*
X904340Y1449220D01*
X902980Y1450480D01*
X901580Y1451540D01*
X900100Y1452500D01*
X898540Y1453300D01*
X896900Y1453980D01*
X895220Y1454500D01*
X893500Y1454880D01*
X891760Y1455120D01*
X889920Y1455200D01*
X550080Y1455200D01*
X548240Y1455120D01*
X546500Y1454880D01*
X544780Y1454500D01*
X543100Y1453980D01*
X541460Y1453300D01*
X539900Y1452500D01*
X538420Y1451540D01*
X537020Y1450480D01*
X535660Y1449220D01*
X530780Y1444340D01*
X529520Y1442980D01*
X528460Y1441579D01*
X527500Y1440100D01*
X526700Y1438540D01*
X526020Y1436900D01*
X525500Y1435220D01*
X525120Y1433500D01*
X524880Y1431759D01*
X524800Y1429920D01*
X524800Y1424000D01*
X524500Y1422460D01*
X523620Y1421180D01*
X522340Y1420300D01*
X520800Y1420000D01*
G37*

%LPC*%
G36*
X2066740Y1451339D02*
G01*
X2133260Y1451339D01*
X2136420Y1451639D01*
X2139280Y1452520D01*
X2141900Y1453920D01*
X2144200Y1455800D01*
X2146080Y1458100D01*
X2147480Y1460720D01*
X2148360Y1463580D01*
X2148660Y1466740D01*
X2148660Y1477040D01*
X2149040Y1478760D01*
X2150120Y1480140D01*
X2151680Y1480920D01*
X2153440Y1480960D01*
X2155040Y1480260D01*
X2156180Y1478940D01*
X2158640Y1474379D01*
X2162100Y1469500D01*
X2166120Y1465060D01*
X2170680Y1461180D01*
X2175680Y1457860D01*
X2181040Y1455200D01*
X2186680Y1453200D01*
X2192540Y1451920D01*
X2198500Y1451360D01*
X2204480Y1451560D01*
X2210400Y1452460D01*
X2216180Y1454100D01*
X2221680Y1456440D01*
X2226880Y1459440D01*
X2231660Y1463040D01*
X2235960Y1467220D01*
X2239720Y1471879D01*
X2242860Y1476980D01*
X2245380Y1482420D01*
X2246140Y1484860D01*
X2246960Y1486279D01*
X2248260Y1487280D01*
X2249840Y1487660D01*
X2251440Y1487380D01*
X2252800Y1486459D01*
X2253700Y1485100D01*
X2255800Y1479660D01*
X2258640Y1474379D01*
X2262100Y1469500D01*
X2266120Y1465060D01*
X2270680Y1461180D01*
X2275680Y1457860D01*
X2281040Y1455200D01*
X2286680Y1453200D01*
X2292540Y1451920D01*
X2298500Y1451360D01*
X2304480Y1451560D01*
X2310400Y1452460D01*
X2316180Y1454100D01*
X2321680Y1456440D01*
X2326880Y1459440D01*
X2331660Y1463040D01*
X2335960Y1467220D01*
X2339720Y1471879D01*
X2342860Y1476980D01*
X2345380Y1482420D01*
X2346140Y1484860D01*
X2346960Y1486279D01*
X2348260Y1487280D01*
X2349840Y1487660D01*
X2351440Y1487380D01*
X2352800Y1486459D01*
X2353700Y1485100D01*
X2355800Y1479660D01*
X2358640Y1474379D01*
X2362100Y1469500D01*
X2366120Y1465060D01*
X2370680Y1461180D01*
X2375680Y1457860D01*
X2381040Y1455200D01*
X2386680Y1453200D01*
X2392540Y1451920D01*
X2398500Y1451360D01*
X2404480Y1451560D01*
X2410400Y1452460D01*
X2416180Y1454100D01*
X2421680Y1456440D01*
X2426880Y1459440D01*
X2431660Y1463040D01*
X2435960Y1467220D01*
X2439720Y1471879D01*
X2442860Y1476980D01*
X2445380Y1482420D01*
X2447180Y1488140D01*
X2448280Y1494019D01*
X2448660Y1500000D01*
X2448280Y1505980D01*
X2447180Y1511860D01*
X2445380Y1517580D01*
X2442860Y1523020D01*
X2439720Y1528120D01*
X2435960Y1532780D01*
X2431660Y1536960D01*
X2426880Y1540560D01*
X2421680Y1543560D01*
X2416180Y1545900D01*
X2410400Y1547540D01*
X2404480Y1548440D01*
X2398500Y1548640D01*
X2392540Y1548080D01*
X2386680Y1546800D01*
X2381040Y1544800D01*
X2375680Y1542140D01*
X2370680Y1538820D01*
X2366120Y1534940D01*
X2362100Y1530500D01*
X2358640Y1525620D01*
X2355800Y1520340D01*
X2353700Y1514900D01*
X2352800Y1513540D01*
X2351440Y1512620D01*
X2349840Y1512340D01*
X2348260Y1512720D01*
X2346960Y1513720D01*
X2346140Y1515140D01*
X2345380Y1517580D01*
X2342860Y1523020D01*
X2339720Y1528120D01*
X2335960Y1532780D01*
X2331660Y1536960D01*
X2326880Y1540560D01*
X2321680Y1543560D01*
X2316180Y1545900D01*
X2310400Y1547540D01*
X2304480Y1548440D01*
X2298500Y1548640D01*
X2292540Y1548080D01*
X2286680Y1546800D01*
X2281040Y1544800D01*
X2275680Y1542140D01*
X2270680Y1538820D01*
X2266120Y1534940D01*
X2262100Y1530500D01*
X2258640Y1525620D01*
X2255800Y1520340D01*
X2253700Y1514900D01*
X2252800Y1513540D01*
X2251440Y1512620D01*
X2249840Y1512340D01*
X2248260Y1512720D01*
X2246960Y1513720D01*
X2246140Y1515140D01*
X2245380Y1517580D01*
X2242860Y1523020D01*
X2239720Y1528120D01*
X2235960Y1532780D01*
X2231660Y1536960D01*
X2226880Y1540560D01*
X2221680Y1543560D01*
X2216180Y1545900D01*
X2210400Y1547540D01*
X2204480Y1548440D01*
X2198500Y1548640D01*
X2192540Y1548080D01*
X2186680Y1546800D01*
X2181040Y1544800D01*
X2175680Y1542140D01*
X2170680Y1538820D01*
X2166120Y1534940D01*
X2162100Y1530500D01*
X2158640Y1525620D01*
X2156180Y1521060D01*
X2155040Y1519740D01*
X2153440Y1519040D01*
X2151680Y1519079D01*
X2150120Y1519860D01*
X2149040Y1521240D01*
X2148660Y1522960D01*
X2148660Y1533260D01*
X2148360Y1536420D01*
X2147480Y1539280D01*
X2146080Y1541900D01*
X2144200Y1544199D01*
X2141900Y1546080D01*
X2139280Y1547480D01*
X2136420Y1548360D01*
X2133260Y1548660D01*
X2066740Y1548660D01*
X2063580Y1548360D01*
X2060720Y1547480D01*
X2058100Y1546080D01*
X2055800Y1544199D01*
X2053920Y1541900D01*
X2052520Y1539280D01*
X2051639Y1536420D01*
X2051339Y1533260D01*
X2051339Y1466740D01*
X2051639Y1463580D01*
X2052520Y1460720D01*
X2053920Y1458100D01*
X2055800Y1455800D01*
X2058100Y1453920D01*
X2060720Y1452520D01*
X2063580Y1451639D01*
G37*
G36*
X167520Y1471339D02*
G01*
X234060Y1471339D01*
X237220Y1471639D01*
X240060Y1472520D01*
X242680Y1473920D01*
X244980Y1475800D01*
X246880Y1478100D01*
X248280Y1480720D01*
X249140Y1483580D01*
X249460Y1486740D01*
X249460Y1497040D01*
X249840Y1498760D01*
X250920Y1500140D01*
X252480Y1500920D01*
X254220Y1500960D01*
X255820Y1500260D01*
X256980Y1498940D01*
X259420Y1494379D01*
X262880Y1489500D01*
X266920Y1485060D01*
X271460Y1481180D01*
X276460Y1477860D01*
X281820Y1475200D01*
X287480Y1473200D01*
X293320Y1471920D01*
X299280Y1471360D01*
X305280Y1471560D01*
X311200Y1472460D01*
X316960Y1474100D01*
X322480Y1476440D01*
X327660Y1479440D01*
X332440Y1483040D01*
X336740Y1487220D01*
X340500Y1491879D01*
X343660Y1496980D01*
X346160Y1502420D01*
X346940Y1504860D01*
X347740Y1506279D01*
X349040Y1507280D01*
X350620Y1507660D01*
X352220Y1507380D01*
X353579Y1506459D01*
X354480Y1505100D01*
X356580Y1499660D01*
X359420Y1494379D01*
X362879Y1489500D01*
X366920Y1485060D01*
X371460Y1481180D01*
X376460Y1477860D01*
X381820Y1475200D01*
X387480Y1473200D01*
X393320Y1471920D01*
X399280Y1471360D01*
X405280Y1471560D01*
X411200Y1472460D01*
X416960Y1474100D01*
X422480Y1476440D01*
X427660Y1479440D01*
X432440Y1483040D01*
X436740Y1487220D01*
X440500Y1491879D01*
X443660Y1496980D01*
X446160Y1502420D01*
X446940Y1504860D01*
X447740Y1506279D01*
X449040Y1507280D01*
X450620Y1507660D01*
X452220Y1507380D01*
X453579Y1506459D01*
X454480Y1505100D01*
X456580Y1499660D01*
X459420Y1494379D01*
X462879Y1489500D01*
X466920Y1485060D01*
X471460Y1481180D01*
X476460Y1477860D01*
X481820Y1475200D01*
X487480Y1473200D01*
X493320Y1471920D01*
X499280Y1471360D01*
X505280Y1471560D01*
X511200Y1472460D01*
X516960Y1474100D01*
X522480Y1476440D01*
X527660Y1479440D01*
X532440Y1483040D01*
X536740Y1487220D01*
X540500Y1491879D01*
X543660Y1496980D01*
X546160Y1502420D01*
X547980Y1508140D01*
X549080Y1514019D01*
X549440Y1520000D01*
X549080Y1525980D01*
X547980Y1531860D01*
X546160Y1537580D01*
X543660Y1543020D01*
X540500Y1548120D01*
X536740Y1552780D01*
X532440Y1556960D01*
X527660Y1560560D01*
X522480Y1563560D01*
X516960Y1565900D01*
X511200Y1567540D01*
X505280Y1568440D01*
X499280Y1568640D01*
X493320Y1568080D01*
X487480Y1566800D01*
X481820Y1564800D01*
X476460Y1562140D01*
X471460Y1558820D01*
X466920Y1554940D01*
X462879Y1550500D01*
X459420Y1545620D01*
X456580Y1540340D01*
X454480Y1534900D01*
X453579Y1533540D01*
X452220Y1532620D01*
X450620Y1532340D01*
X449040Y1532720D01*
X447740Y1533720D01*
X446940Y1535140D01*
X446160Y1537580D01*
X443660Y1543020D01*
X440500Y1548120D01*
X436740Y1552780D01*
X432440Y1556960D01*
X427660Y1560560D01*
X422480Y1563560D01*
X416960Y1565900D01*
X411200Y1567540D01*
X405280Y1568440D01*
X399280Y1568640D01*
X393320Y1568080D01*
X387480Y1566800D01*
X381820Y1564800D01*
X376460Y1562140D01*
X371460Y1558820D01*
X366920Y1554940D01*
X362879Y1550500D01*
X359420Y1545620D01*
X356580Y1540340D01*
X354480Y1534900D01*
X353579Y1533540D01*
X352220Y1532620D01*
X350620Y1532340D01*
X349040Y1532720D01*
X347740Y1533720D01*
X346940Y1535140D01*
X346160Y1537580D01*
X343660Y1543020D01*
X340500Y1548120D01*
X336740Y1552780D01*
X332440Y1556960D01*
X327660Y1560560D01*
X322480Y1563560D01*
X316960Y1565900D01*
X311200Y1567540D01*
X305280Y1568440D01*
X299280Y1568640D01*
X293320Y1568080D01*
X287480Y1566800D01*
X281820Y1564800D01*
X276460Y1562140D01*
X271460Y1558820D01*
X266920Y1554940D01*
X262880Y1550500D01*
X259420Y1545620D01*
X256980Y1541060D01*
X255820Y1539740D01*
X254220Y1539040D01*
X252480Y1539079D01*
X250920Y1539860D01*
X249840Y1541240D01*
X249460Y1542960D01*
X249460Y1553260D01*
X249140Y1556420D01*
X248280Y1559280D01*
X246880Y1561900D01*
X244980Y1564199D01*
X242680Y1566080D01*
X240060Y1567480D01*
X237220Y1568360D01*
X234060Y1568660D01*
X167520Y1568660D01*
X164360Y1568360D01*
X161520Y1567480D01*
X158880Y1566080D01*
X156580Y1564199D01*
X154700Y1561900D01*
X153300Y1559280D01*
X152440Y1556420D01*
X152120Y1553260D01*
X152120Y1486740D01*
X152440Y1483580D01*
X153300Y1480720D01*
X154700Y1478100D01*
X156580Y1475800D01*
X158880Y1473920D01*
X161520Y1472520D01*
X164360Y1471639D01*
G37*
G36*
X930660Y1475280D02*
G01*
X989340Y1475280D01*
X992480Y1475580D01*
X995340Y1476440D01*
X997960Y1477860D01*
X1000260Y1479740D01*
X1002140Y1482040D01*
X1003560Y1484660D01*
X1004419Y1487520D01*
X1004720Y1490660D01*
X1004720Y1549340D01*
X1004419Y1552480D01*
X1003560Y1555340D01*
X1002140Y1557960D01*
X1000260Y1560260D01*
X997960Y1562140D01*
X995340Y1563560D01*
X992480Y1564420D01*
X989340Y1564720D01*
X984200Y1564720D01*
X982660Y1565040D01*
X981380Y1565900D01*
X980500Y1567200D01*
X980200Y1568720D01*
X980200Y1651279D01*
X980500Y1652800D01*
X981380Y1654100D01*
X982660Y1654960D01*
X984200Y1655280D01*
X989340Y1655280D01*
X992480Y1655580D01*
X995340Y1656440D01*
X997960Y1657860D01*
X1000260Y1659740D01*
X1002140Y1662040D01*
X1003560Y1664660D01*
X1004419Y1667520D01*
X1004720Y1670660D01*
X1004720Y1729340D01*
X1004419Y1732480D01*
X1003560Y1735340D01*
X1002140Y1737960D01*
X1000260Y1740260D01*
X997960Y1742140D01*
X995340Y1743560D01*
X992480Y1744420D01*
X989340Y1744720D01*
X930660Y1744720D01*
X927520Y1744420D01*
X924659Y1743560D01*
X922039Y1742140D01*
X919740Y1740260D01*
X917860Y1737960D01*
X916440Y1735340D01*
X915580Y1732480D01*
X915280Y1729340D01*
X915280Y1670660D01*
X915580Y1667520D01*
X916440Y1664660D01*
X917860Y1662040D01*
X919740Y1659740D01*
X922039Y1657860D01*
X924659Y1656440D01*
X927520Y1655580D01*
X930660Y1655280D01*
X935800Y1655280D01*
X937340Y1654960D01*
X938620Y1654100D01*
X939500Y1652800D01*
X939800Y1651279D01*
X939800Y1568720D01*
X939500Y1567200D01*
X938620Y1565900D01*
X937340Y1565040D01*
X935800Y1564720D01*
X930660Y1564720D01*
X927520Y1564420D01*
X924659Y1563560D01*
X922039Y1562140D01*
X919740Y1560260D01*
X917860Y1557960D01*
X916440Y1555340D01*
X915580Y1552480D01*
X915280Y1549340D01*
X915280Y1490660D01*
X915580Y1487520D01*
X916440Y1484660D01*
X917860Y1482040D01*
X919740Y1479740D01*
X922039Y1477860D01*
X924659Y1476440D01*
X927520Y1475580D01*
G37*
G36*
X1257200Y1475360D02*
G01*
X1262800Y1475360D01*
X1268380Y1476080D01*
X1273820Y1477460D01*
X1279040Y1479540D01*
X1283959Y1482240D01*
X1288500Y1485540D01*
X1292600Y1489379D01*
X1296180Y1493720D01*
X1299180Y1498460D01*
X1301579Y1503540D01*
X1303320Y1508880D01*
X1304360Y1514400D01*
X1304720Y1520000D01*
X1304360Y1525600D01*
X1303320Y1531120D01*
X1301579Y1536459D01*
X1299180Y1541540D01*
X1296180Y1546279D01*
X1292600Y1550620D01*
X1288500Y1554460D01*
X1283959Y1557760D01*
X1282280Y1558680D01*
X1281180Y1559580D01*
X1280460Y1560800D01*
X1280200Y1562200D01*
X1280200Y1657800D01*
X1280460Y1659199D01*
X1281180Y1660420D01*
X1282280Y1661320D01*
X1283959Y1662240D01*
X1288500Y1665540D01*
X1292600Y1669379D01*
X1296180Y1673720D01*
X1299180Y1678460D01*
X1301579Y1683540D01*
X1303320Y1688880D01*
X1304360Y1694400D01*
X1304720Y1700000D01*
X1304360Y1705600D01*
X1303320Y1711120D01*
X1301579Y1716459D01*
X1299180Y1721540D01*
X1296180Y1726279D01*
X1292600Y1730620D01*
X1288500Y1734460D01*
X1283959Y1737760D01*
X1279040Y1740460D01*
X1273820Y1742540D01*
X1268380Y1743920D01*
X1262800Y1744640D01*
X1257200Y1744640D01*
X1251620Y1743920D01*
X1246180Y1742540D01*
X1240960Y1740460D01*
X1236040Y1737760D01*
X1231500Y1734460D01*
X1227400Y1730620D01*
X1223820Y1726279D01*
X1220820Y1721540D01*
X1218420Y1716459D01*
X1216680Y1711120D01*
X1215640Y1705600D01*
X1215280Y1700000D01*
X1215640Y1694400D01*
X1216680Y1688880D01*
X1218420Y1683540D01*
X1220820Y1678460D01*
X1223820Y1673720D01*
X1227400Y1669379D01*
X1231500Y1665540D01*
X1236040Y1662240D01*
X1237720Y1661320D01*
X1238820Y1660420D01*
X1239540Y1659199D01*
X1239800Y1657800D01*
X1239800Y1562200D01*
X1239540Y1560800D01*
X1238820Y1559580D01*
X1237720Y1558680D01*
X1236040Y1557760D01*
X1231500Y1554460D01*
X1227400Y1550620D01*
X1223820Y1546279D01*
X1220820Y1541540D01*
X1218420Y1536459D01*
X1216680Y1531120D01*
X1215640Y1525600D01*
X1215280Y1520000D01*
X1215640Y1514400D01*
X1216680Y1508880D01*
X1218420Y1503540D01*
X1220820Y1498460D01*
X1223820Y1493720D01*
X1227400Y1489379D01*
X1231500Y1485540D01*
X1236040Y1482240D01*
X1240960Y1479540D01*
X1246180Y1477460D01*
X1251620Y1476080D01*
G37*
G36*
X1457200Y1475360D02*
G01*
X1462800Y1475360D01*
X1468380Y1476080D01*
X1473820Y1477460D01*
X1479040Y1479540D01*
X1483959Y1482240D01*
X1488500Y1485540D01*
X1492600Y1489379D01*
X1496180Y1493720D01*
X1499180Y1498460D01*
X1501579Y1503540D01*
X1503320Y1508880D01*
X1504360Y1514400D01*
X1504720Y1520000D01*
X1504360Y1525600D01*
X1503320Y1531120D01*
X1501579Y1536459D01*
X1499180Y1541540D01*
X1496180Y1546279D01*
X1492600Y1550620D01*
X1488500Y1554460D01*
X1483959Y1557760D01*
X1482280Y1558680D01*
X1481180Y1559580D01*
X1480460Y1560800D01*
X1480200Y1562200D01*
X1480200Y1657800D01*
X1480460Y1659199D01*
X1481180Y1660420D01*
X1482280Y1661320D01*
X1483959Y1662240D01*
X1488500Y1665540D01*
X1492600Y1669379D01*
X1496180Y1673720D01*
X1499180Y1678460D01*
X1501579Y1683540D01*
X1503320Y1688880D01*
X1504360Y1694400D01*
X1504720Y1700000D01*
X1504360Y1705600D01*
X1503320Y1711120D01*
X1501579Y1716459D01*
X1499180Y1721540D01*
X1496180Y1726279D01*
X1492600Y1730620D01*
X1488500Y1734460D01*
X1483959Y1737760D01*
X1479040Y1740460D01*
X1473820Y1742540D01*
X1468380Y1743920D01*
X1462800Y1744640D01*
X1457200Y1744640D01*
X1451620Y1743920D01*
X1446180Y1742540D01*
X1440960Y1740460D01*
X1436040Y1737760D01*
X1431500Y1734460D01*
X1427400Y1730620D01*
X1423820Y1726279D01*
X1420820Y1721540D01*
X1418420Y1716459D01*
X1416680Y1711120D01*
X1415640Y1705600D01*
X1415280Y1700000D01*
X1415640Y1694400D01*
X1416680Y1688880D01*
X1418420Y1683540D01*
X1420820Y1678460D01*
X1423820Y1673720D01*
X1427400Y1669379D01*
X1431500Y1665540D01*
X1436040Y1662240D01*
X1437720Y1661320D01*
X1438820Y1660420D01*
X1439540Y1659199D01*
X1439800Y1657800D01*
X1439800Y1562200D01*
X1439540Y1560800D01*
X1438820Y1559580D01*
X1437720Y1558680D01*
X1436040Y1557760D01*
X1431500Y1554460D01*
X1427400Y1550620D01*
X1423820Y1546279D01*
X1420820Y1541540D01*
X1418420Y1536459D01*
X1416680Y1531120D01*
X1415640Y1525600D01*
X1415280Y1520000D01*
X1415640Y1514400D01*
X1416680Y1508880D01*
X1418420Y1503540D01*
X1420820Y1498460D01*
X1423820Y1493720D01*
X1427400Y1489379D01*
X1431500Y1485540D01*
X1436040Y1482240D01*
X1440960Y1479540D01*
X1446180Y1477460D01*
X1451620Y1476080D01*
G37*
G36*
X1357200Y1475360D02*
G01*
X1362800Y1475360D01*
X1368380Y1476080D01*
X1373820Y1477460D01*
X1379040Y1479540D01*
X1383959Y1482240D01*
X1388500Y1485540D01*
X1392600Y1489379D01*
X1396180Y1493720D01*
X1399180Y1498460D01*
X1401579Y1503540D01*
X1403320Y1508880D01*
X1404360Y1514400D01*
X1404720Y1520000D01*
X1404360Y1525600D01*
X1403320Y1531120D01*
X1401579Y1536459D01*
X1399180Y1541540D01*
X1396180Y1546279D01*
X1392600Y1550620D01*
X1388500Y1554460D01*
X1383959Y1557760D01*
X1382280Y1558680D01*
X1381180Y1559580D01*
X1380460Y1560800D01*
X1380200Y1562200D01*
X1380200Y1657800D01*
X1380460Y1659199D01*
X1381180Y1660420D01*
X1382280Y1661320D01*
X1383959Y1662240D01*
X1388500Y1665540D01*
X1392600Y1669379D01*
X1396180Y1673720D01*
X1399180Y1678460D01*
X1401579Y1683540D01*
X1403320Y1688880D01*
X1404360Y1694400D01*
X1404720Y1700000D01*
X1404360Y1705600D01*
X1403320Y1711120D01*
X1401579Y1716459D01*
X1399180Y1721540D01*
X1396180Y1726279D01*
X1392600Y1730620D01*
X1388500Y1734460D01*
X1383959Y1737760D01*
X1379040Y1740460D01*
X1373820Y1742540D01*
X1368380Y1743920D01*
X1362800Y1744640D01*
X1357200Y1744640D01*
X1351620Y1743920D01*
X1346180Y1742540D01*
X1340960Y1740460D01*
X1336040Y1737760D01*
X1331500Y1734460D01*
X1327400Y1730620D01*
X1323820Y1726279D01*
X1320820Y1721540D01*
X1318420Y1716459D01*
X1316680Y1711120D01*
X1315640Y1705600D01*
X1315280Y1700000D01*
X1315640Y1694400D01*
X1316680Y1688880D01*
X1318420Y1683540D01*
X1320820Y1678460D01*
X1323820Y1673720D01*
X1327400Y1669379D01*
X1331500Y1665540D01*
X1336040Y1662240D01*
X1337720Y1661320D01*
X1338820Y1660420D01*
X1339540Y1659199D01*
X1339800Y1657800D01*
X1339800Y1562200D01*
X1339540Y1560800D01*
X1338820Y1559580D01*
X1337720Y1558680D01*
X1336040Y1557760D01*
X1331500Y1554460D01*
X1327400Y1550620D01*
X1323820Y1546279D01*
X1320820Y1541540D01*
X1318420Y1536459D01*
X1316680Y1531120D01*
X1315640Y1525600D01*
X1315280Y1520000D01*
X1315640Y1514400D01*
X1316680Y1508880D01*
X1318420Y1503540D01*
X1320820Y1498460D01*
X1323820Y1493720D01*
X1327400Y1489379D01*
X1331500Y1485540D01*
X1336040Y1482240D01*
X1340960Y1479540D01*
X1346180Y1477460D01*
X1351620Y1476080D01*
G37*
G36*
X1157200Y1475360D02*
G01*
X1162800Y1475360D01*
X1168380Y1476080D01*
X1173820Y1477460D01*
X1179040Y1479540D01*
X1183960Y1482240D01*
X1188500Y1485540D01*
X1192600Y1489379D01*
X1196180Y1493720D01*
X1199180Y1498460D01*
X1201580Y1503540D01*
X1203320Y1508880D01*
X1204360Y1514400D01*
X1204720Y1520000D01*
X1204360Y1525600D01*
X1203320Y1531120D01*
X1201580Y1536459D01*
X1199180Y1541540D01*
X1196180Y1546279D01*
X1192600Y1550620D01*
X1188500Y1554460D01*
X1183960Y1557760D01*
X1182280Y1558680D01*
X1181180Y1559580D01*
X1180460Y1560800D01*
X1180200Y1562200D01*
X1180200Y1657800D01*
X1180460Y1659199D01*
X1181180Y1660420D01*
X1182280Y1661320D01*
X1183960Y1662240D01*
X1188500Y1665540D01*
X1192600Y1669379D01*
X1196180Y1673720D01*
X1199180Y1678460D01*
X1201580Y1683540D01*
X1203320Y1688880D01*
X1204360Y1694400D01*
X1204720Y1700000D01*
X1204360Y1705600D01*
X1203320Y1711120D01*
X1201580Y1716459D01*
X1199180Y1721540D01*
X1196180Y1726279D01*
X1192600Y1730620D01*
X1188500Y1734460D01*
X1183960Y1737760D01*
X1179040Y1740460D01*
X1173820Y1742540D01*
X1168380Y1743920D01*
X1162800Y1744640D01*
X1157200Y1744640D01*
X1151620Y1743920D01*
X1146180Y1742540D01*
X1140960Y1740460D01*
X1136040Y1737760D01*
X1131500Y1734460D01*
X1127400Y1730620D01*
X1123820Y1726279D01*
X1120820Y1721540D01*
X1118420Y1716459D01*
X1116680Y1711120D01*
X1115640Y1705600D01*
X1115280Y1700000D01*
X1115640Y1694400D01*
X1116680Y1688880D01*
X1118420Y1683540D01*
X1120820Y1678460D01*
X1123820Y1673720D01*
X1127400Y1669379D01*
X1131500Y1665540D01*
X1136040Y1662240D01*
X1137720Y1661320D01*
X1138820Y1660420D01*
X1139540Y1659199D01*
X1139800Y1657800D01*
X1139800Y1562200D01*
X1139540Y1560800D01*
X1138820Y1559580D01*
X1137720Y1558680D01*
X1136040Y1557760D01*
X1131500Y1554460D01*
X1127400Y1550620D01*
X1123820Y1546279D01*
X1120820Y1541540D01*
X1118420Y1536459D01*
X1116680Y1531120D01*
X1115640Y1525600D01*
X1115280Y1520000D01*
X1115640Y1514400D01*
X1116680Y1508880D01*
X1118420Y1503540D01*
X1120820Y1498460D01*
X1123820Y1493720D01*
X1127400Y1489379D01*
X1131500Y1485540D01*
X1136040Y1482240D01*
X1140960Y1479540D01*
X1146180Y1477460D01*
X1151620Y1476080D01*
G37*
G36*
X1557200Y1475360D02*
G01*
X1562800Y1475360D01*
X1568380Y1476080D01*
X1573820Y1477460D01*
X1579040Y1479540D01*
X1583959Y1482240D01*
X1588500Y1485540D01*
X1592600Y1489379D01*
X1596180Y1493720D01*
X1599180Y1498460D01*
X1601579Y1503540D01*
X1603320Y1508880D01*
X1604360Y1514400D01*
X1604720Y1520000D01*
X1604360Y1525600D01*
X1603320Y1531120D01*
X1601579Y1536459D01*
X1599180Y1541540D01*
X1596180Y1546279D01*
X1592600Y1550620D01*
X1588500Y1554460D01*
X1583959Y1557760D01*
X1582280Y1558680D01*
X1581180Y1559580D01*
X1580460Y1560800D01*
X1580200Y1562200D01*
X1580200Y1657800D01*
X1580460Y1659199D01*
X1581180Y1660420D01*
X1582280Y1661320D01*
X1583959Y1662240D01*
X1588500Y1665540D01*
X1592600Y1669379D01*
X1596180Y1673720D01*
X1599180Y1678460D01*
X1601579Y1683540D01*
X1603320Y1688880D01*
X1604360Y1694400D01*
X1604720Y1700000D01*
X1604360Y1705600D01*
X1603320Y1711120D01*
X1601579Y1716459D01*
X1599180Y1721540D01*
X1596180Y1726279D01*
X1592600Y1730620D01*
X1588500Y1734460D01*
X1583959Y1737760D01*
X1579040Y1740460D01*
X1573820Y1742540D01*
X1568380Y1743920D01*
X1562800Y1744640D01*
X1557200Y1744640D01*
X1551620Y1743920D01*
X1546180Y1742540D01*
X1540960Y1740460D01*
X1536040Y1737760D01*
X1531500Y1734460D01*
X1527400Y1730620D01*
X1523820Y1726279D01*
X1520820Y1721540D01*
X1518420Y1716459D01*
X1516680Y1711120D01*
X1515640Y1705600D01*
X1515280Y1700000D01*
X1515640Y1694400D01*
X1516680Y1688880D01*
X1518420Y1683540D01*
X1520820Y1678460D01*
X1523820Y1673720D01*
X1527400Y1669379D01*
X1531500Y1665540D01*
X1536040Y1662240D01*
X1537720Y1661320D01*
X1538820Y1660420D01*
X1539540Y1659199D01*
X1539800Y1657800D01*
X1539800Y1562200D01*
X1539540Y1560800D01*
X1538820Y1559580D01*
X1537720Y1558680D01*
X1536040Y1557760D01*
X1531500Y1554460D01*
X1527400Y1550620D01*
X1523820Y1546279D01*
X1520820Y1541540D01*
X1518420Y1536459D01*
X1516680Y1531120D01*
X1515640Y1525600D01*
X1515280Y1520000D01*
X1515640Y1514400D01*
X1516680Y1508880D01*
X1518420Y1503540D01*
X1520820Y1498460D01*
X1523820Y1493720D01*
X1527400Y1489379D01*
X1531500Y1485540D01*
X1536040Y1482240D01*
X1540960Y1479540D01*
X1546180Y1477460D01*
X1551620Y1476080D01*
G37*
G36*
X1657200Y1475360D02*
G01*
X1662800Y1475360D01*
X1668380Y1476080D01*
X1673820Y1477460D01*
X1679040Y1479540D01*
X1683959Y1482240D01*
X1688500Y1485540D01*
X1692600Y1489379D01*
X1696180Y1493720D01*
X1699180Y1498460D01*
X1701579Y1503540D01*
X1703320Y1508880D01*
X1704360Y1514400D01*
X1704720Y1520000D01*
X1704360Y1525600D01*
X1703320Y1531120D01*
X1701579Y1536459D01*
X1699180Y1541540D01*
X1696180Y1546279D01*
X1692600Y1550620D01*
X1688500Y1554460D01*
X1683959Y1557760D01*
X1682280Y1558680D01*
X1681180Y1559580D01*
X1680460Y1560800D01*
X1680200Y1562200D01*
X1680200Y1657800D01*
X1680460Y1659199D01*
X1681180Y1660420D01*
X1682280Y1661320D01*
X1683959Y1662240D01*
X1688500Y1665540D01*
X1692600Y1669379D01*
X1696180Y1673720D01*
X1699180Y1678460D01*
X1701579Y1683540D01*
X1703320Y1688880D01*
X1704360Y1694400D01*
X1704720Y1700000D01*
X1704360Y1705600D01*
X1703320Y1711120D01*
X1701579Y1716459D01*
X1699180Y1721540D01*
X1696180Y1726279D01*
X1692600Y1730620D01*
X1688500Y1734460D01*
X1683959Y1737760D01*
X1679040Y1740460D01*
X1673820Y1742540D01*
X1668380Y1743920D01*
X1662800Y1744640D01*
X1657200Y1744640D01*
X1651620Y1743920D01*
X1646180Y1742540D01*
X1640960Y1740460D01*
X1636040Y1737760D01*
X1631500Y1734460D01*
X1627400Y1730620D01*
X1623820Y1726279D01*
X1620820Y1721540D01*
X1618420Y1716459D01*
X1616680Y1711120D01*
X1615640Y1705600D01*
X1615280Y1700000D01*
X1615640Y1694400D01*
X1616680Y1688880D01*
X1618420Y1683540D01*
X1620820Y1678460D01*
X1623820Y1673720D01*
X1627400Y1669379D01*
X1631500Y1665540D01*
X1636040Y1662240D01*
X1637720Y1661320D01*
X1638820Y1660420D01*
X1639540Y1659199D01*
X1639800Y1657800D01*
X1639800Y1562200D01*
X1639540Y1560800D01*
X1638820Y1559580D01*
X1637720Y1558680D01*
X1636040Y1557760D01*
X1631500Y1554460D01*
X1627400Y1550620D01*
X1623820Y1546279D01*
X1620820Y1541540D01*
X1618420Y1536459D01*
X1616680Y1531120D01*
X1615640Y1525600D01*
X1615280Y1520000D01*
X1615640Y1514400D01*
X1616680Y1508880D01*
X1618420Y1503540D01*
X1620820Y1498460D01*
X1623820Y1493720D01*
X1627400Y1489379D01*
X1631500Y1485540D01*
X1636040Y1482240D01*
X1640960Y1479540D01*
X1646180Y1477460D01*
X1651620Y1476080D01*
G37*
G36*
X1057200Y1475360D02*
G01*
X1062800Y1475360D01*
X1068380Y1476080D01*
X1073820Y1477460D01*
X1079040Y1479540D01*
X1083960Y1482240D01*
X1088500Y1485540D01*
X1092600Y1489379D01*
X1096180Y1493720D01*
X1099180Y1498460D01*
X1101580Y1503540D01*
X1103320Y1508880D01*
X1104360Y1514400D01*
X1104720Y1520000D01*
X1104360Y1525600D01*
X1103320Y1531120D01*
X1101580Y1536459D01*
X1099180Y1541540D01*
X1096180Y1546279D01*
X1092600Y1550620D01*
X1088500Y1554460D01*
X1083960Y1557760D01*
X1082280Y1558680D01*
X1081180Y1559580D01*
X1080460Y1560800D01*
X1080200Y1562200D01*
X1080200Y1657800D01*
X1080460Y1659199D01*
X1081180Y1660420D01*
X1082280Y1661320D01*
X1083960Y1662240D01*
X1088500Y1665540D01*
X1092600Y1669379D01*
X1096180Y1673720D01*
X1099180Y1678460D01*
X1101580Y1683540D01*
X1103320Y1688880D01*
X1104360Y1694400D01*
X1104720Y1700000D01*
X1104360Y1705600D01*
X1103320Y1711120D01*
X1101580Y1716459D01*
X1099180Y1721540D01*
X1096180Y1726279D01*
X1092600Y1730620D01*
X1088500Y1734460D01*
X1083960Y1737760D01*
X1079040Y1740460D01*
X1073820Y1742540D01*
X1068380Y1743920D01*
X1062800Y1744640D01*
X1057200Y1744640D01*
X1051620Y1743920D01*
X1046180Y1742540D01*
X1040960Y1740460D01*
X1036040Y1737760D01*
X1031500Y1734460D01*
X1027400Y1730620D01*
X1023820Y1726279D01*
X1020819Y1721540D01*
X1018420Y1716459D01*
X1016680Y1711120D01*
X1015639Y1705600D01*
X1015280Y1700000D01*
X1015639Y1694400D01*
X1016680Y1688880D01*
X1018420Y1683540D01*
X1020819Y1678460D01*
X1023820Y1673720D01*
X1027400Y1669379D01*
X1031500Y1665540D01*
X1036040Y1662240D01*
X1037720Y1661320D01*
X1038820Y1660420D01*
X1039539Y1659199D01*
X1039800Y1657800D01*
X1039800Y1562200D01*
X1039539Y1560800D01*
X1038820Y1559580D01*
X1037720Y1558680D01*
X1036040Y1557760D01*
X1031500Y1554460D01*
X1027400Y1550620D01*
X1023820Y1546279D01*
X1020819Y1541540D01*
X1018420Y1536459D01*
X1016680Y1531120D01*
X1015639Y1525600D01*
X1015280Y1520000D01*
X1015639Y1514400D01*
X1016680Y1508880D01*
X1018420Y1503540D01*
X1020819Y1498460D01*
X1023820Y1493720D01*
X1027400Y1489379D01*
X1031500Y1485540D01*
X1036040Y1482240D01*
X1040960Y1479540D01*
X1046180Y1477460D01*
X1051620Y1476080D01*
G37*
G36*
X167520Y1621339D02*
G01*
X195780Y1621339D01*
X195780Y1665000D01*
X152120Y1665000D01*
X152120Y1636740D01*
X152440Y1633580D01*
X153300Y1630720D01*
X154700Y1628100D01*
X156580Y1625800D01*
X158880Y1623920D01*
X161520Y1622520D01*
X164360Y1621639D01*
G37*
G36*
X205780Y1621339D02*
G01*
X234060Y1621339D01*
X237220Y1621639D01*
X240060Y1622520D01*
X242680Y1623920D01*
X244980Y1625800D01*
X246880Y1628100D01*
X248280Y1630720D01*
X249140Y1633580D01*
X249460Y1636740D01*
X249460Y1647040D01*
X249840Y1648760D01*
X250920Y1650140D01*
X252480Y1650920D01*
X254220Y1650960D01*
X255820Y1650260D01*
X256980Y1648940D01*
X259420Y1644379D01*
X262880Y1639500D01*
X266920Y1635060D01*
X271460Y1631180D01*
X276460Y1627860D01*
X281820Y1625200D01*
X287480Y1623200D01*
X293320Y1621920D01*
X295780Y1621699D01*
X295780Y1665000D01*
X205780Y1665000D01*
G37*
G36*
X2066740Y1621339D02*
G01*
X2133260Y1621339D01*
X2136420Y1621639D01*
X2139280Y1622520D01*
X2141900Y1623920D01*
X2144200Y1625800D01*
X2146080Y1628100D01*
X2147480Y1630720D01*
X2148360Y1633580D01*
X2148660Y1636740D01*
X2148660Y1647040D01*
X2149040Y1648760D01*
X2150120Y1650140D01*
X2151680Y1650920D01*
X2153440Y1650960D01*
X2155040Y1650260D01*
X2156180Y1648940D01*
X2158640Y1644379D01*
X2162100Y1639500D01*
X2166120Y1635060D01*
X2170680Y1631180D01*
X2175680Y1627860D01*
X2181040Y1625200D01*
X2186680Y1623200D01*
X2192540Y1621920D01*
X2195000Y1621699D01*
X2195000Y1665000D01*
X2152660Y1665000D01*
X2151140Y1665300D01*
X2149840Y1666180D01*
X2148960Y1667460D01*
X2148660Y1669000D01*
X2148660Y1671000D01*
X2148960Y1672540D01*
X2149840Y1673820D01*
X2151140Y1674700D01*
X2152660Y1675000D01*
X2195000Y1675000D01*
X2195000Y1718300D01*
X2192540Y1718080D01*
X2186680Y1716800D01*
X2181040Y1714800D01*
X2175680Y1712140D01*
X2170680Y1708820D01*
X2166120Y1704940D01*
X2162100Y1700500D01*
X2158640Y1695620D01*
X2156180Y1691060D01*
X2155040Y1689740D01*
X2153440Y1689040D01*
X2151680Y1689079D01*
X2150120Y1689860D01*
X2149040Y1691240D01*
X2148660Y1692960D01*
X2148660Y1703260D01*
X2148360Y1706420D01*
X2147480Y1709280D01*
X2146080Y1711900D01*
X2144200Y1714199D01*
X2141900Y1716080D01*
X2139280Y1717480D01*
X2136420Y1718360D01*
X2133260Y1718660D01*
X2066740Y1718660D01*
X2063580Y1718360D01*
X2060720Y1717480D01*
X2058100Y1716080D01*
X2055800Y1714199D01*
X2053920Y1711900D01*
X2052520Y1709280D01*
X2051639Y1706420D01*
X2051339Y1703260D01*
X2051339Y1636740D01*
X2051639Y1633580D01*
X2052520Y1630720D01*
X2053920Y1628100D01*
X2055800Y1625800D01*
X2058100Y1623920D01*
X2060720Y1622520D01*
X2063580Y1621639D01*
G37*
G36*
X505780Y1621620D02*
G01*
X511200Y1622460D01*
X516960Y1624100D01*
X522480Y1626440D01*
X527660Y1629440D01*
X532440Y1633040D01*
X536740Y1637220D01*
X540500Y1641879D01*
X543660Y1646980D01*
X546160Y1652420D01*
X547980Y1658140D01*
X549080Y1664019D01*
X549140Y1665000D01*
X505780Y1665000D01*
G37*
G36*
X2405000Y1621620D02*
G01*
X2410400Y1622460D01*
X2416180Y1624100D01*
X2421680Y1626440D01*
X2426880Y1629440D01*
X2431660Y1633040D01*
X2435960Y1637220D01*
X2439720Y1641879D01*
X2442860Y1646980D01*
X2445380Y1652420D01*
X2447180Y1658140D01*
X2448280Y1664019D01*
X2448340Y1665000D01*
X2405000Y1665000D01*
G37*
G36*
X305780Y1621620D02*
G01*
X311200Y1622460D01*
X316960Y1624100D01*
X322480Y1626440D01*
X327660Y1629440D01*
X332440Y1633040D01*
X336740Y1637220D01*
X340500Y1641879D01*
X343660Y1646980D01*
X346160Y1652420D01*
X346940Y1654860D01*
X347740Y1656279D01*
X349040Y1657280D01*
X350620Y1657660D01*
X352220Y1657380D01*
X353579Y1656459D01*
X354480Y1655100D01*
X356580Y1649660D01*
X359420Y1644379D01*
X362879Y1639500D01*
X366920Y1635060D01*
X371460Y1631180D01*
X376460Y1627860D01*
X381820Y1625200D01*
X387480Y1623200D01*
X393320Y1621920D01*
X395780Y1621699D01*
X395780Y1665000D01*
X305780Y1665000D01*
G37*
G36*
X405780Y1621620D02*
G01*
X411200Y1622460D01*
X416960Y1624100D01*
X422480Y1626440D01*
X427660Y1629440D01*
X432440Y1633040D01*
X436740Y1637220D01*
X440500Y1641879D01*
X443660Y1646980D01*
X446160Y1652420D01*
X446940Y1654860D01*
X447740Y1656279D01*
X449040Y1657280D01*
X450620Y1657660D01*
X452220Y1657380D01*
X453579Y1656459D01*
X454480Y1655100D01*
X456580Y1649660D01*
X459420Y1644379D01*
X462879Y1639500D01*
X466920Y1635060D01*
X471460Y1631180D01*
X476460Y1627860D01*
X481820Y1625200D01*
X487480Y1623200D01*
X493320Y1621920D01*
X495780Y1621699D01*
X495780Y1665000D01*
X405780Y1665000D01*
G37*
G36*
X2205000Y1621620D02*
G01*
X2210400Y1622460D01*
X2216180Y1624100D01*
X2221680Y1626440D01*
X2226880Y1629440D01*
X2231660Y1633040D01*
X2235960Y1637220D01*
X2239720Y1641879D01*
X2242860Y1646980D01*
X2245380Y1652420D01*
X2246140Y1654860D01*
X2246960Y1656279D01*
X2248260Y1657280D01*
X2249840Y1657660D01*
X2251440Y1657380D01*
X2252800Y1656459D01*
X2253700Y1655100D01*
X2255800Y1649660D01*
X2258640Y1644379D01*
X2262100Y1639500D01*
X2266120Y1635060D01*
X2270680Y1631180D01*
X2275680Y1627860D01*
X2281040Y1625200D01*
X2286680Y1623200D01*
X2292540Y1621920D01*
X2295000Y1621699D01*
X2295000Y1665000D01*
X2205000Y1665000D01*
G37*
G36*
X2305000Y1621620D02*
G01*
X2310400Y1622460D01*
X2316180Y1624100D01*
X2321680Y1626440D01*
X2326880Y1629440D01*
X2331660Y1633040D01*
X2335960Y1637220D01*
X2339720Y1641879D01*
X2342860Y1646980D01*
X2345380Y1652420D01*
X2346140Y1654860D01*
X2346960Y1656279D01*
X2348260Y1657280D01*
X2349840Y1657660D01*
X2351440Y1657380D01*
X2352800Y1656459D01*
X2353700Y1655100D01*
X2355800Y1649660D01*
X2358640Y1644379D01*
X2362100Y1639500D01*
X2366120Y1635060D01*
X2370680Y1631180D01*
X2375680Y1627860D01*
X2381040Y1625200D01*
X2386680Y1623200D01*
X2392540Y1621920D01*
X2395000Y1621699D01*
X2395000Y1665000D01*
X2305000Y1665000D01*
G37*
G36*
X2405000Y1675000D02*
G01*
X2448340Y1675000D01*
X2448280Y1675980D01*
X2447180Y1681860D01*
X2445380Y1687580D01*
X2442860Y1693020D01*
X2439720Y1698120D01*
X2435960Y1702780D01*
X2431660Y1706960D01*
X2426880Y1710560D01*
X2421680Y1713560D01*
X2416180Y1715900D01*
X2410400Y1717540D01*
X2405000Y1718380D01*
G37*
G36*
X505780Y1675000D02*
G01*
X549140Y1675000D01*
X549080Y1675980D01*
X547980Y1681860D01*
X546160Y1687580D01*
X543660Y1693020D01*
X540500Y1698120D01*
X536740Y1702780D01*
X532440Y1706960D01*
X527660Y1710560D01*
X522480Y1713560D01*
X516960Y1715900D01*
X511200Y1717540D01*
X505780Y1718380D01*
G37*
G36*
X152120Y1675000D02*
G01*
X195780Y1675000D01*
X195780Y1718660D01*
X167520Y1718660D01*
X164360Y1718360D01*
X161520Y1717480D01*
X158880Y1716080D01*
X156580Y1714199D01*
X154700Y1711900D01*
X153300Y1709280D01*
X152440Y1706420D01*
X152120Y1703260D01*
G37*
G36*
X2205000Y1675000D02*
G01*
X2295000Y1675000D01*
X2295000Y1718300D01*
X2292540Y1718080D01*
X2286680Y1716800D01*
X2281040Y1714800D01*
X2275680Y1712140D01*
X2270680Y1708820D01*
X2266120Y1704940D01*
X2262100Y1700500D01*
X2258640Y1695620D01*
X2255800Y1690340D01*
X2253700Y1684900D01*
X2252800Y1683540D01*
X2251440Y1682620D01*
X2249840Y1682340D01*
X2248260Y1682720D01*
X2246960Y1683720D01*
X2246140Y1685140D01*
X2245380Y1687580D01*
X2242860Y1693020D01*
X2239720Y1698120D01*
X2235960Y1702780D01*
X2231660Y1706960D01*
X2226880Y1710560D01*
X2221680Y1713560D01*
X2216180Y1715900D01*
X2210400Y1717540D01*
X2205000Y1718380D01*
G37*
G36*
X2305000Y1675000D02*
G01*
X2395000Y1675000D01*
X2395000Y1718300D01*
X2392540Y1718080D01*
X2386680Y1716800D01*
X2381040Y1714800D01*
X2375680Y1712140D01*
X2370680Y1708820D01*
X2366120Y1704940D01*
X2362100Y1700500D01*
X2358640Y1695620D01*
X2355800Y1690340D01*
X2353700Y1684900D01*
X2352800Y1683540D01*
X2351440Y1682620D01*
X2349840Y1682340D01*
X2348260Y1682720D01*
X2346960Y1683720D01*
X2346140Y1685140D01*
X2345380Y1687580D01*
X2342860Y1693020D01*
X2339720Y1698120D01*
X2335960Y1702780D01*
X2331660Y1706960D01*
X2326880Y1710560D01*
X2321680Y1713560D01*
X2316180Y1715900D01*
X2310400Y1717540D01*
X2305000Y1718380D01*
G37*
G36*
X405780Y1675000D02*
G01*
X495780Y1675000D01*
X495780Y1718300D01*
X493320Y1718080D01*
X487480Y1716800D01*
X481820Y1714800D01*
X476460Y1712140D01*
X471460Y1708820D01*
X466920Y1704940D01*
X462879Y1700500D01*
X459420Y1695620D01*
X456580Y1690340D01*
X454480Y1684900D01*
X453579Y1683540D01*
X452220Y1682620D01*
X450620Y1682340D01*
X449040Y1682720D01*
X447740Y1683720D01*
X446940Y1685140D01*
X446160Y1687580D01*
X443660Y1693020D01*
X440500Y1698120D01*
X436740Y1702780D01*
X432440Y1706960D01*
X427660Y1710560D01*
X422480Y1713560D01*
X416960Y1715900D01*
X411200Y1717540D01*
X405780Y1718380D01*
G37*
G36*
X305780Y1675000D02*
G01*
X395780Y1675000D01*
X395780Y1718300D01*
X393320Y1718080D01*
X387480Y1716800D01*
X381820Y1714800D01*
X376460Y1712140D01*
X371460Y1708820D01*
X366920Y1704940D01*
X362879Y1700500D01*
X359420Y1695620D01*
X356580Y1690340D01*
X354480Y1684900D01*
X353579Y1683540D01*
X352220Y1682620D01*
X350620Y1682340D01*
X349040Y1682720D01*
X347740Y1683720D01*
X346940Y1685140D01*
X346160Y1687580D01*
X343660Y1693020D01*
X340500Y1698120D01*
X336740Y1702780D01*
X332440Y1706960D01*
X327660Y1710560D01*
X322480Y1713560D01*
X316960Y1715900D01*
X311200Y1717540D01*
X305780Y1718380D01*
G37*
G36*
X205780Y1675000D02*
G01*
X295780Y1675000D01*
X295780Y1718300D01*
X293320Y1718080D01*
X287480Y1716800D01*
X281820Y1714800D01*
X276460Y1712140D01*
X271460Y1708820D01*
X266920Y1704940D01*
X262880Y1700500D01*
X259420Y1695620D01*
X256980Y1691060D01*
X255820Y1689740D01*
X254220Y1689040D01*
X252480Y1689079D01*
X250920Y1689860D01*
X249840Y1691240D01*
X249460Y1692960D01*
X249460Y1703260D01*
X249140Y1706420D01*
X248280Y1709280D01*
X246880Y1711900D01*
X244980Y1714199D01*
X242680Y1716080D01*
X240060Y1717480D01*
X237220Y1718360D01*
X234060Y1718660D01*
X205780Y1718660D01*
G37*
G36*
X200000Y1771339D02*
G01*
X205980Y1771720D01*
X211860Y1772820D01*
X217580Y1774620D01*
X223020Y1777140D01*
X228120Y1780280D01*
X232780Y1784040D01*
X236960Y1788340D01*
X240560Y1793120D01*
X243260Y1797800D01*
X244160Y1798860D01*
X245360Y1799560D01*
X246720Y1799800D01*
X353280Y1799800D01*
X354640Y1799560D01*
X355840Y1798860D01*
X356740Y1797800D01*
X359440Y1793120D01*
X363040Y1788340D01*
X367220Y1784040D01*
X371880Y1780280D01*
X376980Y1777140D01*
X382420Y1774620D01*
X388140Y1772820D01*
X394020Y1771720D01*
X400000Y1771339D01*
X405980Y1771720D01*
X411860Y1772820D01*
X417580Y1774620D01*
X423020Y1777140D01*
X428120Y1780280D01*
X432780Y1784040D01*
X436960Y1788340D01*
X440560Y1793120D01*
X443260Y1797800D01*
X444159Y1798860D01*
X445360Y1799560D01*
X446719Y1799800D01*
X913280Y1799800D01*
X914640Y1799560D01*
X915840Y1798860D01*
X916740Y1797800D01*
X919440Y1793120D01*
X923040Y1788340D01*
X927220Y1784040D01*
X931880Y1780280D01*
X936979Y1777140D01*
X942420Y1774620D01*
X948139Y1772820D01*
X954020Y1771720D01*
X960000Y1771339D01*
X965980Y1771720D01*
X971860Y1772820D01*
X977580Y1774620D01*
X983020Y1777140D01*
X988120Y1780280D01*
X992780Y1784040D01*
X996960Y1788340D01*
X1000560Y1793120D01*
X1003259Y1797800D01*
X1004160Y1798860D01*
X1005360Y1799560D01*
X1006720Y1799800D01*
X1110320Y1799800D01*
X1111720Y1799540D01*
X1112940Y1798820D01*
X1113840Y1797720D01*
X1114760Y1796040D01*
X1118060Y1791500D01*
X1121900Y1787400D01*
X1126240Y1783820D01*
X1130980Y1780820D01*
X1136060Y1778420D01*
X1141400Y1776680D01*
X1146920Y1775640D01*
X1152520Y1775280D01*
X1158120Y1775640D01*
X1163640Y1776680D01*
X1168980Y1778420D01*
X1174060Y1780820D01*
X1178800Y1783820D01*
X1183140Y1787400D01*
X1186980Y1791500D01*
X1190280Y1796040D01*
X1192980Y1800960D01*
X1195060Y1806180D01*
X1196440Y1811620D01*
X1197160Y1817200D01*
X1197160Y1822800D01*
X1196440Y1828380D01*
X1195060Y1833820D01*
X1192980Y1839040D01*
X1190280Y1843959D01*
X1186980Y1848500D01*
X1183140Y1852600D01*
X1178800Y1856180D01*
X1174060Y1859180D01*
X1168980Y1861579D01*
X1163640Y1863320D01*
X1158120Y1864360D01*
X1152520Y1864720D01*
X1146920Y1864360D01*
X1141400Y1863320D01*
X1136060Y1861579D01*
X1130980Y1859180D01*
X1126240Y1856180D01*
X1121900Y1852600D01*
X1118060Y1848500D01*
X1114760Y1843959D01*
X1113840Y1842280D01*
X1112940Y1841180D01*
X1111720Y1840460D01*
X1110320Y1840200D01*
X1006680Y1840200D01*
X1005220Y1840480D01*
X1003980Y1841240D01*
X1003080Y1842420D01*
X1002140Y1844319D01*
X998820Y1849319D01*
X994940Y1853880D01*
X990500Y1857900D01*
X985620Y1861360D01*
X980340Y1864199D01*
X974900Y1866300D01*
X973540Y1867200D01*
X972620Y1868560D01*
X972340Y1870160D01*
X972720Y1871740D01*
X973720Y1873040D01*
X975140Y1873860D01*
X977580Y1874620D01*
X983020Y1877140D01*
X988120Y1880280D01*
X992780Y1884040D01*
X996960Y1888340D01*
X1000560Y1893120D01*
X1003259Y1897800D01*
X1004160Y1898860D01*
X1005360Y1899560D01*
X1006720Y1899800D01*
X1110320Y1899800D01*
X1111720Y1899560D01*
X1112940Y1898820D01*
X1113840Y1897720D01*
X1114760Y1896040D01*
X1118060Y1891500D01*
X1121900Y1887400D01*
X1126240Y1883820D01*
X1130980Y1880820D01*
X1136060Y1878420D01*
X1141400Y1876680D01*
X1146920Y1875640D01*
X1152520Y1875280D01*
X1158120Y1875640D01*
X1163640Y1876680D01*
X1168980Y1878420D01*
X1174060Y1880820D01*
X1178800Y1883820D01*
X1183140Y1887400D01*
X1186980Y1891500D01*
X1190280Y1896040D01*
X1192980Y1900960D01*
X1195060Y1906180D01*
X1196440Y1911620D01*
X1197160Y1917200D01*
X1197160Y1922800D01*
X1196440Y1928380D01*
X1195060Y1933820D01*
X1192980Y1939040D01*
X1190280Y1943959D01*
X1186980Y1948500D01*
X1183140Y1952600D01*
X1178800Y1956180D01*
X1174060Y1959180D01*
X1168980Y1961579D01*
X1163640Y1963320D01*
X1158120Y1964360D01*
X1152520Y1964720D01*
X1146920Y1964360D01*
X1141400Y1963320D01*
X1136060Y1961579D01*
X1130980Y1959180D01*
X1126240Y1956180D01*
X1121900Y1952600D01*
X1118060Y1948500D01*
X1114760Y1943959D01*
X1113840Y1942280D01*
X1112940Y1941180D01*
X1111720Y1940460D01*
X1110320Y1940200D01*
X1006680Y1940200D01*
X1005220Y1940480D01*
X1003980Y1941240D01*
X1003080Y1942420D01*
X1002140Y1944319D01*
X998820Y1949319D01*
X994940Y1953880D01*
X990500Y1957900D01*
X985620Y1961360D01*
X980340Y1964199D01*
X974900Y1966300D01*
X973540Y1967200D01*
X972620Y1968560D01*
X972340Y1970160D01*
X972720Y1971740D01*
X973720Y1973040D01*
X975140Y1973860D01*
X977580Y1974620D01*
X983020Y1977140D01*
X988120Y1980280D01*
X992780Y1984040D01*
X996960Y1988340D01*
X1000560Y1993120D01*
X1003259Y1997800D01*
X1004160Y1998860D01*
X1005360Y1999560D01*
X1006720Y1999800D01*
X1110320Y1999800D01*
X1111720Y1999540D01*
X1112940Y1998820D01*
X1113840Y1997720D01*
X1114760Y1996040D01*
X1118060Y1991500D01*
X1121900Y1987400D01*
X1126240Y1983820D01*
X1130980Y1980820D01*
X1136060Y1978420D01*
X1141400Y1976680D01*
X1146920Y1975640D01*
X1152520Y1975280D01*
X1158120Y1975640D01*
X1163640Y1976680D01*
X1168980Y1978420D01*
X1174060Y1980820D01*
X1178800Y1983820D01*
X1183140Y1987400D01*
X1186980Y1991500D01*
X1190280Y1996040D01*
X1192980Y2000960D01*
X1195060Y2006180D01*
X1196440Y2011620D01*
X1197160Y2017200D01*
X1197160Y2022800D01*
X1196440Y2028380D01*
X1195060Y2033820D01*
X1192980Y2039040D01*
X1190280Y2043959D01*
X1186980Y2048500D01*
X1183140Y2052600D01*
X1178800Y2056180D01*
X1174060Y2059180D01*
X1168980Y2061579D01*
X1163640Y2063320D01*
X1158120Y2064360D01*
X1152520Y2064720D01*
X1146920Y2064360D01*
X1141400Y2063320D01*
X1136060Y2061579D01*
X1130980Y2059180D01*
X1126240Y2056180D01*
X1121900Y2052600D01*
X1118060Y2048500D01*
X1114760Y2043959D01*
X1113840Y2042280D01*
X1112940Y2041180D01*
X1111720Y2040460D01*
X1110320Y2040200D01*
X1006680Y2040200D01*
X1005220Y2040480D01*
X1003980Y2041240D01*
X1003080Y2042420D01*
X1002140Y2044319D01*
X998820Y2049319D01*
X994940Y2053880D01*
X990500Y2057900D01*
X985620Y2061360D01*
X980340Y2064199D01*
X974900Y2066300D01*
X973540Y2067200D01*
X972620Y2068560D01*
X972340Y2070160D01*
X972720Y2071740D01*
X973720Y2073040D01*
X975140Y2073860D01*
X977580Y2074620D01*
X983020Y2077140D01*
X988120Y2080280D01*
X992780Y2084040D01*
X996960Y2088340D01*
X1000560Y2093120D01*
X1003259Y2097800D01*
X1004160Y2098860D01*
X1005360Y2099560D01*
X1006720Y2099800D01*
X1110320Y2099800D01*
X1111720Y2099560D01*
X1112940Y2098820D01*
X1113840Y2097720D01*
X1114760Y2096040D01*
X1118060Y2091500D01*
X1121900Y2087400D01*
X1126240Y2083820D01*
X1130980Y2080820D01*
X1136060Y2078420D01*
X1141400Y2076680D01*
X1146920Y2075640D01*
X1152520Y2075280D01*
X1158120Y2075640D01*
X1163640Y2076680D01*
X1168980Y2078420D01*
X1174060Y2080820D01*
X1178800Y2083820D01*
X1183140Y2087400D01*
X1186980Y2091500D01*
X1190280Y2096040D01*
X1192980Y2100960D01*
X1195060Y2106180D01*
X1196440Y2111620D01*
X1197160Y2117200D01*
X1197160Y2122800D01*
X1196440Y2128380D01*
X1195060Y2133820D01*
X1192980Y2139040D01*
X1190280Y2143960D01*
X1186980Y2148500D01*
X1183140Y2152600D01*
X1178800Y2156180D01*
X1174060Y2159180D01*
X1168980Y2161580D01*
X1163640Y2163320D01*
X1158120Y2164360D01*
X1152520Y2164720D01*
X1146920Y2164360D01*
X1141400Y2163320D01*
X1136060Y2161580D01*
X1130980Y2159180D01*
X1126240Y2156180D01*
X1121900Y2152600D01*
X1118060Y2148500D01*
X1114760Y2143960D01*
X1113840Y2142280D01*
X1112940Y2141180D01*
X1111720Y2140460D01*
X1110320Y2140200D01*
X1006680Y2140200D01*
X1005220Y2140480D01*
X1003980Y2141240D01*
X1003080Y2142420D01*
X1002140Y2144320D01*
X998820Y2149320D01*
X994940Y2153880D01*
X990500Y2157900D01*
X985620Y2161360D01*
X980340Y2164200D01*
X974900Y2166300D01*
X973540Y2167200D01*
X972620Y2168560D01*
X972340Y2170160D01*
X972720Y2171740D01*
X973720Y2173040D01*
X975140Y2173860D01*
X977580Y2174620D01*
X983020Y2177140D01*
X988120Y2180280D01*
X992780Y2184040D01*
X996960Y2188340D01*
X1000560Y2193120D01*
X1003560Y2198320D01*
X1005900Y2203820D01*
X1007540Y2209600D01*
X1008439Y2215520D01*
X1008640Y2221500D01*
X1008080Y2227460D01*
X1006800Y2233320D01*
X1004800Y2238960D01*
X1002140Y2244320D01*
X998820Y2249320D01*
X994940Y2253880D01*
X990500Y2257900D01*
X985620Y2261360D01*
X980340Y2264200D01*
X974900Y2266300D01*
X973540Y2267200D01*
X972620Y2268560D01*
X972340Y2270160D01*
X972720Y2271740D01*
X973720Y2273040D01*
X975140Y2273860D01*
X977580Y2274620D01*
X983020Y2277140D01*
X988120Y2280280D01*
X992780Y2284040D01*
X996960Y2288340D01*
X1000560Y2293120D01*
X1003259Y2297800D01*
X1004160Y2298860D01*
X1005360Y2299560D01*
X1006720Y2299800D01*
X1110320Y2299800D01*
X1111720Y2299560D01*
X1112940Y2298820D01*
X1113840Y2297720D01*
X1114760Y2296040D01*
X1118060Y2291500D01*
X1121900Y2287400D01*
X1126240Y2283820D01*
X1130980Y2280820D01*
X1136060Y2278420D01*
X1141400Y2276680D01*
X1146920Y2275640D01*
X1152520Y2275280D01*
X1158120Y2275640D01*
X1163640Y2276680D01*
X1168980Y2278420D01*
X1174060Y2280820D01*
X1178800Y2283820D01*
X1183140Y2287400D01*
X1186980Y2291500D01*
X1190280Y2296040D01*
X1192980Y2300960D01*
X1195060Y2306180D01*
X1196440Y2311620D01*
X1197160Y2317200D01*
X1197160Y2322800D01*
X1196440Y2328380D01*
X1195060Y2333820D01*
X1192980Y2339040D01*
X1190280Y2343960D01*
X1186980Y2348500D01*
X1183140Y2352600D01*
X1178800Y2356180D01*
X1174060Y2359180D01*
X1168980Y2361580D01*
X1163640Y2363320D01*
X1158120Y2364360D01*
X1152520Y2364720D01*
X1146920Y2364360D01*
X1141400Y2363320D01*
X1136060Y2361580D01*
X1130980Y2359180D01*
X1126240Y2356180D01*
X1121900Y2352600D01*
X1118060Y2348500D01*
X1114760Y2343960D01*
X1113840Y2342280D01*
X1112940Y2341180D01*
X1111720Y2340460D01*
X1110320Y2340200D01*
X1006680Y2340200D01*
X1005220Y2340480D01*
X1003980Y2341240D01*
X1003080Y2342420D01*
X1002140Y2344320D01*
X998820Y2349320D01*
X994940Y2353880D01*
X990500Y2357900D01*
X985620Y2361360D01*
X980340Y2364200D01*
X974900Y2366300D01*
X973540Y2367200D01*
X972620Y2368560D01*
X972340Y2370160D01*
X972720Y2371740D01*
X973720Y2373040D01*
X975140Y2373860D01*
X977580Y2374620D01*
X983020Y2377140D01*
X988120Y2380280D01*
X992780Y2384040D01*
X996960Y2388340D01*
X1000560Y2393120D01*
X1003259Y2397800D01*
X1004160Y2398860D01*
X1005360Y2399560D01*
X1006720Y2399800D01*
X1110320Y2399800D01*
X1111720Y2399560D01*
X1112940Y2398820D01*
X1113840Y2397720D01*
X1114760Y2396040D01*
X1118060Y2391500D01*
X1121900Y2387400D01*
X1126240Y2383820D01*
X1130980Y2380820D01*
X1136060Y2378420D01*
X1141400Y2376680D01*
X1146920Y2375640D01*
X1152520Y2375280D01*
X1158120Y2375640D01*
X1163640Y2376680D01*
X1168980Y2378420D01*
X1174060Y2380820D01*
X1178800Y2383820D01*
X1183140Y2387400D01*
X1186980Y2391500D01*
X1190280Y2396040D01*
X1192980Y2400960D01*
X1195060Y2406180D01*
X1196440Y2411620D01*
X1197160Y2417200D01*
X1197160Y2422800D01*
X1196440Y2428380D01*
X1195060Y2433820D01*
X1192980Y2439040D01*
X1190280Y2443960D01*
X1186980Y2448500D01*
X1183140Y2452600D01*
X1178800Y2456180D01*
X1174060Y2459180D01*
X1168980Y2461580D01*
X1163640Y2463320D01*
X1158120Y2464360D01*
X1152520Y2464720D01*
X1146920Y2464360D01*
X1141400Y2463320D01*
X1136060Y2461580D01*
X1130980Y2459180D01*
X1126240Y2456180D01*
X1121900Y2452600D01*
X1118060Y2448500D01*
X1114760Y2443960D01*
X1113840Y2442280D01*
X1112940Y2441180D01*
X1111720Y2440460D01*
X1110320Y2440200D01*
X1006680Y2440200D01*
X1005220Y2440480D01*
X1003980Y2441240D01*
X1003080Y2442420D01*
X1002140Y2444320D01*
X998820Y2449320D01*
X994940Y2453880D01*
X990500Y2457900D01*
X985620Y2461360D01*
X980340Y2464200D01*
X974900Y2466300D01*
X973540Y2467200D01*
X972620Y2468560D01*
X972340Y2470160D01*
X972720Y2471740D01*
X973720Y2473040D01*
X975140Y2473860D01*
X977580Y2474620D01*
X983020Y2477140D01*
X988120Y2480280D01*
X992780Y2484040D01*
X996960Y2488340D01*
X1000560Y2493120D01*
X1003560Y2498320D01*
X1005900Y2503820D01*
X1007540Y2509600D01*
X1008379Y2515000D01*
X965000Y2515000D01*
X965000Y2472560D01*
X964700Y2471040D01*
X963820Y2469740D01*
X962540Y2468860D01*
X961000Y2468560D01*
X959000Y2468560D01*
X957460Y2468860D01*
X956180Y2469740D01*
X955300Y2471040D01*
X955000Y2472560D01*
X955000Y2515000D01*
X911620Y2515000D01*
X912460Y2509600D01*
X914100Y2503820D01*
X916440Y2498320D01*
X919440Y2493120D01*
X923040Y2488340D01*
X927220Y2484040D01*
X931880Y2480280D01*
X936979Y2477140D01*
X942420Y2474620D01*
X944860Y2473860D01*
X946280Y2473040D01*
X947280Y2471740D01*
X947660Y2470160D01*
X947380Y2468560D01*
X946460Y2467200D01*
X945100Y2466300D01*
X939659Y2464200D01*
X934380Y2461360D01*
X929500Y2457900D01*
X925060Y2453880D01*
X921180Y2449320D01*
X917860Y2444320D01*
X916919Y2442420D01*
X916020Y2441240D01*
X914780Y2440480D01*
X913319Y2440200D01*
X446680Y2440200D01*
X445220Y2440480D01*
X443980Y2441240D01*
X443080Y2442420D01*
X442140Y2444320D01*
X438820Y2449320D01*
X434940Y2453880D01*
X430500Y2457900D01*
X425620Y2461360D01*
X420340Y2464200D01*
X414900Y2466300D01*
X413540Y2467200D01*
X412620Y2468560D01*
X412340Y2470160D01*
X412720Y2471740D01*
X413720Y2473040D01*
X415140Y2473860D01*
X417580Y2474620D01*
X423020Y2477140D01*
X428120Y2480280D01*
X432780Y2484040D01*
X436960Y2488340D01*
X440560Y2493120D01*
X443560Y2498320D01*
X445900Y2503820D01*
X447540Y2509600D01*
X448380Y2515000D01*
X405000Y2515000D01*
X405000Y2472560D01*
X404700Y2471040D01*
X403820Y2469740D01*
X402540Y2468860D01*
X401000Y2468560D01*
X399000Y2468560D01*
X397460Y2468860D01*
X396180Y2469740D01*
X395300Y2471040D01*
X395000Y2472560D01*
X395000Y2515000D01*
X351620Y2515000D01*
X352460Y2509600D01*
X354099Y2503820D01*
X356440Y2498320D01*
X359440Y2493120D01*
X363040Y2488340D01*
X367220Y2484040D01*
X371880Y2480280D01*
X376980Y2477140D01*
X382420Y2474620D01*
X384860Y2473860D01*
X386280Y2473040D01*
X387280Y2471740D01*
X387660Y2470160D01*
X387380Y2468560D01*
X386460Y2467200D01*
X385100Y2466300D01*
X379660Y2464200D01*
X374380Y2461360D01*
X369500Y2457900D01*
X365060Y2453880D01*
X361180Y2449320D01*
X357860Y2444320D01*
X356920Y2442420D01*
X356019Y2441240D01*
X354780Y2440480D01*
X353340Y2440200D01*
X246680Y2440200D01*
X245219Y2440480D01*
X243980Y2441240D01*
X243080Y2442420D01*
X242140Y2444320D01*
X238820Y2449320D01*
X234940Y2453880D01*
X230500Y2457900D01*
X225620Y2461360D01*
X220340Y2464200D01*
X214899Y2466300D01*
X213540Y2467200D01*
X212620Y2468560D01*
X212340Y2470160D01*
X212719Y2471740D01*
X213720Y2473040D01*
X215140Y2473860D01*
X217580Y2474620D01*
X223020Y2477140D01*
X228120Y2480280D01*
X232780Y2484040D01*
X236960Y2488340D01*
X240560Y2493120D01*
X243560Y2498320D01*
X245900Y2503820D01*
X247540Y2509600D01*
X248380Y2515000D01*
X205000Y2515000D01*
X205000Y2472560D01*
X204700Y2471040D01*
X203820Y2469740D01*
X202540Y2468860D01*
X201000Y2468560D01*
X199000Y2468560D01*
X197460Y2468860D01*
X196180Y2469740D01*
X195300Y2471040D01*
X195000Y2472560D01*
X195000Y2515000D01*
X151620Y2515000D01*
X152460Y2509600D01*
X154100Y2503820D01*
X156440Y2498320D01*
X159440Y2493120D01*
X163039Y2488340D01*
X167220Y2484040D01*
X171880Y2480280D01*
X176980Y2477140D01*
X182420Y2474620D01*
X184860Y2473860D01*
X186280Y2473040D01*
X187280Y2471740D01*
X187659Y2470160D01*
X187380Y2468560D01*
X186460Y2467200D01*
X185100Y2466300D01*
X179660Y2464200D01*
X174380Y2461360D01*
X169500Y2457900D01*
X165060Y2453880D01*
X161180Y2449320D01*
X157860Y2444320D01*
X155200Y2438960D01*
X153200Y2433320D01*
X151920Y2427460D01*
X151360Y2421500D01*
X151560Y2415520D01*
X152460Y2409600D01*
X154100Y2403820D01*
X156440Y2398320D01*
X159440Y2393120D01*
X163039Y2388340D01*
X167220Y2384040D01*
X171880Y2380280D01*
X176980Y2377140D01*
X182420Y2374620D01*
X184860Y2373860D01*
X186280Y2373040D01*
X187280Y2371740D01*
X187659Y2370160D01*
X187380Y2368560D01*
X186460Y2367200D01*
X185100Y2366300D01*
X179660Y2364200D01*
X174380Y2361360D01*
X169500Y2357900D01*
X165060Y2353880D01*
X161180Y2349320D01*
X157860Y2344320D01*
X155200Y2338960D01*
X153200Y2333320D01*
X151920Y2327460D01*
X151360Y2321500D01*
X151560Y2315520D01*
X152460Y2309600D01*
X154100Y2303820D01*
X156440Y2298320D01*
X159440Y2293120D01*
X163039Y2288340D01*
X167220Y2284040D01*
X171880Y2280280D01*
X176980Y2277140D01*
X182420Y2274620D01*
X184860Y2273860D01*
X186280Y2273040D01*
X187280Y2271740D01*
X187659Y2270160D01*
X187380Y2268560D01*
X186460Y2267200D01*
X185100Y2266300D01*
X179660Y2264200D01*
X174380Y2261360D01*
X169500Y2257900D01*
X165060Y2253880D01*
X161180Y2249320D01*
X157860Y2244320D01*
X155200Y2238960D01*
X153200Y2233320D01*
X151920Y2227460D01*
X151360Y2221500D01*
X151560Y2215520D01*
X152460Y2209600D01*
X154100Y2203820D01*
X156440Y2198320D01*
X159440Y2193120D01*
X163039Y2188340D01*
X167220Y2184040D01*
X171880Y2180280D01*
X176980Y2177140D01*
X182420Y2174620D01*
X184860Y2173860D01*
X186280Y2173040D01*
X187280Y2171740D01*
X187659Y2170160D01*
X187380Y2168560D01*
X186460Y2167200D01*
X185100Y2166300D01*
X179660Y2164200D01*
X174380Y2161360D01*
X169500Y2157900D01*
X165060Y2153880D01*
X161180Y2149320D01*
X157860Y2144320D01*
X155200Y2138960D01*
X153200Y2133320D01*
X151920Y2127460D01*
X151360Y2121500D01*
X151560Y2115520D01*
X152460Y2109600D01*
X154100Y2103820D01*
X156440Y2098320D01*
X159440Y2093120D01*
X163039Y2088340D01*
X167220Y2084040D01*
X171880Y2080280D01*
X176980Y2077140D01*
X182420Y2074620D01*
X184860Y2073860D01*
X186280Y2073040D01*
X187280Y2071740D01*
X187659Y2070160D01*
X187380Y2068560D01*
X186460Y2067200D01*
X185100Y2066300D01*
X179660Y2064199D01*
X174380Y2061360D01*
X169500Y2057900D01*
X165060Y2053880D01*
X161180Y2049319D01*
X157860Y2044319D01*
X155200Y2038959D01*
X153200Y2033320D01*
X151920Y2027460D01*
X151360Y2021500D01*
X151560Y2015520D01*
X152460Y2009600D01*
X154100Y2003820D01*
X156440Y1998320D01*
X159440Y1993120D01*
X163039Y1988340D01*
X167220Y1984040D01*
X171880Y1980280D01*
X176980Y1977140D01*
X182420Y1974620D01*
X184860Y1973860D01*
X186280Y1973040D01*
X187280Y1971740D01*
X187659Y1970160D01*
X187380Y1968560D01*
X186460Y1967200D01*
X185100Y1966300D01*
X179660Y1964199D01*
X174380Y1961360D01*
X169500Y1957900D01*
X165060Y1953880D01*
X161180Y1949319D01*
X157860Y1944319D01*
X155200Y1938959D01*
X153200Y1933320D01*
X151920Y1927460D01*
X151360Y1921500D01*
X151560Y1915520D01*
X152460Y1909600D01*
X154100Y1903820D01*
X156440Y1898320D01*
X159440Y1893120D01*
X163039Y1888340D01*
X167220Y1884040D01*
X171880Y1880280D01*
X176980Y1877140D01*
X182420Y1874620D01*
X184860Y1873860D01*
X186280Y1873040D01*
X187280Y1871740D01*
X187659Y1870160D01*
X187380Y1868560D01*
X186460Y1867200D01*
X185100Y1866300D01*
X179660Y1864199D01*
X174380Y1861360D01*
X169500Y1857900D01*
X165060Y1853880D01*
X161180Y1849319D01*
X157860Y1844319D01*
X155200Y1838959D01*
X153200Y1833320D01*
X151920Y1827460D01*
X151360Y1821500D01*
X151560Y1815520D01*
X152460Y1809600D01*
X154100Y1803820D01*
X156440Y1798320D01*
X159440Y1793120D01*
X163039Y1788340D01*
X167220Y1784040D01*
X171880Y1780280D01*
X176980Y1777140D01*
X182420Y1774620D01*
X188140Y1772820D01*
X194020Y1771720D01*
G37*
G36*
X1629199Y1771339D02*
G01*
X1690800Y1771339D01*
X1693959Y1771639D01*
X1696800Y1772520D01*
X1699440Y1773920D01*
X1701740Y1775800D01*
X1703620Y1778100D01*
X1705020Y1780720D01*
X1705880Y1783580D01*
X1706200Y1786740D01*
X1706200Y1795800D01*
X1706500Y1797340D01*
X1707380Y1798620D01*
X1708660Y1799500D01*
X1710200Y1799800D01*
X2149800Y1799800D01*
X2151340Y1799500D01*
X2152620Y1798620D01*
X2153500Y1797320D01*
X2153800Y1795800D01*
X2153800Y1786740D01*
X2154120Y1783580D01*
X2154980Y1780720D01*
X2156380Y1778100D01*
X2158260Y1775800D01*
X2160560Y1773920D01*
X2163200Y1772520D01*
X2166040Y1771639D01*
X2169200Y1771339D01*
X2230800Y1771339D01*
X2233960Y1771639D01*
X2236800Y1772520D01*
X2239440Y1773920D01*
X2241740Y1775800D01*
X2243620Y1778100D01*
X2245020Y1780720D01*
X2245880Y1783580D01*
X2246200Y1786740D01*
X2246200Y1795800D01*
X2246500Y1797320D01*
X2247380Y1798620D01*
X2248660Y1799500D01*
X2250200Y1799800D01*
X2349800Y1799800D01*
X2351340Y1799500D01*
X2352620Y1798620D01*
X2353500Y1797320D01*
X2353800Y1795800D01*
X2353800Y1786740D01*
X2354120Y1783580D01*
X2354980Y1780720D01*
X2356380Y1778100D01*
X2358260Y1775800D01*
X2360560Y1773920D01*
X2363200Y1772520D01*
X2366040Y1771639D01*
X2369200Y1771339D01*
X2430800Y1771339D01*
X2433960Y1771639D01*
X2436800Y1772520D01*
X2439440Y1773920D01*
X2441740Y1775800D01*
X2443620Y1778100D01*
X2445020Y1780720D01*
X2445880Y1783580D01*
X2446200Y1786740D01*
X2446200Y1853260D01*
X2445880Y1856420D01*
X2445020Y1859280D01*
X2443620Y1861900D01*
X2441740Y1864199D01*
X2439440Y1866080D01*
X2436800Y1867480D01*
X2433960Y1868360D01*
X2430800Y1868660D01*
X2422960Y1868660D01*
X2421240Y1869040D01*
X2419860Y1870120D01*
X2419080Y1871680D01*
X2419040Y1873440D01*
X2419740Y1875040D01*
X2421060Y1876180D01*
X2425620Y1878640D01*
X2430500Y1882100D01*
X2434940Y1886120D01*
X2438820Y1890680D01*
X2442140Y1895680D01*
X2444800Y1901040D01*
X2446800Y1906680D01*
X2448080Y1912540D01*
X2448640Y1918500D01*
X2448440Y1924480D01*
X2447540Y1930400D01*
X2445900Y1936180D01*
X2443560Y1941680D01*
X2440560Y1946879D01*
X2436960Y1951660D01*
X2432780Y1955960D01*
X2428120Y1959720D01*
X2423020Y1962860D01*
X2417580Y1965380D01*
X2415140Y1966140D01*
X2413720Y1966940D01*
X2412720Y1968260D01*
X2412340Y1969840D01*
X2412620Y1971440D01*
X2413540Y1972800D01*
X2414900Y1973700D01*
X2420340Y1975800D01*
X2425620Y1978640D01*
X2430500Y1982100D01*
X2434940Y1986120D01*
X2438820Y1990680D01*
X2442140Y1995680D01*
X2444800Y2001040D01*
X2446800Y2006680D01*
X2448080Y2012540D01*
X2448640Y2018500D01*
X2448440Y2024480D01*
X2447540Y2030400D01*
X2445900Y2036180D01*
X2443560Y2041680D01*
X2440560Y2046879D01*
X2436960Y2051660D01*
X2432780Y2055960D01*
X2428120Y2059720D01*
X2423020Y2062860D01*
X2417580Y2065380D01*
X2415140Y2066140D01*
X2413720Y2066940D01*
X2412720Y2068260D01*
X2412340Y2069840D01*
X2412620Y2071440D01*
X2413540Y2072800D01*
X2414900Y2073700D01*
X2420340Y2075800D01*
X2425620Y2078640D01*
X2430500Y2082100D01*
X2434940Y2086120D01*
X2438820Y2090680D01*
X2442140Y2095680D01*
X2444800Y2101040D01*
X2446800Y2106680D01*
X2448080Y2112540D01*
X2448640Y2118500D01*
X2448440Y2124480D01*
X2447540Y2130400D01*
X2445900Y2136180D01*
X2443560Y2141680D01*
X2440560Y2146880D01*
X2436960Y2151660D01*
X2432780Y2155960D01*
X2428120Y2159720D01*
X2423020Y2162860D01*
X2417580Y2165380D01*
X2415140Y2166140D01*
X2413720Y2166940D01*
X2412720Y2168260D01*
X2412340Y2169840D01*
X2412620Y2171440D01*
X2413540Y2172800D01*
X2414900Y2173700D01*
X2420340Y2175800D01*
X2425620Y2178640D01*
X2430500Y2182100D01*
X2434940Y2186120D01*
X2438820Y2190680D01*
X2442140Y2195680D01*
X2444800Y2201040D01*
X2446800Y2206680D01*
X2448080Y2212540D01*
X2448640Y2218500D01*
X2448440Y2224480D01*
X2447540Y2230400D01*
X2445900Y2236180D01*
X2443560Y2241680D01*
X2440560Y2246880D01*
X2436960Y2251660D01*
X2432780Y2255960D01*
X2428120Y2259720D01*
X2423020Y2262860D01*
X2417580Y2265380D01*
X2415140Y2266140D01*
X2413720Y2266940D01*
X2412720Y2268260D01*
X2412340Y2269840D01*
X2412620Y2271440D01*
X2413540Y2272800D01*
X2414900Y2273700D01*
X2420340Y2275800D01*
X2425620Y2278640D01*
X2430500Y2282100D01*
X2434940Y2286120D01*
X2438820Y2290680D01*
X2442140Y2295680D01*
X2444800Y2301040D01*
X2446800Y2306680D01*
X2448080Y2312540D01*
X2448640Y2318500D01*
X2448440Y2324480D01*
X2447540Y2330400D01*
X2445900Y2336180D01*
X2443560Y2341680D01*
X2440560Y2346880D01*
X2436960Y2351660D01*
X2432780Y2355960D01*
X2428120Y2359720D01*
X2423020Y2362860D01*
X2417580Y2365380D01*
X2415140Y2366140D01*
X2413720Y2366940D01*
X2412720Y2368260D01*
X2412340Y2369840D01*
X2412620Y2371440D01*
X2413540Y2372800D01*
X2414900Y2373700D01*
X2420340Y2375800D01*
X2425620Y2378640D01*
X2430500Y2382100D01*
X2434940Y2386120D01*
X2438820Y2390680D01*
X2442140Y2395680D01*
X2444800Y2401040D01*
X2446800Y2406680D01*
X2448080Y2412540D01*
X2448640Y2418500D01*
X2448440Y2424480D01*
X2447540Y2430400D01*
X2445900Y2436180D01*
X2443560Y2441680D01*
X2440560Y2446880D01*
X2436960Y2451660D01*
X2432780Y2455960D01*
X2428120Y2459720D01*
X2423020Y2462860D01*
X2417580Y2465380D01*
X2415140Y2466140D01*
X2413720Y2466940D01*
X2412720Y2468260D01*
X2412340Y2469840D01*
X2412620Y2471440D01*
X2413540Y2472800D01*
X2414900Y2473700D01*
X2420340Y2475800D01*
X2425620Y2478640D01*
X2430500Y2482100D01*
X2434940Y2486120D01*
X2438820Y2490680D01*
X2442140Y2495680D01*
X2444800Y2501040D01*
X2446800Y2506680D01*
X2448080Y2512540D01*
X2448640Y2518500D01*
X2448440Y2524480D01*
X2447540Y2530400D01*
X2445900Y2536180D01*
X2443560Y2541680D01*
X2440560Y2546880D01*
X2436960Y2551660D01*
X2432780Y2555960D01*
X2428120Y2559720D01*
X2423020Y2562860D01*
X2417580Y2565380D01*
X2415140Y2566139D01*
X2413720Y2566940D01*
X2412720Y2568260D01*
X2412340Y2569840D01*
X2412620Y2571440D01*
X2413540Y2572799D01*
X2414900Y2573700D01*
X2420340Y2575800D01*
X2425620Y2578639D01*
X2430500Y2582100D01*
X2434940Y2586120D01*
X2438820Y2590680D01*
X2442140Y2595680D01*
X2444800Y2601040D01*
X2446800Y2606680D01*
X2448080Y2612540D01*
X2448640Y2618500D01*
X2448440Y2624480D01*
X2447540Y2630400D01*
X2445900Y2636180D01*
X2443560Y2641680D01*
X2440560Y2646880D01*
X2436960Y2651660D01*
X2432780Y2655960D01*
X2428120Y2659720D01*
X2423020Y2662860D01*
X2417580Y2665380D01*
X2415140Y2666139D01*
X2413720Y2666940D01*
X2412720Y2668260D01*
X2412340Y2669840D01*
X2412620Y2671440D01*
X2413540Y2672799D01*
X2414900Y2673700D01*
X2420340Y2675800D01*
X2425620Y2678639D01*
X2430500Y2682100D01*
X2434940Y2686120D01*
X2438820Y2690680D01*
X2442140Y2695680D01*
X2444800Y2701040D01*
X2446800Y2706680D01*
X2448080Y2712540D01*
X2448640Y2718500D01*
X2448440Y2724480D01*
X2447540Y2730400D01*
X2445900Y2736180D01*
X2443560Y2741680D01*
X2440560Y2746880D01*
X2436960Y2751660D01*
X2432780Y2755960D01*
X2428120Y2759720D01*
X2423020Y2762860D01*
X2417580Y2765380D01*
X2415140Y2766139D01*
X2413720Y2766940D01*
X2412720Y2768260D01*
X2412340Y2769840D01*
X2412620Y2771440D01*
X2413540Y2772799D01*
X2414900Y2773700D01*
X2420340Y2775800D01*
X2425620Y2778639D01*
X2430500Y2782100D01*
X2434940Y2786120D01*
X2438820Y2790680D01*
X2442140Y2795680D01*
X2444800Y2801040D01*
X2446800Y2806680D01*
X2448080Y2812540D01*
X2448640Y2818500D01*
X2448440Y2824480D01*
X2447540Y2830400D01*
X2445900Y2836180D01*
X2443560Y2841680D01*
X2440560Y2846880D01*
X2436960Y2851660D01*
X2432780Y2855960D01*
X2428120Y2859720D01*
X2423020Y2862860D01*
X2417580Y2865380D01*
X2415140Y2866139D01*
X2413720Y2866940D01*
X2412720Y2868260D01*
X2412340Y2869840D01*
X2412620Y2871440D01*
X2413540Y2872799D01*
X2414900Y2873700D01*
X2420340Y2875800D01*
X2425620Y2878639D01*
X2430500Y2882100D01*
X2434940Y2886120D01*
X2438820Y2890680D01*
X2442140Y2895680D01*
X2444800Y2901040D01*
X2446800Y2906680D01*
X2448080Y2912540D01*
X2448640Y2918500D01*
X2448440Y2924480D01*
X2447540Y2930400D01*
X2445900Y2936180D01*
X2443560Y2941680D01*
X2440560Y2946880D01*
X2436960Y2951660D01*
X2432780Y2955960D01*
X2428120Y2959720D01*
X2423020Y2962860D01*
X2417580Y2965380D01*
X2415140Y2966139D01*
X2413720Y2966940D01*
X2412720Y2968260D01*
X2412340Y2969840D01*
X2412620Y2971440D01*
X2413540Y2972799D01*
X2414900Y2973700D01*
X2420340Y2975800D01*
X2425620Y2978639D01*
X2430500Y2982100D01*
X2434940Y2986120D01*
X2438820Y2990680D01*
X2442140Y2995680D01*
X2444800Y3001040D01*
X2446800Y3006680D01*
X2448080Y3012540D01*
X2448640Y3018500D01*
X2448440Y3024480D01*
X2447540Y3030400D01*
X2445900Y3036180D01*
X2443560Y3041680D01*
X2440560Y3046880D01*
X2436960Y3051660D01*
X2432780Y3055960D01*
X2428120Y3059720D01*
X2423020Y3062860D01*
X2417580Y3065380D01*
X2415140Y3066139D01*
X2413720Y3066940D01*
X2412720Y3068260D01*
X2412340Y3069840D01*
X2412620Y3071440D01*
X2413540Y3072799D01*
X2414900Y3073700D01*
X2420340Y3075800D01*
X2425620Y3078639D01*
X2430500Y3082100D01*
X2434940Y3086120D01*
X2438820Y3090680D01*
X2442140Y3095680D01*
X2444800Y3101040D01*
X2446800Y3106680D01*
X2448080Y3112540D01*
X2448640Y3118500D01*
X2448440Y3124480D01*
X2447540Y3130400D01*
X2445900Y3136180D01*
X2443560Y3141680D01*
X2440560Y3146880D01*
X2436960Y3151660D01*
X2432780Y3155960D01*
X2428120Y3159720D01*
X2423020Y3162860D01*
X2417580Y3165380D01*
X2411860Y3167180D01*
X2405980Y3168279D01*
X2400000Y3168660D01*
X2394020Y3168279D01*
X2388140Y3167180D01*
X2382420Y3165380D01*
X2376980Y3162860D01*
X2371880Y3159720D01*
X2367220Y3155960D01*
X2363040Y3151660D01*
X2359440Y3146880D01*
X2356740Y3142200D01*
X2355840Y3141139D01*
X2354640Y3140440D01*
X2353280Y3140200D01*
X2246720Y3140200D01*
X2245360Y3140440D01*
X2244160Y3141139D01*
X2243260Y3142200D01*
X2240560Y3146880D01*
X2236960Y3151660D01*
X2232780Y3155960D01*
X2228120Y3159720D01*
X2223020Y3162860D01*
X2217580Y3165380D01*
X2211860Y3167180D01*
X2205980Y3168279D01*
X2200000Y3168660D01*
X2194020Y3168279D01*
X2188140Y3167180D01*
X2182420Y3165380D01*
X2176980Y3162860D01*
X2171880Y3159720D01*
X2167220Y3155960D01*
X2163040Y3151660D01*
X2159440Y3146880D01*
X2156740Y3142200D01*
X2155840Y3141139D01*
X2154640Y3140440D01*
X2153280Y3140200D01*
X1706720Y3140200D01*
X1705360Y3140440D01*
X1704160Y3141139D01*
X1703260Y3142200D01*
X1700560Y3146880D01*
X1696960Y3151660D01*
X1692780Y3155960D01*
X1688120Y3159720D01*
X1683020Y3162860D01*
X1677580Y3165380D01*
X1671860Y3167180D01*
X1665980Y3168279D01*
X1660000Y3168660D01*
X1654019Y3168279D01*
X1648140Y3167180D01*
X1642420Y3165380D01*
X1636980Y3162860D01*
X1631879Y3159720D01*
X1627220Y3155960D01*
X1623040Y3151660D01*
X1619440Y3146880D01*
X1616740Y3142200D01*
X1615840Y3141139D01*
X1614640Y3140440D01*
X1613280Y3140200D01*
X1509680Y3140200D01*
X1508280Y3140460D01*
X1507060Y3141180D01*
X1506160Y3142280D01*
X1505240Y3143960D01*
X1501940Y3148500D01*
X1498100Y3152600D01*
X1493760Y3156180D01*
X1489019Y3159180D01*
X1483940Y3161580D01*
X1478600Y3163320D01*
X1473080Y3164360D01*
X1467480Y3164720D01*
X1461879Y3164360D01*
X1456360Y3163320D01*
X1451020Y3161580D01*
X1445940Y3159180D01*
X1441200Y3156180D01*
X1436860Y3152600D01*
X1433020Y3148500D01*
X1429720Y3143960D01*
X1427020Y3139040D01*
X1424940Y3133820D01*
X1423560Y3128380D01*
X1422840Y3122799D01*
X1422840Y3117200D01*
X1423560Y3111620D01*
X1424940Y3106180D01*
X1427020Y3100960D01*
X1429720Y3096040D01*
X1433020Y3091500D01*
X1436860Y3087400D01*
X1441200Y3083820D01*
X1445940Y3080820D01*
X1451020Y3078420D01*
X1456360Y3076680D01*
X1461879Y3075640D01*
X1467480Y3075280D01*
X1473080Y3075640D01*
X1478600Y3076680D01*
X1483940Y3078420D01*
X1489019Y3080820D01*
X1493760Y3083820D01*
X1498100Y3087400D01*
X1501940Y3091500D01*
X1505240Y3096040D01*
X1506160Y3097720D01*
X1507060Y3098820D01*
X1508280Y3099540D01*
X1509680Y3099800D01*
X1613320Y3099800D01*
X1614780Y3099520D01*
X1616020Y3098759D01*
X1616920Y3097580D01*
X1617860Y3095680D01*
X1621180Y3090680D01*
X1625060Y3086120D01*
X1629500Y3082100D01*
X1634379Y3078639D01*
X1639660Y3075800D01*
X1645100Y3073700D01*
X1646459Y3072799D01*
X1647380Y3071440D01*
X1647660Y3069840D01*
X1647280Y3068260D01*
X1646279Y3066940D01*
X1644860Y3066139D01*
X1642420Y3065380D01*
X1636980Y3062860D01*
X1631879Y3059720D01*
X1627220Y3055960D01*
X1623040Y3051660D01*
X1619440Y3046880D01*
X1616740Y3042200D01*
X1615840Y3041139D01*
X1614640Y3040440D01*
X1613280Y3040200D01*
X1509680Y3040200D01*
X1508280Y3040440D01*
X1507060Y3041180D01*
X1506160Y3042280D01*
X1505240Y3043960D01*
X1501940Y3048500D01*
X1498100Y3052600D01*
X1493760Y3056180D01*
X1489019Y3059180D01*
X1483940Y3061580D01*
X1478600Y3063320D01*
X1473080Y3064360D01*
X1467480Y3064720D01*
X1461879Y3064360D01*
X1456360Y3063320D01*
X1451020Y3061580D01*
X1445940Y3059180D01*
X1441200Y3056180D01*
X1436860Y3052600D01*
X1433020Y3048500D01*
X1429720Y3043960D01*
X1427020Y3039040D01*
X1424940Y3033820D01*
X1423560Y3028380D01*
X1422840Y3022799D01*
X1422840Y3017200D01*
X1423560Y3011620D01*
X1424940Y3006180D01*
X1427020Y3000960D01*
X1429720Y2996040D01*
X1433020Y2991500D01*
X1436860Y2987400D01*
X1441200Y2983820D01*
X1445940Y2980820D01*
X1451020Y2978420D01*
X1456360Y2976680D01*
X1461879Y2975640D01*
X1467480Y2975280D01*
X1473080Y2975640D01*
X1478600Y2976680D01*
X1483940Y2978420D01*
X1489019Y2980820D01*
X1493760Y2983820D01*
X1498100Y2987400D01*
X1501940Y2991500D01*
X1505240Y2996040D01*
X1506160Y2997720D01*
X1507060Y2998820D01*
X1508280Y2999540D01*
X1509680Y2999800D01*
X1613320Y2999800D01*
X1614780Y2999520D01*
X1616020Y2998759D01*
X1616920Y2997580D01*
X1617860Y2995680D01*
X1621180Y2990680D01*
X1625060Y2986120D01*
X1629500Y2982100D01*
X1634379Y2978639D01*
X1639660Y2975800D01*
X1645100Y2973700D01*
X1646459Y2972799D01*
X1647380Y2971440D01*
X1647660Y2969840D01*
X1647280Y2968260D01*
X1646279Y2966940D01*
X1644860Y2966139D01*
X1642420Y2965380D01*
X1636980Y2962860D01*
X1631879Y2959720D01*
X1627220Y2955960D01*
X1623040Y2951660D01*
X1619440Y2946880D01*
X1616740Y2942200D01*
X1615840Y2941139D01*
X1614640Y2940440D01*
X1613280Y2940200D01*
X1509680Y2940200D01*
X1508280Y2940460D01*
X1507060Y2941180D01*
X1506160Y2942280D01*
X1505240Y2943960D01*
X1501940Y2948500D01*
X1498100Y2952600D01*
X1493760Y2956180D01*
X1489019Y2959180D01*
X1483940Y2961580D01*
X1478600Y2963320D01*
X1473080Y2964360D01*
X1467480Y2964720D01*
X1461879Y2964360D01*
X1456360Y2963320D01*
X1451020Y2961580D01*
X1445940Y2959180D01*
X1441200Y2956180D01*
X1436860Y2952600D01*
X1433020Y2948500D01*
X1429720Y2943960D01*
X1427020Y2939040D01*
X1424940Y2933820D01*
X1423560Y2928380D01*
X1422840Y2922799D01*
X1422840Y2917200D01*
X1423560Y2911620D01*
X1424940Y2906180D01*
X1427020Y2900960D01*
X1429720Y2896040D01*
X1433020Y2891500D01*
X1436860Y2887400D01*
X1441200Y2883820D01*
X1445940Y2880820D01*
X1451020Y2878420D01*
X1456360Y2876680D01*
X1461879Y2875640D01*
X1467480Y2875280D01*
X1473080Y2875640D01*
X1478600Y2876680D01*
X1483940Y2878420D01*
X1489019Y2880820D01*
X1493760Y2883820D01*
X1498100Y2887400D01*
X1501940Y2891500D01*
X1505240Y2896040D01*
X1506160Y2897720D01*
X1507060Y2898820D01*
X1508280Y2899540D01*
X1509680Y2899800D01*
X1613320Y2899800D01*
X1614780Y2899520D01*
X1616020Y2898759D01*
X1616920Y2897580D01*
X1617860Y2895680D01*
X1621180Y2890680D01*
X1625060Y2886120D01*
X1629500Y2882100D01*
X1634379Y2878639D01*
X1639660Y2875800D01*
X1645100Y2873700D01*
X1646459Y2872799D01*
X1647380Y2871440D01*
X1647660Y2869840D01*
X1647280Y2868260D01*
X1646279Y2866940D01*
X1644860Y2866139D01*
X1642420Y2865380D01*
X1636980Y2862860D01*
X1631879Y2859720D01*
X1627220Y2855960D01*
X1623040Y2851660D01*
X1619440Y2846880D01*
X1616740Y2842200D01*
X1615840Y2841139D01*
X1614640Y2840440D01*
X1613280Y2840200D01*
X1509680Y2840200D01*
X1508280Y2840440D01*
X1507060Y2841180D01*
X1506160Y2842280D01*
X1505240Y2843960D01*
X1501940Y2848500D01*
X1498100Y2852600D01*
X1493760Y2856180D01*
X1489019Y2859180D01*
X1483940Y2861580D01*
X1478600Y2863320D01*
X1473080Y2864360D01*
X1467480Y2864720D01*
X1461879Y2864360D01*
X1456360Y2863320D01*
X1451020Y2861580D01*
X1445940Y2859180D01*
X1441200Y2856180D01*
X1436860Y2852600D01*
X1433020Y2848500D01*
X1429720Y2843960D01*
X1427020Y2839040D01*
X1424940Y2833820D01*
X1423560Y2828380D01*
X1422840Y2822799D01*
X1422840Y2817200D01*
X1423560Y2811620D01*
X1424940Y2806180D01*
X1427020Y2800960D01*
X1429720Y2796040D01*
X1433020Y2791500D01*
X1436860Y2787400D01*
X1441200Y2783820D01*
X1445940Y2780820D01*
X1451020Y2778420D01*
X1456360Y2776680D01*
X1461879Y2775640D01*
X1467480Y2775280D01*
X1473080Y2775640D01*
X1478600Y2776680D01*
X1483940Y2778420D01*
X1489019Y2780820D01*
X1493760Y2783820D01*
X1498100Y2787400D01*
X1501940Y2791500D01*
X1505240Y2796040D01*
X1506160Y2797720D01*
X1507060Y2798820D01*
X1508280Y2799540D01*
X1509680Y2799800D01*
X1613320Y2799800D01*
X1614780Y2799520D01*
X1616020Y2798759D01*
X1616920Y2797580D01*
X1617860Y2795680D01*
X1621180Y2790680D01*
X1625060Y2786120D01*
X1629500Y2782100D01*
X1634379Y2778639D01*
X1639660Y2775800D01*
X1645100Y2773700D01*
X1646459Y2772799D01*
X1647380Y2771440D01*
X1647660Y2769840D01*
X1647280Y2768260D01*
X1646279Y2766940D01*
X1644860Y2766139D01*
X1642420Y2765380D01*
X1636980Y2762860D01*
X1631879Y2759720D01*
X1627220Y2755960D01*
X1623040Y2751660D01*
X1619440Y2746880D01*
X1616740Y2742200D01*
X1615840Y2741139D01*
X1614640Y2740440D01*
X1613280Y2740200D01*
X1509680Y2740200D01*
X1508280Y2740440D01*
X1507060Y2741180D01*
X1506160Y2742280D01*
X1505240Y2743960D01*
X1501940Y2748500D01*
X1498100Y2752600D01*
X1493760Y2756180D01*
X1489019Y2759180D01*
X1483940Y2761580D01*
X1478600Y2763320D01*
X1473080Y2764360D01*
X1467480Y2764720D01*
X1461879Y2764360D01*
X1456360Y2763320D01*
X1451020Y2761580D01*
X1445940Y2759180D01*
X1441200Y2756180D01*
X1436860Y2752600D01*
X1433020Y2748500D01*
X1429720Y2743960D01*
X1427020Y2739040D01*
X1424940Y2733820D01*
X1423560Y2728380D01*
X1422840Y2722799D01*
X1422840Y2717200D01*
X1423560Y2711620D01*
X1424940Y2706180D01*
X1427020Y2700960D01*
X1429720Y2696040D01*
X1433020Y2691500D01*
X1436860Y2687400D01*
X1441200Y2683820D01*
X1445940Y2680820D01*
X1451020Y2678420D01*
X1456360Y2676680D01*
X1461879Y2675640D01*
X1467480Y2675280D01*
X1473080Y2675640D01*
X1478600Y2676680D01*
X1483940Y2678420D01*
X1489019Y2680820D01*
X1493760Y2683820D01*
X1498100Y2687400D01*
X1501940Y2691500D01*
X1505240Y2696040D01*
X1506160Y2697720D01*
X1507060Y2698820D01*
X1508280Y2699540D01*
X1509680Y2699800D01*
X1613320Y2699800D01*
X1614780Y2699520D01*
X1616020Y2698759D01*
X1616920Y2697580D01*
X1617860Y2695680D01*
X1621180Y2690680D01*
X1625060Y2686120D01*
X1629500Y2682100D01*
X1634379Y2678639D01*
X1639660Y2675800D01*
X1645100Y2673700D01*
X1646459Y2672799D01*
X1647380Y2671440D01*
X1647660Y2669840D01*
X1647280Y2668260D01*
X1646279Y2666940D01*
X1644860Y2666139D01*
X1642420Y2665380D01*
X1636980Y2662860D01*
X1631879Y2659720D01*
X1627220Y2655960D01*
X1623040Y2651660D01*
X1619440Y2646880D01*
X1616740Y2642200D01*
X1615840Y2641139D01*
X1614640Y2640440D01*
X1613280Y2640200D01*
X1509680Y2640200D01*
X1508280Y2640440D01*
X1507060Y2641180D01*
X1506160Y2642280D01*
X1505240Y2643960D01*
X1501940Y2648500D01*
X1498100Y2652600D01*
X1493760Y2656180D01*
X1489019Y2659180D01*
X1483940Y2661580D01*
X1478600Y2663320D01*
X1473080Y2664360D01*
X1467480Y2664720D01*
X1461879Y2664360D01*
X1456360Y2663320D01*
X1451020Y2661580D01*
X1445940Y2659180D01*
X1441200Y2656180D01*
X1436860Y2652600D01*
X1433020Y2648500D01*
X1429720Y2643960D01*
X1427020Y2639040D01*
X1424940Y2633820D01*
X1423560Y2628380D01*
X1422840Y2622799D01*
X1422840Y2617200D01*
X1423560Y2611620D01*
X1424940Y2606180D01*
X1427020Y2600960D01*
X1429720Y2596040D01*
X1433020Y2591500D01*
X1436860Y2587400D01*
X1441200Y2583820D01*
X1445940Y2580820D01*
X1451020Y2578420D01*
X1456360Y2576680D01*
X1461879Y2575640D01*
X1467480Y2575280D01*
X1473080Y2575640D01*
X1478600Y2576680D01*
X1483940Y2578420D01*
X1489019Y2580820D01*
X1493760Y2583820D01*
X1498100Y2587400D01*
X1501940Y2591500D01*
X1505240Y2596040D01*
X1506160Y2597720D01*
X1507060Y2598820D01*
X1508280Y2599540D01*
X1509680Y2599800D01*
X1613320Y2599800D01*
X1614780Y2599520D01*
X1616020Y2598759D01*
X1616920Y2597580D01*
X1617860Y2595680D01*
X1621180Y2590680D01*
X1625060Y2586120D01*
X1629500Y2582100D01*
X1634379Y2578639D01*
X1639660Y2575800D01*
X1645100Y2573700D01*
X1646459Y2572799D01*
X1647380Y2571440D01*
X1647660Y2569840D01*
X1647280Y2568260D01*
X1646279Y2566940D01*
X1644860Y2566139D01*
X1642420Y2565380D01*
X1636980Y2562860D01*
X1631879Y2559720D01*
X1627220Y2555960D01*
X1623040Y2551660D01*
X1619440Y2546880D01*
X1616740Y2542200D01*
X1615840Y2541140D01*
X1614640Y2540440D01*
X1613280Y2540200D01*
X1509680Y2540200D01*
X1508280Y2540460D01*
X1507060Y2541180D01*
X1506160Y2542280D01*
X1505240Y2543960D01*
X1501940Y2548500D01*
X1498100Y2552600D01*
X1493760Y2556180D01*
X1489019Y2559180D01*
X1483940Y2561580D01*
X1478600Y2563320D01*
X1473080Y2564360D01*
X1467480Y2564720D01*
X1461879Y2564360D01*
X1456360Y2563320D01*
X1451020Y2561580D01*
X1445940Y2559180D01*
X1441200Y2556180D01*
X1436860Y2552600D01*
X1433020Y2548500D01*
X1429720Y2543960D01*
X1427020Y2539040D01*
X1424940Y2533820D01*
X1423560Y2528380D01*
X1422840Y2522800D01*
X1422840Y2517200D01*
X1423560Y2511620D01*
X1424940Y2506180D01*
X1427020Y2500960D01*
X1429720Y2496040D01*
X1433020Y2491500D01*
X1436860Y2487400D01*
X1441200Y2483820D01*
X1445940Y2480820D01*
X1451020Y2478420D01*
X1456360Y2476680D01*
X1461879Y2475640D01*
X1467480Y2475280D01*
X1473080Y2475640D01*
X1478600Y2476680D01*
X1483940Y2478420D01*
X1489019Y2480820D01*
X1493760Y2483820D01*
X1498100Y2487400D01*
X1501940Y2491500D01*
X1505240Y2496040D01*
X1506160Y2497720D01*
X1507060Y2498820D01*
X1508280Y2499540D01*
X1509680Y2499800D01*
X1613320Y2499800D01*
X1614780Y2499520D01*
X1616020Y2498760D01*
X1616920Y2497580D01*
X1617860Y2495680D01*
X1621180Y2490680D01*
X1625060Y2486120D01*
X1629500Y2482100D01*
X1634379Y2478640D01*
X1639660Y2475800D01*
X1645100Y2473700D01*
X1646459Y2472800D01*
X1647380Y2471440D01*
X1647660Y2469840D01*
X1647280Y2468260D01*
X1646279Y2466940D01*
X1644860Y2466140D01*
X1642420Y2465380D01*
X1636980Y2462860D01*
X1631879Y2459720D01*
X1627220Y2455960D01*
X1623040Y2451660D01*
X1619440Y2446880D01*
X1616740Y2442200D01*
X1615840Y2441140D01*
X1614640Y2440440D01*
X1613280Y2440200D01*
X1509680Y2440200D01*
X1508280Y2440440D01*
X1507060Y2441180D01*
X1506160Y2442280D01*
X1505240Y2443960D01*
X1501940Y2448500D01*
X1498100Y2452600D01*
X1493760Y2456180D01*
X1489019Y2459180D01*
X1483940Y2461580D01*
X1478600Y2463320D01*
X1473080Y2464360D01*
X1467480Y2464720D01*
X1461879Y2464360D01*
X1456360Y2463320D01*
X1451020Y2461580D01*
X1445940Y2459180D01*
X1441200Y2456180D01*
X1436860Y2452600D01*
X1433020Y2448500D01*
X1429720Y2443960D01*
X1427020Y2439040D01*
X1424940Y2433820D01*
X1423560Y2428380D01*
X1422840Y2422800D01*
X1422840Y2417200D01*
X1423560Y2411620D01*
X1424940Y2406180D01*
X1427020Y2400960D01*
X1429720Y2396040D01*
X1433020Y2391500D01*
X1436860Y2387400D01*
X1441200Y2383820D01*
X1445940Y2380820D01*
X1451020Y2378420D01*
X1456360Y2376680D01*
X1461879Y2375640D01*
X1467480Y2375280D01*
X1473080Y2375640D01*
X1478600Y2376680D01*
X1483940Y2378420D01*
X1489019Y2380820D01*
X1493760Y2383820D01*
X1498100Y2387400D01*
X1501940Y2391500D01*
X1505240Y2396040D01*
X1506160Y2397720D01*
X1507060Y2398820D01*
X1508280Y2399540D01*
X1509680Y2399800D01*
X1613320Y2399800D01*
X1614780Y2399520D01*
X1616020Y2398760D01*
X1616920Y2397580D01*
X1617860Y2395680D01*
X1621180Y2390680D01*
X1625060Y2386120D01*
X1629500Y2382100D01*
X1634379Y2378640D01*
X1639660Y2375800D01*
X1645100Y2373700D01*
X1646459Y2372800D01*
X1647380Y2371440D01*
X1647660Y2369840D01*
X1647280Y2368260D01*
X1646279Y2366940D01*
X1644860Y2366140D01*
X1642420Y2365380D01*
X1636980Y2362860D01*
X1631879Y2359720D01*
X1627220Y2355960D01*
X1623040Y2351660D01*
X1619440Y2346880D01*
X1616740Y2342200D01*
X1615840Y2341140D01*
X1614640Y2340440D01*
X1613280Y2340200D01*
X1509680Y2340200D01*
X1508280Y2340460D01*
X1507060Y2341180D01*
X1506160Y2342280D01*
X1505240Y2343960D01*
X1501940Y2348500D01*
X1498100Y2352600D01*
X1493760Y2356180D01*
X1489019Y2359180D01*
X1483940Y2361580D01*
X1478600Y2363320D01*
X1473080Y2364360D01*
X1467480Y2364720D01*
X1461879Y2364360D01*
X1456360Y2363320D01*
X1451020Y2361580D01*
X1445940Y2359180D01*
X1441200Y2356180D01*
X1436860Y2352600D01*
X1433020Y2348500D01*
X1429720Y2343960D01*
X1427020Y2339040D01*
X1424940Y2333820D01*
X1423560Y2328380D01*
X1422840Y2322800D01*
X1422840Y2317200D01*
X1423560Y2311620D01*
X1424940Y2306180D01*
X1427020Y2300960D01*
X1429720Y2296040D01*
X1433020Y2291500D01*
X1436860Y2287400D01*
X1441200Y2283820D01*
X1445940Y2280820D01*
X1451020Y2278420D01*
X1456360Y2276680D01*
X1461879Y2275640D01*
X1467480Y2275280D01*
X1473080Y2275640D01*
X1478600Y2276680D01*
X1483940Y2278420D01*
X1489019Y2280820D01*
X1493760Y2283820D01*
X1498100Y2287400D01*
X1501940Y2291500D01*
X1505240Y2296040D01*
X1506160Y2297720D01*
X1507060Y2298820D01*
X1508280Y2299540D01*
X1509680Y2299800D01*
X1613320Y2299800D01*
X1614780Y2299520D01*
X1616020Y2298760D01*
X1616920Y2297580D01*
X1617860Y2295680D01*
X1621180Y2290680D01*
X1625060Y2286120D01*
X1629500Y2282100D01*
X1634379Y2278640D01*
X1639660Y2275800D01*
X1645100Y2273700D01*
X1646459Y2272800D01*
X1647380Y2271440D01*
X1647660Y2269840D01*
X1647280Y2268260D01*
X1646279Y2266940D01*
X1644860Y2266140D01*
X1642420Y2265380D01*
X1636980Y2262860D01*
X1631879Y2259720D01*
X1627220Y2255960D01*
X1623040Y2251660D01*
X1619440Y2246880D01*
X1616740Y2242200D01*
X1615840Y2241140D01*
X1614640Y2240440D01*
X1613280Y2240200D01*
X1509680Y2240200D01*
X1508280Y2240440D01*
X1507060Y2241180D01*
X1506160Y2242280D01*
X1505240Y2243960D01*
X1501940Y2248500D01*
X1498100Y2252600D01*
X1493760Y2256180D01*
X1489019Y2259180D01*
X1483940Y2261580D01*
X1478600Y2263320D01*
X1473080Y2264360D01*
X1467480Y2264720D01*
X1461879Y2264360D01*
X1456360Y2263320D01*
X1451020Y2261580D01*
X1445940Y2259180D01*
X1441200Y2256180D01*
X1436860Y2252600D01*
X1433020Y2248500D01*
X1429720Y2243960D01*
X1427020Y2239040D01*
X1424940Y2233820D01*
X1423560Y2228380D01*
X1422840Y2222800D01*
X1422840Y2217200D01*
X1423560Y2211620D01*
X1424940Y2206180D01*
X1427020Y2200960D01*
X1429720Y2196040D01*
X1433020Y2191500D01*
X1436860Y2187400D01*
X1441200Y2183820D01*
X1445940Y2180820D01*
X1451020Y2178420D01*
X1456360Y2176680D01*
X1461879Y2175640D01*
X1467480Y2175280D01*
X1473080Y2175640D01*
X1478600Y2176680D01*
X1483940Y2178420D01*
X1489019Y2180820D01*
X1493760Y2183820D01*
X1498100Y2187400D01*
X1501940Y2191500D01*
X1505240Y2196040D01*
X1506160Y2197720D01*
X1507060Y2198820D01*
X1508280Y2199540D01*
X1509680Y2199800D01*
X1613320Y2199800D01*
X1614780Y2199520D01*
X1616020Y2198760D01*
X1616920Y2197580D01*
X1617860Y2195680D01*
X1621180Y2190680D01*
X1625060Y2186120D01*
X1629500Y2182100D01*
X1634379Y2178640D01*
X1639660Y2175800D01*
X1645100Y2173700D01*
X1646459Y2172800D01*
X1647380Y2171440D01*
X1647660Y2169840D01*
X1647280Y2168260D01*
X1646279Y2166940D01*
X1644860Y2166140D01*
X1642420Y2165380D01*
X1636980Y2162860D01*
X1631879Y2159720D01*
X1627220Y2155960D01*
X1623040Y2151660D01*
X1619440Y2146880D01*
X1616740Y2142200D01*
X1615840Y2141140D01*
X1614640Y2140440D01*
X1613280Y2140200D01*
X1509680Y2140200D01*
X1508280Y2140460D01*
X1507060Y2141180D01*
X1506160Y2142280D01*
X1505240Y2143960D01*
X1501940Y2148500D01*
X1498100Y2152600D01*
X1493760Y2156180D01*
X1489019Y2159180D01*
X1483940Y2161580D01*
X1478600Y2163320D01*
X1473080Y2164360D01*
X1467480Y2164720D01*
X1461879Y2164360D01*
X1456360Y2163320D01*
X1451020Y2161580D01*
X1445940Y2159180D01*
X1441200Y2156180D01*
X1436860Y2152600D01*
X1433020Y2148500D01*
X1429720Y2143960D01*
X1427020Y2139040D01*
X1424940Y2133820D01*
X1423560Y2128380D01*
X1422840Y2122800D01*
X1422840Y2117200D01*
X1423560Y2111620D01*
X1424940Y2106180D01*
X1427020Y2100960D01*
X1429720Y2096040D01*
X1433020Y2091500D01*
X1436860Y2087400D01*
X1441200Y2083820D01*
X1445940Y2080820D01*
X1451020Y2078420D01*
X1456360Y2076680D01*
X1461879Y2075640D01*
X1467480Y2075280D01*
X1473080Y2075640D01*
X1478600Y2076680D01*
X1483940Y2078420D01*
X1489019Y2080820D01*
X1493760Y2083820D01*
X1498100Y2087400D01*
X1501940Y2091500D01*
X1505240Y2096040D01*
X1506160Y2097720D01*
X1507060Y2098820D01*
X1508280Y2099540D01*
X1509680Y2099800D01*
X1613320Y2099800D01*
X1614780Y2099520D01*
X1616020Y2098760D01*
X1616920Y2097580D01*
X1617860Y2095680D01*
X1621180Y2090680D01*
X1625060Y2086120D01*
X1629500Y2082100D01*
X1634379Y2078640D01*
X1639660Y2075800D01*
X1645100Y2073700D01*
X1646459Y2072800D01*
X1647380Y2071440D01*
X1647660Y2069840D01*
X1647280Y2068260D01*
X1646279Y2066940D01*
X1644860Y2066140D01*
X1642420Y2065380D01*
X1636980Y2062860D01*
X1631879Y2059720D01*
X1627220Y2055960D01*
X1623040Y2051660D01*
X1619440Y2046879D01*
X1616740Y2042200D01*
X1615840Y2041140D01*
X1614640Y2040440D01*
X1613280Y2040200D01*
X1509680Y2040200D01*
X1508280Y2040440D01*
X1507060Y2041180D01*
X1506160Y2042280D01*
X1505240Y2043959D01*
X1501940Y2048500D01*
X1498100Y2052600D01*
X1493760Y2056180D01*
X1489019Y2059180D01*
X1483940Y2061579D01*
X1478600Y2063320D01*
X1473080Y2064360D01*
X1467480Y2064720D01*
X1461879Y2064360D01*
X1456360Y2063320D01*
X1451020Y2061579D01*
X1445940Y2059180D01*
X1441200Y2056180D01*
X1436860Y2052600D01*
X1433020Y2048500D01*
X1429720Y2043959D01*
X1427020Y2039040D01*
X1424940Y2033820D01*
X1423560Y2028380D01*
X1422840Y2022800D01*
X1422840Y2017200D01*
X1423560Y2011620D01*
X1424940Y2006180D01*
X1427020Y2000960D01*
X1429720Y1996040D01*
X1433020Y1991500D01*
X1436860Y1987400D01*
X1441200Y1983820D01*
X1445940Y1980820D01*
X1451020Y1978420D01*
X1456360Y1976680D01*
X1461879Y1975640D01*
X1467480Y1975280D01*
X1473080Y1975640D01*
X1478600Y1976680D01*
X1483940Y1978420D01*
X1489019Y1980820D01*
X1493760Y1983820D01*
X1498100Y1987400D01*
X1501940Y1991500D01*
X1505240Y1996040D01*
X1506160Y1997720D01*
X1507060Y1998820D01*
X1508280Y1999540D01*
X1509680Y1999800D01*
X1613320Y1999800D01*
X1614780Y1999520D01*
X1616020Y1998760D01*
X1616920Y1997580D01*
X1617860Y1995680D01*
X1621180Y1990680D01*
X1625060Y1986120D01*
X1629500Y1982100D01*
X1634379Y1978640D01*
X1639660Y1975800D01*
X1645100Y1973700D01*
X1646459Y1972800D01*
X1647380Y1971440D01*
X1647660Y1969840D01*
X1647280Y1968260D01*
X1646279Y1966940D01*
X1644860Y1966140D01*
X1642420Y1965380D01*
X1636980Y1962860D01*
X1631879Y1959720D01*
X1627220Y1955960D01*
X1623040Y1951660D01*
X1619440Y1946879D01*
X1616740Y1942200D01*
X1615840Y1941140D01*
X1614640Y1940440D01*
X1613280Y1940200D01*
X1509680Y1940200D01*
X1508280Y1940440D01*
X1507060Y1941180D01*
X1506160Y1942280D01*
X1505240Y1943959D01*
X1501940Y1948500D01*
X1498100Y1952600D01*
X1493760Y1956180D01*
X1489019Y1959180D01*
X1483940Y1961579D01*
X1478600Y1963320D01*
X1473080Y1964360D01*
X1467480Y1964720D01*
X1461879Y1964360D01*
X1456360Y1963320D01*
X1451020Y1961579D01*
X1445940Y1959180D01*
X1441200Y1956180D01*
X1436860Y1952600D01*
X1433020Y1948500D01*
X1429720Y1943959D01*
X1427020Y1939040D01*
X1424940Y1933820D01*
X1423560Y1928380D01*
X1422840Y1922800D01*
X1422840Y1917200D01*
X1423560Y1911620D01*
X1424940Y1906180D01*
X1427020Y1900960D01*
X1429720Y1896040D01*
X1433020Y1891500D01*
X1436860Y1887400D01*
X1441200Y1883820D01*
X1445940Y1880820D01*
X1451020Y1878420D01*
X1456360Y1876680D01*
X1461879Y1875640D01*
X1467480Y1875280D01*
X1473080Y1875640D01*
X1478600Y1876680D01*
X1483940Y1878420D01*
X1489019Y1880820D01*
X1493760Y1883820D01*
X1498100Y1887400D01*
X1501940Y1891500D01*
X1505240Y1896040D01*
X1506160Y1897720D01*
X1507060Y1898820D01*
X1508280Y1899540D01*
X1509680Y1899800D01*
X1613320Y1899800D01*
X1614780Y1899520D01*
X1616020Y1898760D01*
X1616920Y1897580D01*
X1617860Y1895680D01*
X1621180Y1890680D01*
X1625060Y1886120D01*
X1629500Y1882100D01*
X1634379Y1878640D01*
X1638940Y1876180D01*
X1640260Y1875040D01*
X1640960Y1873440D01*
X1640920Y1871680D01*
X1640140Y1870120D01*
X1638760Y1869040D01*
X1637040Y1868660D01*
X1629199Y1868660D01*
X1626040Y1868360D01*
X1623200Y1867480D01*
X1620560Y1866080D01*
X1618260Y1864199D01*
X1616380Y1861900D01*
X1614980Y1859280D01*
X1614120Y1856420D01*
X1613800Y1853260D01*
X1613800Y1844199D01*
X1613500Y1842660D01*
X1612620Y1841380D01*
X1611339Y1840500D01*
X1609800Y1840200D01*
X1509680Y1840200D01*
X1508280Y1840460D01*
X1507060Y1841180D01*
X1506160Y1842280D01*
X1505240Y1843959D01*
X1501940Y1848500D01*
X1498100Y1852600D01*
X1493760Y1856180D01*
X1489019Y1859180D01*
X1483940Y1861579D01*
X1478600Y1863320D01*
X1473080Y1864360D01*
X1467480Y1864720D01*
X1461879Y1864360D01*
X1456360Y1863320D01*
X1451020Y1861579D01*
X1445940Y1859180D01*
X1441200Y1856180D01*
X1436860Y1852600D01*
X1433020Y1848500D01*
X1429720Y1843959D01*
X1427020Y1839040D01*
X1424940Y1833820D01*
X1423560Y1828380D01*
X1422840Y1822800D01*
X1422840Y1817200D01*
X1423560Y1811620D01*
X1424940Y1806180D01*
X1427020Y1800960D01*
X1429720Y1796040D01*
X1433020Y1791500D01*
X1436860Y1787400D01*
X1441200Y1783820D01*
X1445940Y1780820D01*
X1451020Y1778420D01*
X1456360Y1776680D01*
X1461879Y1775640D01*
X1467480Y1775280D01*
X1473080Y1775640D01*
X1478600Y1776680D01*
X1483940Y1778420D01*
X1489019Y1780820D01*
X1493760Y1783820D01*
X1498100Y1787400D01*
X1501940Y1791500D01*
X1505240Y1796040D01*
X1506160Y1797720D01*
X1507060Y1798820D01*
X1508280Y1799540D01*
X1509680Y1799800D01*
X1609800Y1799800D01*
X1611339Y1799500D01*
X1612620Y1798620D01*
X1613500Y1797340D01*
X1613800Y1795800D01*
X1613800Y1786740D01*
X1614120Y1783580D01*
X1614980Y1780720D01*
X1616380Y1778100D01*
X1618260Y1775800D01*
X1620560Y1773920D01*
X1623200Y1772520D01*
X1626040Y1771639D01*
G37*
G36*
X1152520Y2175280D02*
G01*
X1158120Y2175640D01*
X1163640Y2176680D01*
X1168980Y2178420D01*
X1174060Y2180820D01*
X1178800Y2183820D01*
X1183140Y2187400D01*
X1186980Y2191500D01*
X1190280Y2196040D01*
X1192980Y2200960D01*
X1195060Y2206180D01*
X1196440Y2211620D01*
X1197160Y2217200D01*
X1197160Y2222800D01*
X1196440Y2228380D01*
X1195060Y2233820D01*
X1192980Y2239040D01*
X1190280Y2243960D01*
X1186980Y2248500D01*
X1183140Y2252600D01*
X1178800Y2256180D01*
X1174060Y2259180D01*
X1168980Y2261580D01*
X1163640Y2263320D01*
X1158120Y2264360D01*
X1152520Y2264720D01*
X1146920Y2264360D01*
X1141400Y2263320D01*
X1136060Y2261580D01*
X1130980Y2259180D01*
X1126240Y2256180D01*
X1121900Y2252600D01*
X1118060Y2248500D01*
X1114760Y2243960D01*
X1112060Y2239040D01*
X1109980Y2233820D01*
X1108600Y2228380D01*
X1107880Y2222800D01*
X1107880Y2217200D01*
X1108600Y2211620D01*
X1109980Y2206180D01*
X1112060Y2200960D01*
X1114760Y2196040D01*
X1118060Y2191500D01*
X1121900Y2187400D01*
X1126240Y2183820D01*
X1130980Y2180820D01*
X1136060Y2178420D01*
X1141400Y2176680D01*
X1146920Y2175640D01*
G37*
G36*
X1147520Y2475600D02*
G01*
X1147520Y2515000D01*
X1108160Y2515000D01*
X1108600Y2511620D01*
X1109980Y2506180D01*
X1112060Y2500960D01*
X1114760Y2496040D01*
X1118060Y2491500D01*
X1121900Y2487400D01*
X1126240Y2483820D01*
X1130980Y2480820D01*
X1136060Y2478420D01*
X1141400Y2476680D01*
X1146920Y2475640D01*
G37*
G36*
X1157520Y2475600D02*
G01*
X1158120Y2475640D01*
X1163640Y2476680D01*
X1168980Y2478420D01*
X1174060Y2480820D01*
X1178800Y2483820D01*
X1183140Y2487400D01*
X1186980Y2491500D01*
X1190280Y2496040D01*
X1192980Y2500960D01*
X1195060Y2506180D01*
X1196440Y2511620D01*
X1196880Y2515000D01*
X1157520Y2515000D01*
G37*
G36*
X1108160Y2525000D02*
G01*
X1147520Y2525000D01*
X1147520Y2564400D01*
X1146920Y2564360D01*
X1141400Y2563320D01*
X1136060Y2561580D01*
X1130980Y2559180D01*
X1126240Y2556180D01*
X1121900Y2552600D01*
X1118060Y2548500D01*
X1114760Y2543960D01*
X1112060Y2539040D01*
X1109980Y2533820D01*
X1108600Y2528380D01*
G37*
G36*
X1157520Y2525000D02*
G01*
X1196880Y2525000D01*
X1196440Y2528380D01*
X1195060Y2533820D01*
X1192980Y2539040D01*
X1190280Y2543960D01*
X1186980Y2548500D01*
X1183140Y2552600D01*
X1178800Y2556180D01*
X1174060Y2559180D01*
X1168980Y2561580D01*
X1163640Y2563320D01*
X1158120Y2564360D01*
X1157520Y2564400D01*
G37*
G36*
X151700Y2525000D02*
G01*
X195000Y2525000D01*
X195000Y2567400D01*
X195300Y2568920D01*
X196180Y2570220D01*
X197460Y2571100D01*
X199000Y2571400D01*
X201000Y2571400D01*
X202540Y2571100D01*
X203820Y2570220D01*
X204700Y2568920D01*
X205000Y2567400D01*
X205000Y2525000D01*
X248299Y2525000D01*
X248080Y2527460D01*
X246800Y2533320D01*
X244800Y2538960D01*
X242140Y2544320D01*
X238820Y2549320D01*
X234940Y2553880D01*
X230500Y2557900D01*
X225620Y2561360D01*
X220340Y2564200D01*
X214899Y2566300D01*
X213540Y2567200D01*
X212620Y2568560D01*
X212340Y2570160D01*
X212719Y2571740D01*
X213720Y2573039D01*
X215140Y2573860D01*
X217580Y2574620D01*
X223020Y2577140D01*
X228120Y2580280D01*
X232780Y2584040D01*
X236960Y2588340D01*
X240560Y2593120D01*
X243260Y2597799D01*
X244160Y2598860D01*
X245360Y2599560D01*
X246720Y2599800D01*
X353280Y2599800D01*
X354640Y2599560D01*
X355840Y2598860D01*
X356740Y2597799D01*
X359440Y2593120D01*
X363040Y2588340D01*
X367220Y2584040D01*
X371880Y2580280D01*
X376980Y2577140D01*
X382420Y2574620D01*
X384860Y2573860D01*
X386280Y2573039D01*
X387280Y2571740D01*
X387660Y2570160D01*
X387380Y2568560D01*
X386460Y2567200D01*
X385100Y2566300D01*
X379660Y2564200D01*
X374380Y2561360D01*
X369500Y2557900D01*
X365060Y2553880D01*
X361180Y2549320D01*
X357860Y2544320D01*
X355200Y2538960D01*
X353200Y2533320D01*
X351920Y2527460D01*
X351700Y2525000D01*
X395000Y2525000D01*
X395000Y2567400D01*
X395300Y2568920D01*
X396180Y2570220D01*
X397460Y2571100D01*
X399000Y2571400D01*
X401000Y2571400D01*
X402540Y2571100D01*
X403820Y2570220D01*
X404700Y2568920D01*
X405000Y2567400D01*
X405000Y2525000D01*
X448300Y2525000D01*
X448080Y2527460D01*
X446800Y2533320D01*
X444799Y2538960D01*
X442140Y2544320D01*
X438820Y2549320D01*
X434940Y2553880D01*
X430500Y2557900D01*
X425620Y2561360D01*
X420340Y2564200D01*
X414900Y2566300D01*
X413540Y2567200D01*
X412620Y2568560D01*
X412340Y2570160D01*
X412720Y2571740D01*
X413720Y2573039D01*
X415140Y2573860D01*
X417580Y2574620D01*
X423020Y2577140D01*
X428120Y2580280D01*
X432780Y2584040D01*
X436960Y2588340D01*
X440560Y2593120D01*
X443260Y2597799D01*
X444159Y2598860D01*
X445360Y2599560D01*
X446719Y2599800D01*
X913280Y2599800D01*
X914640Y2599560D01*
X915840Y2598860D01*
X916740Y2597799D01*
X919440Y2593120D01*
X923040Y2588340D01*
X927220Y2584040D01*
X931880Y2580280D01*
X936979Y2577140D01*
X942420Y2574620D01*
X944860Y2573860D01*
X946280Y2573039D01*
X947280Y2571740D01*
X947660Y2570160D01*
X947380Y2568560D01*
X946460Y2567200D01*
X945100Y2566300D01*
X939659Y2564200D01*
X934380Y2561360D01*
X929500Y2557900D01*
X925060Y2553880D01*
X921180Y2549320D01*
X917860Y2544320D01*
X915200Y2538960D01*
X913199Y2533320D01*
X911919Y2527460D01*
X911700Y2525000D01*
X955000Y2525000D01*
X955000Y2567400D01*
X955300Y2568920D01*
X956180Y2570220D01*
X957460Y2571100D01*
X959000Y2571400D01*
X961000Y2571400D01*
X962540Y2571100D01*
X963820Y2570220D01*
X964700Y2568920D01*
X965000Y2567400D01*
X965000Y2525000D01*
X1008300Y2525000D01*
X1008080Y2527460D01*
X1006800Y2533320D01*
X1004800Y2538960D01*
X1002140Y2544320D01*
X998820Y2549320D01*
X994940Y2553880D01*
X990500Y2557900D01*
X985620Y2561360D01*
X980340Y2564200D01*
X974900Y2566300D01*
X973540Y2567200D01*
X972620Y2568560D01*
X972340Y2570160D01*
X972720Y2571740D01*
X973720Y2573039D01*
X975140Y2573860D01*
X977580Y2574620D01*
X983020Y2577140D01*
X988120Y2580280D01*
X992780Y2584040D01*
X996960Y2588340D01*
X1000560Y2593120D01*
X1003259Y2597799D01*
X1004160Y2598860D01*
X1005360Y2599560D01*
X1006720Y2599800D01*
X1110320Y2599800D01*
X1111720Y2599560D01*
X1112940Y2598820D01*
X1113840Y2597720D01*
X1114760Y2596040D01*
X1118060Y2591500D01*
X1121900Y2587400D01*
X1126240Y2583820D01*
X1130980Y2580820D01*
X1136060Y2578420D01*
X1141400Y2576680D01*
X1146920Y2575640D01*
X1152520Y2575280D01*
X1158120Y2575640D01*
X1163640Y2576680D01*
X1168980Y2578420D01*
X1174060Y2580820D01*
X1178800Y2583820D01*
X1183140Y2587400D01*
X1186980Y2591500D01*
X1190280Y2596040D01*
X1192980Y2600960D01*
X1195060Y2606180D01*
X1196440Y2611620D01*
X1197160Y2617200D01*
X1197160Y2622799D01*
X1196440Y2628380D01*
X1195060Y2633820D01*
X1192980Y2639040D01*
X1190280Y2643960D01*
X1186980Y2648500D01*
X1183140Y2652600D01*
X1178800Y2656180D01*
X1174060Y2659180D01*
X1168980Y2661580D01*
X1163640Y2663320D01*
X1158120Y2664360D01*
X1152520Y2664720D01*
X1146920Y2664360D01*
X1141400Y2663320D01*
X1136060Y2661580D01*
X1130980Y2659180D01*
X1126240Y2656180D01*
X1121900Y2652600D01*
X1118060Y2648500D01*
X1114760Y2643960D01*
X1113840Y2642280D01*
X1112940Y2641180D01*
X1111720Y2640460D01*
X1110320Y2640200D01*
X1006680Y2640200D01*
X1005220Y2640480D01*
X1003980Y2641240D01*
X1003080Y2642420D01*
X1002140Y2644320D01*
X998820Y2649320D01*
X994940Y2653880D01*
X990500Y2657900D01*
X985620Y2661360D01*
X980340Y2664200D01*
X974900Y2666300D01*
X973540Y2667200D01*
X972620Y2668560D01*
X972340Y2670160D01*
X972720Y2671740D01*
X973720Y2673039D01*
X975140Y2673860D01*
X977580Y2674620D01*
X983020Y2677140D01*
X988120Y2680280D01*
X992780Y2684040D01*
X996960Y2688340D01*
X1000560Y2693120D01*
X1003259Y2697799D01*
X1004160Y2698860D01*
X1005360Y2699560D01*
X1006720Y2699800D01*
X1110320Y2699800D01*
X1111720Y2699540D01*
X1112940Y2698820D01*
X1113840Y2697720D01*
X1114760Y2696040D01*
X1118060Y2691500D01*
X1121900Y2687400D01*
X1126240Y2683820D01*
X1130980Y2680820D01*
X1136060Y2678420D01*
X1141400Y2676680D01*
X1146920Y2675640D01*
X1152520Y2675280D01*
X1158120Y2675640D01*
X1163640Y2676680D01*
X1168980Y2678420D01*
X1174060Y2680820D01*
X1178800Y2683820D01*
X1183140Y2687400D01*
X1186980Y2691500D01*
X1190280Y2696040D01*
X1192980Y2700960D01*
X1195060Y2706180D01*
X1196440Y2711620D01*
X1197160Y2717200D01*
X1197160Y2722799D01*
X1196440Y2728380D01*
X1195060Y2733820D01*
X1192980Y2739040D01*
X1190280Y2743960D01*
X1186980Y2748500D01*
X1183140Y2752600D01*
X1178800Y2756180D01*
X1174060Y2759180D01*
X1168980Y2761580D01*
X1163640Y2763320D01*
X1158120Y2764360D01*
X1152520Y2764720D01*
X1146920Y2764360D01*
X1141400Y2763320D01*
X1136060Y2761580D01*
X1130980Y2759180D01*
X1126240Y2756180D01*
X1121900Y2752600D01*
X1118060Y2748500D01*
X1114760Y2743960D01*
X1113840Y2742280D01*
X1112940Y2741180D01*
X1111720Y2740460D01*
X1110320Y2740200D01*
X1006680Y2740200D01*
X1005220Y2740480D01*
X1003980Y2741240D01*
X1003080Y2742420D01*
X1002140Y2744320D01*
X998820Y2749320D01*
X994940Y2753880D01*
X990500Y2757900D01*
X985620Y2761360D01*
X980340Y2764200D01*
X974900Y2766300D01*
X973540Y2767200D01*
X972620Y2768560D01*
X972340Y2770160D01*
X972720Y2771740D01*
X973720Y2773039D01*
X975140Y2773860D01*
X977580Y2774620D01*
X983020Y2777140D01*
X988120Y2780280D01*
X992780Y2784040D01*
X996960Y2788340D01*
X1000560Y2793120D01*
X1003259Y2797799D01*
X1004160Y2798860D01*
X1005360Y2799560D01*
X1006720Y2799800D01*
X1110320Y2799800D01*
X1111720Y2799560D01*
X1112940Y2798820D01*
X1113840Y2797720D01*
X1114760Y2796040D01*
X1118060Y2791500D01*
X1121900Y2787400D01*
X1126240Y2783820D01*
X1130980Y2780820D01*
X1136060Y2778420D01*
X1141400Y2776680D01*
X1146920Y2775640D01*
X1152520Y2775280D01*
X1158120Y2775640D01*
X1163640Y2776680D01*
X1168980Y2778420D01*
X1174060Y2780820D01*
X1178800Y2783820D01*
X1183140Y2787400D01*
X1186980Y2791500D01*
X1190280Y2796040D01*
X1192980Y2800960D01*
X1195060Y2806180D01*
X1196440Y2811620D01*
X1197160Y2817200D01*
X1197160Y2822799D01*
X1196440Y2828380D01*
X1195060Y2833820D01*
X1192980Y2839040D01*
X1190280Y2843960D01*
X1186980Y2848500D01*
X1183140Y2852600D01*
X1178800Y2856180D01*
X1174060Y2859180D01*
X1168980Y2861580D01*
X1163640Y2863320D01*
X1158120Y2864360D01*
X1152520Y2864720D01*
X1146920Y2864360D01*
X1141400Y2863320D01*
X1136060Y2861580D01*
X1130980Y2859180D01*
X1126240Y2856180D01*
X1121900Y2852600D01*
X1118060Y2848500D01*
X1114760Y2843960D01*
X1113840Y2842280D01*
X1112940Y2841180D01*
X1111720Y2840460D01*
X1110320Y2840200D01*
X1006680Y2840200D01*
X1005220Y2840480D01*
X1003980Y2841240D01*
X1003080Y2842420D01*
X1002140Y2844320D01*
X998820Y2849320D01*
X994940Y2853880D01*
X990500Y2857900D01*
X985620Y2861360D01*
X980340Y2864200D01*
X974900Y2866300D01*
X973540Y2867200D01*
X972620Y2868560D01*
X972340Y2870160D01*
X972720Y2871740D01*
X973720Y2873039D01*
X975140Y2873860D01*
X977580Y2874620D01*
X983020Y2877140D01*
X988120Y2880280D01*
X992780Y2884040D01*
X996960Y2888340D01*
X1000560Y2893120D01*
X1003259Y2897799D01*
X1004160Y2898860D01*
X1005360Y2899560D01*
X1006720Y2899800D01*
X1110320Y2899800D01*
X1111720Y2899540D01*
X1112940Y2898820D01*
X1113840Y2897720D01*
X1114760Y2896040D01*
X1118060Y2891500D01*
X1121900Y2887400D01*
X1126240Y2883820D01*
X1130980Y2880820D01*
X1136060Y2878420D01*
X1141400Y2876680D01*
X1146920Y2875640D01*
X1152520Y2875280D01*
X1158120Y2875640D01*
X1163640Y2876680D01*
X1168980Y2878420D01*
X1174060Y2880820D01*
X1178800Y2883820D01*
X1183140Y2887400D01*
X1186980Y2891500D01*
X1190280Y2896040D01*
X1192980Y2900960D01*
X1195060Y2906180D01*
X1196440Y2911620D01*
X1197160Y2917200D01*
X1197160Y2922799D01*
X1196440Y2928380D01*
X1195060Y2933820D01*
X1192980Y2939040D01*
X1190280Y2943960D01*
X1186980Y2948500D01*
X1183140Y2952600D01*
X1178800Y2956180D01*
X1174060Y2959180D01*
X1168980Y2961580D01*
X1163640Y2963320D01*
X1158120Y2964360D01*
X1152520Y2964720D01*
X1146920Y2964360D01*
X1141400Y2963320D01*
X1136060Y2961580D01*
X1130980Y2959180D01*
X1126240Y2956180D01*
X1121900Y2952600D01*
X1118060Y2948500D01*
X1114760Y2943960D01*
X1113840Y2942280D01*
X1112940Y2941180D01*
X1111720Y2940460D01*
X1110320Y2940200D01*
X1006680Y2940200D01*
X1005220Y2940480D01*
X1003980Y2941240D01*
X1003080Y2942420D01*
X1002140Y2944320D01*
X998820Y2949320D01*
X994940Y2953880D01*
X990500Y2957900D01*
X985620Y2961360D01*
X980340Y2964200D01*
X974900Y2966300D01*
X973540Y2967200D01*
X972620Y2968560D01*
X972340Y2970160D01*
X972720Y2971740D01*
X973720Y2973039D01*
X975140Y2973860D01*
X977580Y2974620D01*
X983020Y2977140D01*
X988120Y2980280D01*
X992780Y2984040D01*
X996960Y2988340D01*
X1000560Y2993120D01*
X1003259Y2997799D01*
X1004160Y2998860D01*
X1005360Y2999560D01*
X1006720Y2999800D01*
X1110320Y2999800D01*
X1111720Y2999560D01*
X1112940Y2998820D01*
X1113840Y2997720D01*
X1114760Y2996040D01*
X1118060Y2991500D01*
X1121900Y2987400D01*
X1126240Y2983820D01*
X1130980Y2980820D01*
X1136060Y2978420D01*
X1141400Y2976680D01*
X1146920Y2975640D01*
X1152520Y2975280D01*
X1158120Y2975640D01*
X1163640Y2976680D01*
X1168980Y2978420D01*
X1174060Y2980820D01*
X1178800Y2983820D01*
X1183140Y2987400D01*
X1186980Y2991500D01*
X1190280Y2996040D01*
X1192980Y3000960D01*
X1195060Y3006180D01*
X1196440Y3011620D01*
X1197160Y3017200D01*
X1197160Y3022799D01*
X1196440Y3028380D01*
X1195060Y3033820D01*
X1192980Y3039040D01*
X1190280Y3043960D01*
X1186980Y3048500D01*
X1183140Y3052600D01*
X1178800Y3056180D01*
X1174060Y3059180D01*
X1168980Y3061580D01*
X1163640Y3063320D01*
X1158120Y3064360D01*
X1152520Y3064720D01*
X1146920Y3064360D01*
X1141400Y3063320D01*
X1136060Y3061580D01*
X1130980Y3059180D01*
X1126240Y3056180D01*
X1121900Y3052600D01*
X1118060Y3048500D01*
X1114760Y3043960D01*
X1113840Y3042280D01*
X1112940Y3041180D01*
X1111720Y3040460D01*
X1110320Y3040200D01*
X1006680Y3040200D01*
X1005220Y3040480D01*
X1003980Y3041240D01*
X1003080Y3042420D01*
X1002140Y3044320D01*
X998820Y3049320D01*
X994940Y3053880D01*
X990500Y3057900D01*
X985620Y3061360D01*
X981060Y3063820D01*
X979740Y3064960D01*
X979040Y3066560D01*
X979080Y3068320D01*
X979860Y3069880D01*
X981240Y3070960D01*
X982960Y3071340D01*
X990800Y3071340D01*
X993960Y3071640D01*
X996800Y3072520D01*
X999440Y3073920D01*
X1001740Y3075800D01*
X1003620Y3078100D01*
X1005020Y3080720D01*
X1005879Y3083580D01*
X1006200Y3086740D01*
X1006200Y3095800D01*
X1006500Y3097340D01*
X1007380Y3098620D01*
X1008660Y3099500D01*
X1010200Y3099800D01*
X1103800Y3099800D01*
X1105320Y3099500D01*
X1106620Y3098620D01*
X1107480Y3097340D01*
X1107800Y3095800D01*
X1107800Y3090659D01*
X1108100Y3087520D01*
X1108960Y3084660D01*
X1110380Y3082040D01*
X1112260Y3079740D01*
X1114560Y3077860D01*
X1117180Y3076440D01*
X1120040Y3075580D01*
X1123180Y3075280D01*
X1181860Y3075280D01*
X1185000Y3075580D01*
X1187860Y3076440D01*
X1190480Y3077860D01*
X1192780Y3079740D01*
X1194660Y3082040D01*
X1196080Y3084660D01*
X1196940Y3087520D01*
X1197240Y3090659D01*
X1197240Y3149340D01*
X1196940Y3152480D01*
X1196080Y3155340D01*
X1194660Y3157960D01*
X1192780Y3160260D01*
X1190480Y3162140D01*
X1187860Y3163560D01*
X1185000Y3164420D01*
X1181860Y3164720D01*
X1123180Y3164720D01*
X1120040Y3164420D01*
X1117180Y3163560D01*
X1114560Y3162140D01*
X1112260Y3160260D01*
X1110380Y3157960D01*
X1108960Y3155340D01*
X1108100Y3152480D01*
X1107800Y3149340D01*
X1107800Y3144200D01*
X1107480Y3142660D01*
X1106620Y3141380D01*
X1105320Y3140500D01*
X1103800Y3140200D01*
X1010200Y3140200D01*
X1008660Y3140500D01*
X1007380Y3141380D01*
X1006500Y3142660D01*
X1006200Y3144200D01*
X1006200Y3153260D01*
X1005879Y3156420D01*
X1005020Y3159280D01*
X1003620Y3161900D01*
X1001740Y3164200D01*
X999440Y3166080D01*
X996800Y3167480D01*
X993960Y3168360D01*
X990800Y3168660D01*
X929200Y3168660D01*
X926040Y3168360D01*
X923199Y3167480D01*
X920560Y3166080D01*
X918259Y3164200D01*
X916380Y3161900D01*
X914980Y3159280D01*
X914120Y3156420D01*
X913800Y3153260D01*
X913800Y3144200D01*
X913500Y3142660D01*
X912620Y3141380D01*
X911340Y3140500D01*
X909800Y3140200D01*
X450200Y3140200D01*
X448660Y3140500D01*
X447380Y3141380D01*
X446500Y3142660D01*
X446200Y3144200D01*
X446200Y3153260D01*
X445880Y3156420D01*
X445020Y3159280D01*
X443620Y3161900D01*
X441740Y3164200D01*
X439440Y3166080D01*
X436800Y3167480D01*
X433960Y3168360D01*
X430800Y3168660D01*
X424200Y3168660D01*
X422660Y3168960D01*
X421380Y3169840D01*
X420500Y3171139D01*
X420200Y3172660D01*
X420200Y3273279D01*
X420439Y3274640D01*
X421140Y3275840D01*
X422200Y3276740D01*
X426880Y3279440D01*
X431659Y3283039D01*
X435959Y3287220D01*
X439720Y3291880D01*
X442860Y3296980D01*
X445379Y3302420D01*
X446140Y3304860D01*
X446960Y3306280D01*
X448260Y3307280D01*
X449840Y3307660D01*
X451440Y3307380D01*
X452800Y3306460D01*
X453700Y3305100D01*
X455800Y3299660D01*
X458640Y3294380D01*
X462100Y3289500D01*
X466120Y3285059D01*
X470680Y3281180D01*
X475680Y3277860D01*
X481040Y3275200D01*
X486680Y3273200D01*
X492540Y3271920D01*
X498500Y3271360D01*
X504480Y3271560D01*
X510400Y3272460D01*
X516180Y3274100D01*
X521680Y3276440D01*
X526880Y3279440D01*
X531660Y3283039D01*
X535960Y3287220D01*
X539720Y3291880D01*
X542860Y3296980D01*
X545380Y3302420D01*
X546140Y3304860D01*
X546960Y3306280D01*
X548260Y3307280D01*
X549840Y3307660D01*
X551440Y3307380D01*
X552800Y3306460D01*
X553700Y3305100D01*
X555800Y3299660D01*
X558640Y3294380D01*
X562100Y3289500D01*
X566120Y3285059D01*
X570680Y3281180D01*
X575680Y3277860D01*
X581040Y3275200D01*
X586680Y3273200D01*
X592540Y3271920D01*
X598500Y3271360D01*
X604480Y3271560D01*
X610400Y3272460D01*
X616180Y3274100D01*
X621680Y3276440D01*
X626880Y3279440D01*
X631660Y3283039D01*
X635960Y3287220D01*
X639720Y3291880D01*
X642860Y3296980D01*
X645380Y3302420D01*
X647180Y3308140D01*
X648280Y3314020D01*
X648660Y3320000D01*
X648280Y3325980D01*
X647180Y3331860D01*
X645380Y3337580D01*
X642860Y3343020D01*
X639720Y3348120D01*
X635960Y3352780D01*
X631660Y3356960D01*
X626880Y3360560D01*
X621680Y3363560D01*
X616180Y3365899D01*
X615260Y3366160D01*
X613740Y3366960D01*
X612720Y3368320D01*
X612340Y3370000D01*
X612720Y3371680D01*
X613740Y3373039D01*
X615260Y3373840D01*
X616180Y3374100D01*
X621680Y3376440D01*
X626880Y3379440D01*
X631660Y3383039D01*
X635960Y3387220D01*
X639720Y3391880D01*
X642860Y3396980D01*
X645380Y3402420D01*
X647180Y3408140D01*
X648280Y3414020D01*
X648660Y3420000D01*
X648280Y3425980D01*
X647180Y3431860D01*
X645380Y3437580D01*
X642860Y3443020D01*
X639720Y3448120D01*
X635960Y3452780D01*
X631660Y3456960D01*
X626880Y3460560D01*
X621680Y3463560D01*
X616180Y3465899D01*
X610400Y3467540D01*
X604480Y3468440D01*
X598500Y3468639D01*
X592540Y3468080D01*
X586680Y3466800D01*
X581040Y3464800D01*
X575680Y3462140D01*
X570680Y3458820D01*
X566120Y3454940D01*
X562100Y3450500D01*
X558640Y3445620D01*
X555800Y3440340D01*
X553700Y3434900D01*
X552800Y3433540D01*
X551440Y3432620D01*
X549840Y3432340D01*
X548260Y3432720D01*
X546960Y3433720D01*
X546140Y3435140D01*
X545380Y3437580D01*
X542860Y3443020D01*
X539720Y3448120D01*
X535960Y3452780D01*
X531660Y3456960D01*
X526880Y3460560D01*
X521680Y3463560D01*
X516180Y3465899D01*
X510400Y3467540D01*
X504480Y3468440D01*
X498500Y3468639D01*
X492540Y3468080D01*
X486680Y3466800D01*
X481040Y3464800D01*
X475680Y3462140D01*
X470680Y3458820D01*
X466120Y3454940D01*
X462100Y3450500D01*
X458640Y3445620D01*
X455800Y3440340D01*
X453700Y3434900D01*
X452800Y3433540D01*
X451440Y3432620D01*
X449840Y3432340D01*
X448260Y3432720D01*
X446960Y3433720D01*
X446140Y3435140D01*
X445379Y3437580D01*
X442860Y3443020D01*
X439720Y3448120D01*
X435959Y3452780D01*
X431659Y3456960D01*
X426880Y3460560D01*
X421680Y3463560D01*
X416180Y3465899D01*
X410400Y3467540D01*
X404480Y3468440D01*
X398500Y3468639D01*
X392540Y3468080D01*
X386680Y3466800D01*
X381040Y3464800D01*
X375680Y3462140D01*
X370680Y3458820D01*
X366120Y3454940D01*
X362100Y3450500D01*
X358640Y3445620D01*
X355800Y3440340D01*
X353700Y3434900D01*
X352800Y3433540D01*
X351440Y3432620D01*
X349840Y3432340D01*
X348260Y3432720D01*
X346960Y3433720D01*
X346140Y3435140D01*
X345379Y3437580D01*
X342860Y3443020D01*
X339720Y3448120D01*
X335959Y3452780D01*
X331659Y3456960D01*
X326880Y3460560D01*
X321680Y3463560D01*
X316180Y3465899D01*
X310400Y3467540D01*
X304480Y3468440D01*
X300800Y3468560D01*
X299300Y3468900D01*
X298040Y3469800D01*
X297200Y3471080D01*
X296920Y3472600D01*
X297240Y3474120D01*
X298100Y3475380D01*
X436340Y3613620D01*
X437640Y3614500D01*
X439159Y3614800D01*
X487360Y3614800D01*
X488480Y3614640D01*
X489500Y3614180D01*
X491840Y3612820D01*
X496019Y3611160D01*
X499460Y3610320D01*
X500420Y3610160D01*
X503940Y3609820D01*
X720200Y3609800D01*
X721840Y3609440D01*
X723199Y3608440D01*
X724020Y3606960D01*
X724720Y3604660D01*
X726120Y3602040D01*
X728000Y3599740D01*
X730300Y3597860D01*
X732940Y3596440D01*
X735780Y3595580D01*
X738940Y3595280D01*
X791100Y3595280D01*
X794260Y3595580D01*
X797099Y3596440D01*
X799740Y3597860D01*
X802039Y3599740D01*
X803920Y3602040D01*
X805320Y3604660D01*
X806180Y3607460D01*
X807000Y3608940D01*
X808340Y3609940D01*
X810000Y3610299D01*
X811660Y3609940D01*
X813000Y3608940D01*
X813820Y3607460D01*
X814680Y3604660D01*
X816080Y3602040D01*
X817960Y3599740D01*
X820260Y3597860D01*
X822900Y3596440D01*
X825740Y3595580D01*
X828900Y3595280D01*
X849980Y3595280D01*
X849980Y3635000D01*
X810500Y3635000D01*
X808960Y3635299D01*
X807680Y3636180D01*
X806800Y3637460D01*
X806500Y3639000D01*
X806500Y3641000D01*
X806800Y3642540D01*
X807680Y3643820D01*
X808960Y3644700D01*
X810500Y3645000D01*
X849980Y3645000D01*
X849980Y3684720D01*
X828900Y3684720D01*
X825740Y3684420D01*
X822900Y3683560D01*
X820260Y3682140D01*
X817960Y3680260D01*
X816080Y3677960D01*
X814680Y3675340D01*
X813820Y3672540D01*
X813000Y3671060D01*
X811660Y3670059D01*
X810000Y3669700D01*
X808340Y3670059D01*
X807000Y3671060D01*
X806180Y3672540D01*
X805320Y3675340D01*
X803920Y3677960D01*
X802039Y3680260D01*
X799740Y3682140D01*
X797099Y3683560D01*
X794260Y3684420D01*
X791100Y3684720D01*
X738940Y3684720D01*
X735780Y3684420D01*
X732940Y3683560D01*
X730300Y3682140D01*
X728000Y3680260D01*
X726120Y3677960D01*
X724720Y3675340D01*
X724020Y3673039D01*
X723199Y3671560D01*
X721840Y3670560D01*
X720200Y3670200D01*
X517640Y3670200D01*
X516520Y3670360D01*
X515500Y3670820D01*
X513160Y3672180D01*
X508980Y3673840D01*
X505540Y3674680D01*
X504580Y3674840D01*
X501060Y3675179D01*
X423940Y3675179D01*
X420420Y3674840D01*
X419460Y3674680D01*
X416019Y3673840D01*
X411840Y3672180D01*
X410959Y3671740D01*
X407920Y3669900D01*
X407120Y3669340D01*
X404400Y3667080D01*
X206920Y3469640D01*
X205580Y3468740D01*
X203980Y3468460D01*
X198500Y3468639D01*
X192540Y3468080D01*
X186680Y3466800D01*
X181040Y3464800D01*
X175680Y3462140D01*
X170680Y3458820D01*
X166119Y3454940D01*
X162100Y3450500D01*
X158640Y3445620D01*
X155800Y3440340D01*
X153640Y3434760D01*
X152180Y3428940D01*
X151440Y3423000D01*
X151440Y3417000D01*
X152180Y3411060D01*
X153640Y3405240D01*
X155800Y3399660D01*
X158640Y3394380D01*
X162100Y3389500D01*
X166119Y3385059D01*
X170680Y3381180D01*
X175680Y3377860D01*
X178920Y3376240D01*
X180300Y3375120D01*
X181040Y3373519D01*
X181020Y3371740D01*
X180260Y3370160D01*
X178860Y3369060D01*
X177140Y3368660D01*
X166740Y3368660D01*
X163580Y3368360D01*
X160720Y3367480D01*
X158100Y3366080D01*
X155800Y3364200D01*
X153920Y3361900D01*
X152520Y3359280D01*
X151640Y3356420D01*
X151340Y3353260D01*
X151340Y3286740D01*
X151640Y3283580D01*
X152520Y3280720D01*
X153920Y3278100D01*
X155800Y3275800D01*
X158100Y3273920D01*
X160720Y3272520D01*
X163580Y3271640D01*
X166740Y3271340D01*
X233260Y3271340D01*
X236420Y3271640D01*
X239280Y3272520D01*
X241900Y3273920D01*
X244200Y3275800D01*
X246080Y3278100D01*
X247480Y3280720D01*
X248359Y3283580D01*
X248660Y3286740D01*
X248660Y3297040D01*
X249040Y3298759D01*
X250120Y3300140D01*
X251680Y3300920D01*
X253440Y3300960D01*
X255040Y3300260D01*
X256180Y3298940D01*
X258640Y3294380D01*
X262100Y3289500D01*
X266120Y3285059D01*
X270680Y3281180D01*
X275680Y3277860D01*
X281040Y3275200D01*
X286680Y3273200D01*
X292540Y3271920D01*
X298500Y3271360D01*
X304480Y3271560D01*
X310400Y3272460D01*
X316180Y3274100D01*
X321680Y3276440D01*
X326880Y3279440D01*
X331659Y3283039D01*
X335959Y3287220D01*
X339720Y3291880D01*
X342860Y3296980D01*
X345379Y3302420D01*
X346140Y3304860D01*
X346960Y3306280D01*
X348260Y3307280D01*
X349840Y3307660D01*
X351440Y3307380D01*
X352800Y3306460D01*
X353700Y3305100D01*
X355800Y3299660D01*
X358640Y3294380D01*
X362100Y3289500D01*
X366120Y3285059D01*
X370680Y3281180D01*
X375680Y3277860D01*
X377580Y3276920D01*
X378760Y3276019D01*
X379520Y3274780D01*
X379799Y3273320D01*
X379799Y3172660D01*
X379500Y3171139D01*
X378620Y3169840D01*
X377340Y3168960D01*
X375800Y3168660D01*
X369200Y3168660D01*
X366040Y3168360D01*
X363200Y3167480D01*
X360560Y3166080D01*
X358260Y3164200D01*
X356380Y3161900D01*
X354980Y3159280D01*
X354120Y3156420D01*
X353800Y3153260D01*
X353800Y3144200D01*
X353500Y3142679D01*
X352620Y3141380D01*
X351340Y3140500D01*
X349799Y3140200D01*
X250200Y3140200D01*
X248660Y3140500D01*
X247380Y3141380D01*
X246500Y3142679D01*
X246200Y3144200D01*
X246200Y3153260D01*
X245880Y3156420D01*
X245020Y3159280D01*
X243619Y3161900D01*
X241740Y3164200D01*
X239440Y3166080D01*
X236800Y3167480D01*
X233960Y3168360D01*
X230799Y3168660D01*
X169200Y3168660D01*
X166040Y3168360D01*
X163200Y3167480D01*
X160560Y3166080D01*
X158260Y3164200D01*
X156380Y3161900D01*
X154980Y3159280D01*
X154120Y3156420D01*
X153800Y3153260D01*
X153800Y3086740D01*
X154120Y3083580D01*
X154980Y3080720D01*
X156380Y3078100D01*
X158260Y3075800D01*
X160560Y3073920D01*
X163200Y3072520D01*
X166040Y3071640D01*
X169200Y3071340D01*
X177040Y3071340D01*
X178760Y3070960D01*
X180140Y3069880D01*
X180920Y3068320D01*
X180960Y3066560D01*
X180260Y3064960D01*
X178939Y3063820D01*
X174380Y3061360D01*
X169500Y3057900D01*
X165060Y3053880D01*
X161180Y3049320D01*
X157860Y3044320D01*
X155200Y3038960D01*
X153200Y3033320D01*
X151920Y3027460D01*
X151360Y3021500D01*
X151560Y3015520D01*
X152460Y3009600D01*
X154100Y3003820D01*
X156440Y2998320D01*
X159440Y2993120D01*
X163039Y2988340D01*
X167220Y2984040D01*
X171880Y2980280D01*
X176980Y2977140D01*
X182420Y2974620D01*
X184860Y2973860D01*
X186280Y2973039D01*
X187280Y2971740D01*
X187659Y2970160D01*
X187380Y2968560D01*
X186460Y2967200D01*
X185100Y2966300D01*
X179660Y2964200D01*
X174380Y2961360D01*
X169500Y2957900D01*
X165060Y2953880D01*
X161180Y2949320D01*
X157860Y2944320D01*
X155200Y2938960D01*
X153200Y2933320D01*
X151920Y2927460D01*
X151360Y2921500D01*
X151560Y2915520D01*
X152460Y2909600D01*
X154100Y2903820D01*
X156440Y2898320D01*
X159440Y2893120D01*
X163039Y2888340D01*
X167220Y2884040D01*
X171880Y2880280D01*
X176980Y2877140D01*
X182420Y2874620D01*
X184860Y2873860D01*
X186280Y2873039D01*
X187280Y2871740D01*
X187659Y2870160D01*
X187380Y2868560D01*
X186460Y2867200D01*
X185100Y2866300D01*
X179660Y2864200D01*
X174380Y2861360D01*
X169500Y2857900D01*
X165060Y2853880D01*
X161180Y2849320D01*
X157860Y2844320D01*
X155200Y2838960D01*
X153200Y2833320D01*
X151920Y2827460D01*
X151360Y2821500D01*
X151560Y2815520D01*
X152460Y2809600D01*
X154100Y2803820D01*
X156440Y2798320D01*
X159440Y2793120D01*
X163039Y2788340D01*
X167220Y2784040D01*
X171880Y2780280D01*
X176980Y2777140D01*
X182420Y2774620D01*
X184860Y2773860D01*
X186280Y2773039D01*
X187280Y2771740D01*
X187659Y2770160D01*
X187380Y2768560D01*
X186460Y2767200D01*
X185100Y2766300D01*
X179660Y2764200D01*
X174380Y2761360D01*
X169500Y2757900D01*
X165060Y2753880D01*
X161180Y2749320D01*
X157860Y2744320D01*
X155200Y2738960D01*
X153200Y2733320D01*
X151920Y2727460D01*
X151360Y2721500D01*
X151560Y2715520D01*
X152460Y2709600D01*
X154100Y2703820D01*
X156440Y2698320D01*
X159440Y2693120D01*
X163039Y2688340D01*
X167220Y2684040D01*
X171880Y2680280D01*
X176980Y2677140D01*
X182420Y2674620D01*
X184860Y2673860D01*
X186280Y2673039D01*
X187280Y2671740D01*
X187659Y2670160D01*
X187380Y2668560D01*
X186460Y2667200D01*
X185100Y2666300D01*
X179660Y2664200D01*
X174380Y2661360D01*
X169500Y2657900D01*
X165060Y2653880D01*
X161180Y2649320D01*
X157860Y2644320D01*
X155200Y2638960D01*
X153200Y2633320D01*
X151920Y2627460D01*
X151360Y2621500D01*
X151560Y2615520D01*
X152460Y2609600D01*
X154100Y2603820D01*
X156440Y2598320D01*
X159440Y2593120D01*
X163039Y2588340D01*
X167220Y2584040D01*
X171880Y2580280D01*
X176980Y2577140D01*
X182420Y2574620D01*
X184860Y2573860D01*
X186280Y2573039D01*
X187280Y2571740D01*
X187659Y2570160D01*
X187380Y2568560D01*
X186460Y2567200D01*
X185100Y2566300D01*
X179660Y2564200D01*
X174380Y2561360D01*
X169500Y2557900D01*
X165060Y2553880D01*
X161180Y2549320D01*
X157860Y2544320D01*
X155200Y2538960D01*
X153200Y2533320D01*
X151920Y2527460D01*
G37*
G36*
X1630660Y3195280D02*
G01*
X1689340Y3195280D01*
X1692480Y3195580D01*
X1695340Y3196440D01*
X1697960Y3197860D01*
X1700260Y3199740D01*
X1702140Y3202040D01*
X1703560Y3204660D01*
X1704420Y3207520D01*
X1704720Y3210659D01*
X1704720Y3269340D01*
X1704420Y3272480D01*
X1703560Y3275340D01*
X1702140Y3277960D01*
X1700260Y3280260D01*
X1697960Y3282140D01*
X1695340Y3283560D01*
X1692480Y3284420D01*
X1689340Y3284720D01*
X1684199Y3284720D01*
X1682660Y3285040D01*
X1681380Y3285899D01*
X1680500Y3287200D01*
X1680200Y3288720D01*
X1680200Y3371280D01*
X1680500Y3372799D01*
X1681380Y3374100D01*
X1682660Y3374960D01*
X1684199Y3375280D01*
X1689340Y3375280D01*
X1692480Y3375580D01*
X1695340Y3376440D01*
X1697960Y3377860D01*
X1700260Y3379740D01*
X1702140Y3382040D01*
X1703560Y3384660D01*
X1704420Y3387520D01*
X1704720Y3390659D01*
X1704720Y3449340D01*
X1704420Y3452480D01*
X1703560Y3455340D01*
X1702140Y3457960D01*
X1700260Y3460260D01*
X1697960Y3462140D01*
X1695340Y3463560D01*
X1692480Y3464420D01*
X1689340Y3464720D01*
X1630660Y3464720D01*
X1627520Y3464420D01*
X1624660Y3463560D01*
X1622040Y3462140D01*
X1619740Y3460260D01*
X1617860Y3457960D01*
X1616440Y3455340D01*
X1615580Y3452480D01*
X1615280Y3449340D01*
X1615280Y3390659D01*
X1615580Y3387520D01*
X1616440Y3384660D01*
X1617860Y3382040D01*
X1619740Y3379740D01*
X1622040Y3377860D01*
X1624660Y3376440D01*
X1627520Y3375580D01*
X1630660Y3375280D01*
X1635800Y3375280D01*
X1637340Y3374960D01*
X1638620Y3374100D01*
X1639500Y3372799D01*
X1639800Y3371280D01*
X1639800Y3288720D01*
X1639500Y3287200D01*
X1638620Y3285899D01*
X1637340Y3285040D01*
X1635800Y3284720D01*
X1630660Y3284720D01*
X1627520Y3284420D01*
X1624660Y3283560D01*
X1622040Y3282140D01*
X1619740Y3280260D01*
X1617860Y3277960D01*
X1616440Y3275340D01*
X1615580Y3272480D01*
X1615280Y3269340D01*
X1615280Y3210659D01*
X1615580Y3207520D01*
X1616440Y3204660D01*
X1617860Y3202040D01*
X1619740Y3199740D01*
X1622040Y3197860D01*
X1624660Y3196440D01*
X1627520Y3195580D01*
G37*
G36*
X1457200Y3195360D02*
G01*
X1462800Y3195360D01*
X1468380Y3196080D01*
X1473820Y3197460D01*
X1479040Y3199540D01*
X1483959Y3202240D01*
X1488500Y3205539D01*
X1492600Y3209380D01*
X1496180Y3213720D01*
X1499180Y3218460D01*
X1501579Y3223540D01*
X1503320Y3228880D01*
X1504360Y3234400D01*
X1504720Y3240000D01*
X1504360Y3245600D01*
X1503320Y3251120D01*
X1501579Y3256460D01*
X1499180Y3261540D01*
X1496180Y3266280D01*
X1492600Y3270620D01*
X1488500Y3274460D01*
X1483959Y3277760D01*
X1482280Y3278680D01*
X1481180Y3279580D01*
X1480460Y3280800D01*
X1480200Y3282200D01*
X1480200Y3377799D01*
X1480460Y3379200D01*
X1481180Y3380419D01*
X1482280Y3381320D01*
X1483959Y3382240D01*
X1488500Y3385539D01*
X1492600Y3389380D01*
X1496180Y3393720D01*
X1499180Y3398460D01*
X1501579Y3403540D01*
X1503320Y3408880D01*
X1504360Y3414400D01*
X1504720Y3420000D01*
X1504360Y3425600D01*
X1503320Y3431120D01*
X1501579Y3436460D01*
X1499180Y3441540D01*
X1496180Y3446280D01*
X1492600Y3450620D01*
X1488500Y3454460D01*
X1483959Y3457760D01*
X1479040Y3460460D01*
X1473820Y3462540D01*
X1468380Y3463920D01*
X1462800Y3464640D01*
X1457200Y3464640D01*
X1451620Y3463920D01*
X1446180Y3462540D01*
X1440960Y3460460D01*
X1436040Y3457760D01*
X1431500Y3454460D01*
X1427400Y3450620D01*
X1423820Y3446280D01*
X1420820Y3441540D01*
X1418420Y3436460D01*
X1416680Y3431120D01*
X1415640Y3425600D01*
X1415280Y3420000D01*
X1415640Y3414400D01*
X1416680Y3408880D01*
X1418420Y3403540D01*
X1420820Y3398460D01*
X1423820Y3393720D01*
X1427400Y3389380D01*
X1431500Y3385539D01*
X1436040Y3382240D01*
X1437720Y3381320D01*
X1438820Y3380419D01*
X1439540Y3379200D01*
X1439800Y3377799D01*
X1439800Y3282200D01*
X1439540Y3280800D01*
X1438820Y3279580D01*
X1437720Y3278680D01*
X1436040Y3277760D01*
X1431500Y3274460D01*
X1427400Y3270620D01*
X1423820Y3266280D01*
X1420820Y3261540D01*
X1418420Y3256460D01*
X1416680Y3251120D01*
X1415640Y3245600D01*
X1415280Y3240000D01*
X1415640Y3234400D01*
X1416680Y3228880D01*
X1418420Y3223540D01*
X1420820Y3218460D01*
X1423820Y3213720D01*
X1427400Y3209380D01*
X1431500Y3205539D01*
X1436040Y3202240D01*
X1440960Y3199540D01*
X1446180Y3197460D01*
X1451620Y3196080D01*
G37*
G36*
X1057200Y3195360D02*
G01*
X1062800Y3195360D01*
X1068380Y3196080D01*
X1073820Y3197460D01*
X1079040Y3199540D01*
X1083960Y3202240D01*
X1088500Y3205539D01*
X1092600Y3209380D01*
X1096180Y3213720D01*
X1099180Y3218460D01*
X1101580Y3223540D01*
X1103320Y3228880D01*
X1104360Y3234400D01*
X1104720Y3240000D01*
X1104360Y3245600D01*
X1103320Y3251120D01*
X1101580Y3256460D01*
X1099180Y3261540D01*
X1096180Y3266280D01*
X1092600Y3270620D01*
X1088500Y3274460D01*
X1083960Y3277760D01*
X1082280Y3278680D01*
X1081180Y3279580D01*
X1080460Y3280800D01*
X1080200Y3282200D01*
X1080200Y3377799D01*
X1080460Y3379200D01*
X1081180Y3380419D01*
X1082280Y3381320D01*
X1083960Y3382240D01*
X1088500Y3385539D01*
X1092600Y3389380D01*
X1096180Y3393720D01*
X1099180Y3398460D01*
X1101580Y3403540D01*
X1103320Y3408880D01*
X1104360Y3414400D01*
X1104720Y3420000D01*
X1104360Y3425600D01*
X1103320Y3431120D01*
X1101580Y3436460D01*
X1099180Y3441540D01*
X1096180Y3446280D01*
X1092600Y3450620D01*
X1088500Y3454460D01*
X1083960Y3457760D01*
X1079040Y3460460D01*
X1073820Y3462540D01*
X1068380Y3463920D01*
X1062800Y3464640D01*
X1057200Y3464640D01*
X1051620Y3463920D01*
X1046180Y3462540D01*
X1040960Y3460460D01*
X1036040Y3457760D01*
X1031500Y3454460D01*
X1027400Y3450620D01*
X1023820Y3446280D01*
X1020819Y3441540D01*
X1018420Y3436460D01*
X1016680Y3431120D01*
X1015639Y3425600D01*
X1015280Y3420000D01*
X1015639Y3414400D01*
X1016680Y3408880D01*
X1018420Y3403540D01*
X1020819Y3398460D01*
X1023820Y3393720D01*
X1027400Y3389380D01*
X1031500Y3385539D01*
X1036040Y3382240D01*
X1037720Y3381320D01*
X1038820Y3380419D01*
X1039539Y3379200D01*
X1039800Y3377799D01*
X1039800Y3282200D01*
X1039539Y3280800D01*
X1038820Y3279580D01*
X1037720Y3278680D01*
X1036040Y3277760D01*
X1031500Y3274460D01*
X1027400Y3270620D01*
X1023820Y3266280D01*
X1020819Y3261540D01*
X1018420Y3256460D01*
X1016680Y3251120D01*
X1015639Y3245600D01*
X1015280Y3240000D01*
X1015639Y3234400D01*
X1016680Y3228880D01*
X1018420Y3223540D01*
X1020819Y3218460D01*
X1023820Y3213720D01*
X1027400Y3209380D01*
X1031500Y3205539D01*
X1036040Y3202240D01*
X1040960Y3199540D01*
X1046180Y3197460D01*
X1051620Y3196080D01*
G37*
G36*
X1557200Y3195360D02*
G01*
X1562800Y3195360D01*
X1568380Y3196080D01*
X1573820Y3197460D01*
X1579040Y3199540D01*
X1583959Y3202240D01*
X1588500Y3205539D01*
X1592600Y3209380D01*
X1596180Y3213720D01*
X1599180Y3218460D01*
X1601579Y3223540D01*
X1603320Y3228880D01*
X1604360Y3234400D01*
X1604720Y3240000D01*
X1604360Y3245600D01*
X1603320Y3251120D01*
X1601579Y3256460D01*
X1599180Y3261540D01*
X1596180Y3266280D01*
X1592600Y3270620D01*
X1588500Y3274460D01*
X1583959Y3277760D01*
X1582280Y3278680D01*
X1581180Y3279580D01*
X1580460Y3280800D01*
X1580200Y3282200D01*
X1580200Y3377799D01*
X1580460Y3379200D01*
X1581180Y3380419D01*
X1582280Y3381320D01*
X1583959Y3382240D01*
X1588500Y3385539D01*
X1592600Y3389380D01*
X1596180Y3393720D01*
X1599180Y3398460D01*
X1601579Y3403540D01*
X1603320Y3408880D01*
X1604360Y3414400D01*
X1604720Y3420000D01*
X1604360Y3425600D01*
X1603320Y3431120D01*
X1601579Y3436460D01*
X1599180Y3441540D01*
X1596180Y3446280D01*
X1592600Y3450620D01*
X1588500Y3454460D01*
X1583959Y3457760D01*
X1579040Y3460460D01*
X1573820Y3462540D01*
X1568380Y3463920D01*
X1562800Y3464640D01*
X1557200Y3464640D01*
X1551620Y3463920D01*
X1546180Y3462540D01*
X1540960Y3460460D01*
X1536040Y3457760D01*
X1531500Y3454460D01*
X1527400Y3450620D01*
X1523820Y3446280D01*
X1520820Y3441540D01*
X1518420Y3436460D01*
X1516680Y3431120D01*
X1515640Y3425600D01*
X1515280Y3420000D01*
X1515640Y3414400D01*
X1516680Y3408880D01*
X1518420Y3403540D01*
X1520820Y3398460D01*
X1523820Y3393720D01*
X1527400Y3389380D01*
X1531500Y3385539D01*
X1536040Y3382240D01*
X1537720Y3381320D01*
X1538820Y3380419D01*
X1539540Y3379200D01*
X1539800Y3377799D01*
X1539800Y3282200D01*
X1539540Y3280800D01*
X1538820Y3279580D01*
X1537720Y3278680D01*
X1536040Y3277760D01*
X1531500Y3274460D01*
X1527400Y3270620D01*
X1523820Y3266280D01*
X1520820Y3261540D01*
X1518420Y3256460D01*
X1516680Y3251120D01*
X1515640Y3245600D01*
X1515280Y3240000D01*
X1515640Y3234400D01*
X1516680Y3228880D01*
X1518420Y3223540D01*
X1520820Y3218460D01*
X1523820Y3213720D01*
X1527400Y3209380D01*
X1531500Y3205539D01*
X1536040Y3202240D01*
X1540960Y3199540D01*
X1546180Y3197460D01*
X1551620Y3196080D01*
G37*
G36*
X1157200Y3195360D02*
G01*
X1162800Y3195360D01*
X1168380Y3196080D01*
X1173820Y3197460D01*
X1179040Y3199540D01*
X1183960Y3202240D01*
X1188500Y3205539D01*
X1192600Y3209380D01*
X1196180Y3213720D01*
X1199180Y3218460D01*
X1201580Y3223540D01*
X1203320Y3228880D01*
X1204360Y3234400D01*
X1204720Y3240000D01*
X1204360Y3245600D01*
X1203320Y3251120D01*
X1201580Y3256460D01*
X1199180Y3261540D01*
X1196180Y3266280D01*
X1192600Y3270620D01*
X1188500Y3274460D01*
X1183960Y3277760D01*
X1182280Y3278680D01*
X1181180Y3279580D01*
X1180460Y3280800D01*
X1180200Y3282200D01*
X1180200Y3377799D01*
X1180460Y3379200D01*
X1181180Y3380419D01*
X1182280Y3381320D01*
X1183960Y3382240D01*
X1188500Y3385539D01*
X1192600Y3389380D01*
X1196180Y3393720D01*
X1199180Y3398460D01*
X1201580Y3403540D01*
X1203320Y3408880D01*
X1204360Y3414400D01*
X1204720Y3420000D01*
X1204360Y3425600D01*
X1203320Y3431120D01*
X1201580Y3436460D01*
X1199180Y3441540D01*
X1196180Y3446280D01*
X1192600Y3450620D01*
X1188500Y3454460D01*
X1183960Y3457760D01*
X1179040Y3460460D01*
X1173820Y3462540D01*
X1168380Y3463920D01*
X1162800Y3464640D01*
X1157200Y3464640D01*
X1151620Y3463920D01*
X1146180Y3462540D01*
X1140960Y3460460D01*
X1136040Y3457760D01*
X1131500Y3454460D01*
X1127400Y3450620D01*
X1123820Y3446280D01*
X1120820Y3441540D01*
X1118420Y3436460D01*
X1116680Y3431120D01*
X1115640Y3425600D01*
X1115280Y3420000D01*
X1115640Y3414400D01*
X1116680Y3408880D01*
X1118420Y3403540D01*
X1120820Y3398460D01*
X1123820Y3393720D01*
X1127400Y3389380D01*
X1131500Y3385539D01*
X1136040Y3382240D01*
X1137720Y3381320D01*
X1138820Y3380419D01*
X1139540Y3379200D01*
X1139800Y3377799D01*
X1139800Y3282200D01*
X1139540Y3280800D01*
X1138820Y3279580D01*
X1137720Y3278680D01*
X1136040Y3277760D01*
X1131500Y3274460D01*
X1127400Y3270620D01*
X1123820Y3266280D01*
X1120820Y3261540D01*
X1118420Y3256460D01*
X1116680Y3251120D01*
X1115640Y3245600D01*
X1115280Y3240000D01*
X1115640Y3234400D01*
X1116680Y3228880D01*
X1118420Y3223540D01*
X1120820Y3218460D01*
X1123820Y3213720D01*
X1127400Y3209380D01*
X1131500Y3205539D01*
X1136040Y3202240D01*
X1140960Y3199540D01*
X1146180Y3197460D01*
X1151620Y3196080D01*
G37*
G36*
X1357200Y3195360D02*
G01*
X1362800Y3195360D01*
X1368380Y3196080D01*
X1373820Y3197460D01*
X1379040Y3199540D01*
X1383959Y3202240D01*
X1388500Y3205539D01*
X1392600Y3209380D01*
X1396180Y3213720D01*
X1399180Y3218460D01*
X1401579Y3223540D01*
X1403320Y3228880D01*
X1404360Y3234400D01*
X1404720Y3240000D01*
X1404360Y3245600D01*
X1403320Y3251120D01*
X1401579Y3256460D01*
X1399180Y3261540D01*
X1396180Y3266280D01*
X1392600Y3270620D01*
X1388500Y3274460D01*
X1383959Y3277760D01*
X1382280Y3278680D01*
X1381180Y3279580D01*
X1380460Y3280800D01*
X1380200Y3282200D01*
X1380200Y3377799D01*
X1380460Y3379200D01*
X1381180Y3380419D01*
X1382280Y3381320D01*
X1383959Y3382240D01*
X1388500Y3385539D01*
X1392600Y3389380D01*
X1396180Y3393720D01*
X1399180Y3398460D01*
X1401579Y3403540D01*
X1403320Y3408880D01*
X1404360Y3414400D01*
X1404720Y3420000D01*
X1404360Y3425600D01*
X1403320Y3431120D01*
X1401579Y3436460D01*
X1399180Y3441540D01*
X1396180Y3446280D01*
X1392600Y3450620D01*
X1388500Y3454460D01*
X1383959Y3457760D01*
X1379040Y3460460D01*
X1373820Y3462540D01*
X1368380Y3463920D01*
X1362800Y3464640D01*
X1357200Y3464640D01*
X1351620Y3463920D01*
X1346180Y3462540D01*
X1340960Y3460460D01*
X1336040Y3457760D01*
X1331500Y3454460D01*
X1327400Y3450620D01*
X1323820Y3446280D01*
X1320820Y3441540D01*
X1318420Y3436460D01*
X1316680Y3431120D01*
X1315640Y3425600D01*
X1315280Y3420000D01*
X1315640Y3414400D01*
X1316680Y3408880D01*
X1318420Y3403540D01*
X1320820Y3398460D01*
X1323820Y3393720D01*
X1327400Y3389380D01*
X1331500Y3385539D01*
X1336040Y3382240D01*
X1337720Y3381320D01*
X1338820Y3380419D01*
X1339540Y3379200D01*
X1339800Y3377799D01*
X1339800Y3282200D01*
X1339540Y3280800D01*
X1338820Y3279580D01*
X1337720Y3278680D01*
X1336040Y3277760D01*
X1331500Y3274460D01*
X1327400Y3270620D01*
X1323820Y3266280D01*
X1320820Y3261540D01*
X1318420Y3256460D01*
X1316680Y3251120D01*
X1315640Y3245600D01*
X1315280Y3240000D01*
X1315640Y3234400D01*
X1316680Y3228880D01*
X1318420Y3223540D01*
X1320820Y3218460D01*
X1323820Y3213720D01*
X1327400Y3209380D01*
X1331500Y3205539D01*
X1336040Y3202240D01*
X1340960Y3199540D01*
X1346180Y3197460D01*
X1351620Y3196080D01*
G37*
G36*
X1257200Y3195360D02*
G01*
X1262800Y3195360D01*
X1268380Y3196080D01*
X1273820Y3197460D01*
X1279040Y3199540D01*
X1283959Y3202240D01*
X1288500Y3205539D01*
X1292600Y3209380D01*
X1296180Y3213720D01*
X1299180Y3218460D01*
X1301579Y3223540D01*
X1303320Y3228880D01*
X1304360Y3234400D01*
X1304720Y3240000D01*
X1304360Y3245600D01*
X1303320Y3251120D01*
X1301579Y3256460D01*
X1299180Y3261540D01*
X1296180Y3266280D01*
X1292600Y3270620D01*
X1288500Y3274460D01*
X1283959Y3277760D01*
X1282280Y3278680D01*
X1281180Y3279580D01*
X1280460Y3280800D01*
X1280200Y3282200D01*
X1280200Y3377799D01*
X1280460Y3379200D01*
X1281180Y3380419D01*
X1282280Y3381320D01*
X1283959Y3382240D01*
X1288500Y3385539D01*
X1292600Y3389380D01*
X1296180Y3393720D01*
X1299180Y3398460D01*
X1301579Y3403540D01*
X1303320Y3408880D01*
X1304360Y3414400D01*
X1304720Y3420000D01*
X1304360Y3425600D01*
X1303320Y3431120D01*
X1301579Y3436460D01*
X1299180Y3441540D01*
X1296180Y3446280D01*
X1292600Y3450620D01*
X1288500Y3454460D01*
X1283959Y3457760D01*
X1279040Y3460460D01*
X1273820Y3462540D01*
X1268380Y3463920D01*
X1262800Y3464640D01*
X1257200Y3464640D01*
X1251620Y3463920D01*
X1246180Y3462540D01*
X1240960Y3460460D01*
X1236040Y3457760D01*
X1231500Y3454460D01*
X1227400Y3450620D01*
X1223820Y3446280D01*
X1220820Y3441540D01*
X1218420Y3436460D01*
X1216680Y3431120D01*
X1215640Y3425600D01*
X1215280Y3420000D01*
X1215640Y3414400D01*
X1216680Y3408880D01*
X1218420Y3403540D01*
X1220820Y3398460D01*
X1223820Y3393720D01*
X1227400Y3389380D01*
X1231500Y3385539D01*
X1236040Y3382240D01*
X1237720Y3381320D01*
X1238820Y3380419D01*
X1239540Y3379200D01*
X1239800Y3377799D01*
X1239800Y3282200D01*
X1239540Y3280800D01*
X1238820Y3279580D01*
X1237720Y3278680D01*
X1236040Y3277760D01*
X1231500Y3274460D01*
X1227400Y3270620D01*
X1223820Y3266280D01*
X1220820Y3261540D01*
X1218420Y3256460D01*
X1216680Y3251120D01*
X1215640Y3245600D01*
X1215280Y3240000D01*
X1215640Y3234400D01*
X1216680Y3228880D01*
X1218420Y3223540D01*
X1220820Y3218460D01*
X1223820Y3213720D01*
X1227400Y3209380D01*
X1231500Y3205539D01*
X1236040Y3202240D01*
X1240960Y3199540D01*
X1246180Y3197460D01*
X1251620Y3196080D01*
G37*
G36*
X957200Y3195360D02*
G01*
X962800Y3195360D01*
X968379Y3196080D01*
X973820Y3197460D01*
X979040Y3199540D01*
X983960Y3202240D01*
X988500Y3205539D01*
X992600Y3209380D01*
X996180Y3213720D01*
X999180Y3218460D01*
X1001580Y3223540D01*
X1003319Y3228880D01*
X1004360Y3234400D01*
X1004720Y3240000D01*
X1004360Y3245600D01*
X1003319Y3251120D01*
X1001580Y3256460D01*
X999180Y3261540D01*
X996180Y3266280D01*
X992600Y3270620D01*
X988500Y3274460D01*
X983960Y3277760D01*
X982280Y3278680D01*
X981180Y3279580D01*
X980460Y3280800D01*
X980200Y3282200D01*
X980200Y3377799D01*
X980460Y3379200D01*
X981180Y3380419D01*
X982280Y3381320D01*
X983960Y3382240D01*
X988500Y3385539D01*
X992600Y3389380D01*
X996180Y3393720D01*
X999180Y3398460D01*
X1001580Y3403540D01*
X1003319Y3408880D01*
X1004360Y3414400D01*
X1004720Y3420000D01*
X1004360Y3425600D01*
X1003319Y3431120D01*
X1001580Y3436460D01*
X999180Y3441540D01*
X996180Y3446280D01*
X992600Y3450620D01*
X988500Y3454460D01*
X983960Y3457760D01*
X979040Y3460460D01*
X973820Y3462540D01*
X968379Y3463920D01*
X962800Y3464640D01*
X957200Y3464640D01*
X951620Y3463920D01*
X946180Y3462540D01*
X940960Y3460460D01*
X936040Y3457760D01*
X931500Y3454460D01*
X927400Y3450620D01*
X923820Y3446280D01*
X920819Y3441540D01*
X918420Y3436460D01*
X916680Y3431120D01*
X915639Y3425600D01*
X915280Y3420000D01*
X915639Y3414400D01*
X916680Y3408880D01*
X918420Y3403540D01*
X920819Y3398460D01*
X923820Y3393720D01*
X927400Y3389380D01*
X931500Y3385539D01*
X936040Y3382240D01*
X937720Y3381320D01*
X938820Y3380419D01*
X939539Y3379200D01*
X939800Y3377799D01*
X939800Y3282200D01*
X939539Y3280800D01*
X938820Y3279580D01*
X937720Y3278680D01*
X936040Y3277760D01*
X931500Y3274460D01*
X927400Y3270620D01*
X923820Y3266280D01*
X920819Y3261540D01*
X918420Y3256460D01*
X916680Y3251120D01*
X915639Y3245600D01*
X915280Y3240000D01*
X915639Y3234400D01*
X916680Y3228880D01*
X918420Y3223540D01*
X920819Y3218460D01*
X923820Y3213720D01*
X927400Y3209380D01*
X931500Y3205539D01*
X936040Y3202240D01*
X940960Y3199540D01*
X946180Y3197460D01*
X951620Y3196080D01*
G37*
G36*
X2065940Y3221340D02*
G01*
X2132480Y3221340D01*
X2135640Y3221640D01*
X2138480Y3222520D01*
X2141120Y3223920D01*
X2143420Y3225800D01*
X2145300Y3228100D01*
X2146700Y3230720D01*
X2147560Y3233580D01*
X2147880Y3236740D01*
X2147880Y3247040D01*
X2148260Y3248759D01*
X2149340Y3250140D01*
X2150900Y3250920D01*
X2152660Y3250960D01*
X2154260Y3250260D01*
X2155400Y3248940D01*
X2157840Y3244380D01*
X2161300Y3239500D01*
X2165340Y3235059D01*
X2169900Y3231180D01*
X2174880Y3227860D01*
X2180240Y3225200D01*
X2185900Y3223200D01*
X2191760Y3221920D01*
X2197720Y3221360D01*
X2203700Y3221560D01*
X2209620Y3222460D01*
X2215380Y3224100D01*
X2220900Y3226440D01*
X2226100Y3229440D01*
X2230880Y3233039D01*
X2235180Y3237220D01*
X2238920Y3241880D01*
X2242080Y3246980D01*
X2244580Y3252420D01*
X2245360Y3254860D01*
X2246160Y3256280D01*
X2247460Y3257280D01*
X2249060Y3257660D01*
X2250660Y3257380D01*
X2252020Y3256460D01*
X2252900Y3255100D01*
X2255020Y3249660D01*
X2257840Y3244380D01*
X2261300Y3239500D01*
X2265340Y3235059D01*
X2269900Y3231180D01*
X2274880Y3227860D01*
X2280240Y3225200D01*
X2285900Y3223200D01*
X2291760Y3221920D01*
X2297720Y3221360D01*
X2303700Y3221560D01*
X2309620Y3222460D01*
X2315380Y3224100D01*
X2320900Y3226440D01*
X2326100Y3229440D01*
X2330880Y3233039D01*
X2335180Y3237220D01*
X2338920Y3241880D01*
X2342080Y3246980D01*
X2344580Y3252420D01*
X2345360Y3254860D01*
X2346160Y3256280D01*
X2347460Y3257280D01*
X2349060Y3257660D01*
X2350660Y3257380D01*
X2352020Y3256460D01*
X2352900Y3255100D01*
X2355020Y3249660D01*
X2357840Y3244380D01*
X2361300Y3239500D01*
X2365340Y3235059D01*
X2369900Y3231180D01*
X2374880Y3227860D01*
X2380240Y3225200D01*
X2385900Y3223200D01*
X2391760Y3221920D01*
X2397720Y3221360D01*
X2403700Y3221560D01*
X2409620Y3222460D01*
X2415380Y3224100D01*
X2420900Y3226440D01*
X2426100Y3229440D01*
X2430880Y3233039D01*
X2435180Y3237220D01*
X2438920Y3241880D01*
X2442080Y3246980D01*
X2444580Y3252420D01*
X2446400Y3258140D01*
X2447500Y3264020D01*
X2447880Y3270000D01*
X2447500Y3275980D01*
X2446400Y3281860D01*
X2444580Y3287580D01*
X2442080Y3293020D01*
X2438920Y3298120D01*
X2435180Y3302780D01*
X2430880Y3306960D01*
X2426100Y3310560D01*
X2420900Y3313560D01*
X2415380Y3315899D01*
X2409620Y3317540D01*
X2403700Y3318440D01*
X2397720Y3318639D01*
X2391760Y3318080D01*
X2385900Y3316800D01*
X2380240Y3314800D01*
X2374880Y3312140D01*
X2369900Y3308820D01*
X2365340Y3304940D01*
X2361300Y3300500D01*
X2357840Y3295620D01*
X2355020Y3290340D01*
X2352900Y3284900D01*
X2352020Y3283540D01*
X2350660Y3282620D01*
X2349060Y3282340D01*
X2347460Y3282720D01*
X2346160Y3283720D01*
X2345360Y3285140D01*
X2344580Y3287580D01*
X2342080Y3293020D01*
X2338920Y3298120D01*
X2335180Y3302780D01*
X2330880Y3306960D01*
X2326100Y3310560D01*
X2320900Y3313560D01*
X2315380Y3315899D01*
X2309620Y3317540D01*
X2303700Y3318440D01*
X2297720Y3318639D01*
X2291760Y3318080D01*
X2285900Y3316800D01*
X2280240Y3314800D01*
X2274880Y3312140D01*
X2269900Y3308820D01*
X2265340Y3304940D01*
X2261300Y3300500D01*
X2257840Y3295620D01*
X2255020Y3290340D01*
X2252900Y3284900D01*
X2252020Y3283540D01*
X2250660Y3282620D01*
X2249060Y3282340D01*
X2247460Y3282720D01*
X2246160Y3283720D01*
X2245360Y3285140D01*
X2244580Y3287580D01*
X2242080Y3293020D01*
X2238920Y3298120D01*
X2235180Y3302780D01*
X2230880Y3306960D01*
X2226100Y3310560D01*
X2220900Y3313560D01*
X2215380Y3315899D01*
X2209620Y3317540D01*
X2203700Y3318440D01*
X2197720Y3318639D01*
X2191760Y3318080D01*
X2185900Y3316800D01*
X2180240Y3314800D01*
X2174880Y3312140D01*
X2169900Y3308820D01*
X2165340Y3304940D01*
X2161300Y3300500D01*
X2157840Y3295620D01*
X2155400Y3291060D01*
X2154260Y3289740D01*
X2152660Y3289040D01*
X2150900Y3289080D01*
X2149340Y3289860D01*
X2148260Y3291240D01*
X2147880Y3292960D01*
X2147880Y3303260D01*
X2147560Y3306420D01*
X2146700Y3309280D01*
X2145300Y3311900D01*
X2143420Y3314200D01*
X2141120Y3316080D01*
X2138480Y3317480D01*
X2135640Y3318360D01*
X2132480Y3318660D01*
X2065940Y3318660D01*
X2062780Y3318360D01*
X2059940Y3317480D01*
X2057320Y3316080D01*
X2055020Y3314200D01*
X2053120Y3311900D01*
X2051720Y3309280D01*
X2050860Y3306420D01*
X2050540Y3303260D01*
X2050540Y3236740D01*
X2050860Y3233580D01*
X2051720Y3230720D01*
X2053120Y3228100D01*
X2055020Y3225800D01*
X2057320Y3223920D01*
X2059940Y3222520D01*
X2062780Y3221640D01*
G37*
G36*
X2065940Y3371340D02*
G01*
X2094220Y3371340D01*
X2094220Y3415000D01*
X2050540Y3415000D01*
X2050540Y3386740D01*
X2050860Y3383580D01*
X2051720Y3380720D01*
X2053120Y3378100D01*
X2055020Y3375800D01*
X2057320Y3373920D01*
X2059940Y3372520D01*
X2062780Y3371640D01*
G37*
G36*
X2104220Y3371340D02*
G01*
X2132480Y3371340D01*
X2135640Y3371640D01*
X2138480Y3372520D01*
X2141120Y3373920D01*
X2143420Y3375800D01*
X2145300Y3378100D01*
X2146700Y3380720D01*
X2147560Y3383580D01*
X2147880Y3386740D01*
X2147880Y3397040D01*
X2148260Y3398759D01*
X2149340Y3400140D01*
X2150900Y3400920D01*
X2152660Y3400960D01*
X2154260Y3400260D01*
X2155400Y3398940D01*
X2157840Y3394380D01*
X2161300Y3389500D01*
X2165340Y3385059D01*
X2169900Y3381180D01*
X2174880Y3377860D01*
X2180240Y3375200D01*
X2185900Y3373200D01*
X2191760Y3371920D01*
X2194220Y3371700D01*
X2194220Y3415000D01*
X2104220Y3415000D01*
G37*
G36*
X2404220Y3371620D02*
G01*
X2409620Y3372460D01*
X2415380Y3374100D01*
X2420900Y3376440D01*
X2426100Y3379440D01*
X2430880Y3383039D01*
X2435180Y3387220D01*
X2438920Y3391880D01*
X2442080Y3396980D01*
X2444580Y3402420D01*
X2446400Y3408140D01*
X2447500Y3414020D01*
X2447560Y3415000D01*
X2404220Y3415000D01*
G37*
G36*
X2204220Y3371620D02*
G01*
X2209620Y3372460D01*
X2215380Y3374100D01*
X2220900Y3376440D01*
X2226100Y3379440D01*
X2230880Y3383039D01*
X2235180Y3387220D01*
X2238920Y3391880D01*
X2242080Y3396980D01*
X2244580Y3402420D01*
X2245360Y3404860D01*
X2246160Y3406280D01*
X2247460Y3407280D01*
X2249060Y3407660D01*
X2250660Y3407380D01*
X2252020Y3406460D01*
X2252900Y3405100D01*
X2255020Y3399660D01*
X2257840Y3394380D01*
X2261300Y3389500D01*
X2265340Y3385059D01*
X2269900Y3381180D01*
X2274880Y3377860D01*
X2280240Y3375200D01*
X2285900Y3373200D01*
X2291760Y3371920D01*
X2294220Y3371700D01*
X2294220Y3415000D01*
X2204220Y3415000D01*
G37*
G36*
X2304220Y3371620D02*
G01*
X2309620Y3372460D01*
X2315380Y3374100D01*
X2320900Y3376440D01*
X2326100Y3379440D01*
X2330880Y3383039D01*
X2335180Y3387220D01*
X2338920Y3391880D01*
X2342080Y3396980D01*
X2344580Y3402420D01*
X2345360Y3404860D01*
X2346160Y3406280D01*
X2347460Y3407280D01*
X2349060Y3407660D01*
X2350660Y3407380D01*
X2352020Y3406460D01*
X2352900Y3405100D01*
X2355020Y3399660D01*
X2357840Y3394380D01*
X2361300Y3389500D01*
X2365340Y3385059D01*
X2369900Y3381180D01*
X2374880Y3377860D01*
X2380240Y3375200D01*
X2385900Y3373200D01*
X2391760Y3371920D01*
X2394220Y3371700D01*
X2394220Y3415000D01*
X2304220Y3415000D01*
G37*
G36*
X2404220Y3425000D02*
G01*
X2447560Y3425000D01*
X2447500Y3425980D01*
X2446400Y3431860D01*
X2444580Y3437580D01*
X2442080Y3443020D01*
X2438920Y3448120D01*
X2435180Y3452780D01*
X2430880Y3456960D01*
X2426100Y3460560D01*
X2420900Y3463560D01*
X2415380Y3465899D01*
X2409620Y3467540D01*
X2404220Y3468380D01*
G37*
G36*
X2050540Y3425000D02*
G01*
X2094220Y3425000D01*
X2094220Y3468660D01*
X2065940Y3468660D01*
X2062780Y3468360D01*
X2059940Y3467480D01*
X2057320Y3466080D01*
X2055020Y3464200D01*
X2053120Y3461900D01*
X2051720Y3459280D01*
X2050860Y3456420D01*
X2050540Y3453260D01*
G37*
G36*
X2304220Y3425000D02*
G01*
X2394220Y3425000D01*
X2394220Y3468300D01*
X2391760Y3468080D01*
X2385900Y3466800D01*
X2380240Y3464800D01*
X2374880Y3462140D01*
X2369900Y3458820D01*
X2365340Y3454940D01*
X2361300Y3450500D01*
X2357840Y3445620D01*
X2355020Y3440340D01*
X2352900Y3434900D01*
X2352020Y3433540D01*
X2350660Y3432620D01*
X2349060Y3432340D01*
X2347460Y3432720D01*
X2346160Y3433720D01*
X2345360Y3435140D01*
X2344580Y3437580D01*
X2342080Y3443020D01*
X2338920Y3448120D01*
X2335180Y3452780D01*
X2330880Y3456960D01*
X2326100Y3460560D01*
X2320900Y3463560D01*
X2315380Y3465899D01*
X2309620Y3467540D01*
X2304220Y3468380D01*
G37*
G36*
X2204220Y3425000D02*
G01*
X2294220Y3425000D01*
X2294220Y3468300D01*
X2291760Y3468080D01*
X2285900Y3466800D01*
X2280240Y3464800D01*
X2274880Y3462140D01*
X2269900Y3458820D01*
X2265340Y3454940D01*
X2261300Y3450500D01*
X2257840Y3445620D01*
X2255020Y3440340D01*
X2252900Y3434900D01*
X2252020Y3433540D01*
X2250660Y3432620D01*
X2249060Y3432340D01*
X2247460Y3432720D01*
X2246160Y3433720D01*
X2245360Y3435140D01*
X2244580Y3437580D01*
X2242080Y3443020D01*
X2238920Y3448120D01*
X2235180Y3452780D01*
X2230880Y3456960D01*
X2226100Y3460560D01*
X2220900Y3463560D01*
X2215380Y3465899D01*
X2209620Y3467540D01*
X2204220Y3468380D01*
G37*
G36*
X2104220Y3425000D02*
G01*
X2194220Y3425000D01*
X2194220Y3468300D01*
X2191760Y3468080D01*
X2185900Y3466800D01*
X2180240Y3464800D01*
X2174880Y3462140D01*
X2169900Y3458820D01*
X2165340Y3454940D01*
X2161300Y3450500D01*
X2157840Y3445620D01*
X2155400Y3441060D01*
X2154260Y3439740D01*
X2152660Y3439040D01*
X2150900Y3439080D01*
X2149340Y3439860D01*
X2148260Y3441240D01*
X2147880Y3442960D01*
X2147880Y3453260D01*
X2147560Y3456420D01*
X2146700Y3459280D01*
X2145300Y3461900D01*
X2143420Y3464200D01*
X2141120Y3466080D01*
X2138480Y3467480D01*
X2135640Y3468360D01*
X2132480Y3468660D01*
X2104220Y3468660D01*
G37*
G36*
X2213100Y3543140D02*
G01*
X2266920Y3543140D01*
X2270060Y3543440D01*
X2272920Y3544300D01*
X2275540Y3545720D01*
X2277840Y3547600D01*
X2279720Y3549900D01*
X2281140Y3552520D01*
X2282000Y3555380D01*
X2282140Y3556800D01*
X2282540Y3558200D01*
X2283420Y3559360D01*
X2284680Y3560140D01*
X2286120Y3560400D01*
X2406260Y3560440D01*
X2408560Y3560720D01*
X2409740Y3560960D01*
X2411960Y3561640D01*
X2413080Y3562080D01*
X2415140Y3563140D01*
X2416180Y3563780D01*
X2418020Y3565160D01*
X2418920Y3565960D01*
X2420500Y3567660D01*
X2421260Y3568600D01*
X2422520Y3570539D01*
X2423080Y3571620D01*
X2424000Y3573740D01*
X2424380Y3574900D01*
X2424900Y3577140D01*
X2425060Y3578340D01*
X2425200Y3580640D01*
X2425160Y3581860D01*
X2424880Y3584160D01*
X2424640Y3585340D01*
X2423960Y3587540D01*
X2353540Y3748039D01*
X2352620Y3749860D01*
X2351820Y3751200D01*
X2350640Y3752780D01*
X2349620Y3753940D01*
X2348180Y3755299D01*
X2346960Y3756259D01*
X2345320Y3757360D01*
X2343960Y3758100D01*
X2342160Y3758880D01*
X2340680Y3759380D01*
X2338780Y3759840D01*
X2337240Y3760080D01*
X2335180Y3760200D01*
X1987420Y3765100D01*
X1986300Y3765280D01*
X1985260Y3765760D01*
X1976300Y3771760D01*
X1974379Y3772880D01*
X1973140Y3773480D01*
X1971140Y3774240D01*
X1969820Y3774620D01*
X1967700Y3775020D01*
X1966339Y3775160D01*
X1964120Y3775179D01*
X1448959Y3755120D01*
X1445380Y3754500D01*
X1442060Y3753300D01*
X1439019Y3751540D01*
X1436200Y3749160D01*
X1412260Y3725240D01*
X1411200Y3724480D01*
X1409960Y3724100D01*
X1408660Y3724140D01*
X1405320Y3724800D01*
X1400000Y3725160D01*
X1394680Y3724800D01*
X1389440Y3723759D01*
X1384400Y3722040D01*
X1379600Y3719680D01*
X1375180Y3716720D01*
X1371160Y3713200D01*
X1367640Y3709200D01*
X1364680Y3704760D01*
X1362320Y3699980D01*
X1360600Y3694920D01*
X1359560Y3689700D01*
X1359220Y3684360D01*
X1359560Y3679040D01*
X1360600Y3673820D01*
X1362320Y3668759D01*
X1364680Y3663980D01*
X1367640Y3659540D01*
X1371160Y3655539D01*
X1375180Y3652020D01*
X1379600Y3649060D01*
X1380560Y3648580D01*
X1381920Y3647480D01*
X1382680Y3645880D01*
X1382680Y3644120D01*
X1381920Y3642520D01*
X1380560Y3641420D01*
X1379600Y3640940D01*
X1375180Y3637980D01*
X1371160Y3634460D01*
X1367640Y3630460D01*
X1364680Y3626019D01*
X1362320Y3621240D01*
X1360600Y3616180D01*
X1359540Y3610620D01*
X1395000Y3610620D01*
X1395000Y3639640D01*
X1395300Y3641180D01*
X1396180Y3642480D01*
X1397460Y3643340D01*
X1399000Y3643639D01*
X1401000Y3643639D01*
X1402540Y3643340D01*
X1403820Y3642480D01*
X1404700Y3641180D01*
X1405000Y3639640D01*
X1405000Y3610620D01*
X1440460Y3610620D01*
X1439400Y3616180D01*
X1437680Y3621240D01*
X1435320Y3626019D01*
X1432360Y3630460D01*
X1428839Y3634460D01*
X1424820Y3637980D01*
X1420400Y3640940D01*
X1419440Y3641420D01*
X1418080Y3642520D01*
X1417320Y3644120D01*
X1417320Y3645880D01*
X1418080Y3647480D01*
X1419440Y3648580D01*
X1420400Y3649060D01*
X1424820Y3652020D01*
X1428839Y3655539D01*
X1432360Y3659540D01*
X1435320Y3663980D01*
X1437680Y3668759D01*
X1439400Y3673820D01*
X1440440Y3679040D01*
X1440780Y3684360D01*
X1440440Y3689700D01*
X1439760Y3693080D01*
X1439720Y3694380D01*
X1440100Y3695620D01*
X1440860Y3696680D01*
X1458180Y3714020D01*
X1459400Y3714860D01*
X1460860Y3715179D01*
X1661260Y3722980D01*
X1662800Y3722740D01*
X1664120Y3721920D01*
X1665040Y3720659D01*
X1665420Y3719140D01*
X1665160Y3717600D01*
X1664019Y3714460D01*
X1662800Y3709120D01*
X1662280Y3703680D01*
X1662440Y3698200D01*
X1663320Y3692780D01*
X1664880Y3687540D01*
X1667100Y3682520D01*
X1669940Y3677840D01*
X1673360Y3673560D01*
X1677280Y3669740D01*
X1681680Y3666480D01*
X1686459Y3663780D01*
X1691519Y3661720D01*
X1696819Y3660340D01*
X1702260Y3659640D01*
X1707740Y3659640D01*
X1713180Y3660340D01*
X1718480Y3661720D01*
X1723540Y3663780D01*
X1728320Y3666480D01*
X1729460Y3667320D01*
X1730580Y3667900D01*
X1731840Y3668100D01*
X1896800Y3668100D01*
X1898440Y3667760D01*
X1899800Y3666740D01*
X1900620Y3665280D01*
X1901360Y3662820D01*
X1902780Y3660179D01*
X1904660Y3657880D01*
X1906960Y3656000D01*
X1909580Y3654600D01*
X1912440Y3653740D01*
X1915600Y3653420D01*
X1964420Y3653420D01*
X1967560Y3653740D01*
X1970420Y3654600D01*
X1973040Y3656000D01*
X1975340Y3657880D01*
X1977220Y3660179D01*
X1978640Y3662820D01*
X1979379Y3665280D01*
X1980200Y3666740D01*
X1981560Y3667760D01*
X1983200Y3668120D01*
X2193700Y3668120D01*
X2195220Y3667799D01*
X2196520Y3666940D01*
X2197380Y3665640D01*
X2197700Y3664120D01*
X2197700Y3637280D01*
X2198000Y3634120D01*
X2198860Y3631259D01*
X2200280Y3628639D01*
X2202160Y3626340D01*
X2204460Y3624460D01*
X2206200Y3623519D01*
X2207500Y3622420D01*
X2208220Y3620860D01*
X2208220Y3619140D01*
X2207500Y3617580D01*
X2206200Y3616480D01*
X2204460Y3615539D01*
X2202160Y3613660D01*
X2200280Y3611360D01*
X2198860Y3608740D01*
X2198000Y3605880D01*
X2197700Y3602720D01*
X2197700Y3558540D01*
X2198000Y3555380D01*
X2198860Y3552520D01*
X2200280Y3549900D01*
X2202160Y3547600D01*
X2204460Y3545720D01*
X2207080Y3544300D01*
X2209940Y3543440D01*
G37*
G36*
X1405000Y3565179D02*
G01*
X1410560Y3566240D01*
X1415600Y3567960D01*
X1420400Y3570320D01*
X1424820Y3573279D01*
X1428839Y3576800D01*
X1432360Y3580800D01*
X1435320Y3585240D01*
X1437680Y3590020D01*
X1439400Y3595080D01*
X1440460Y3600620D01*
X1405000Y3600620D01*
G37*
G36*
X1395000Y3565179D02*
G01*
X1395000Y3600620D01*
X1359540Y3600620D01*
X1360600Y3595080D01*
X1362320Y3590020D01*
X1364680Y3585240D01*
X1367640Y3580800D01*
X1371160Y3576800D01*
X1375180Y3573279D01*
X1379600Y3570320D01*
X1384400Y3567960D01*
X1389440Y3566240D01*
G37*
G36*
X1700000Y3565320D02*
G01*
X1700000Y3602700D01*
X1662600Y3602700D01*
X1663320Y3598180D01*
X1664880Y3592940D01*
X1667100Y3587919D01*
X1669940Y3583240D01*
X1673360Y3578960D01*
X1677280Y3575140D01*
X1681680Y3571880D01*
X1686459Y3569180D01*
X1691519Y3567120D01*
X1696819Y3565740D01*
G37*
G36*
X1710000Y3565320D02*
G01*
X1713180Y3565740D01*
X1718480Y3567120D01*
X1723540Y3569180D01*
X1728320Y3571880D01*
X1732720Y3575140D01*
X1736639Y3578960D01*
X1740060Y3583240D01*
X1742900Y3587919D01*
X1745120Y3592940D01*
X1746680Y3598180D01*
X1747400Y3602700D01*
X1710000Y3602700D01*
G37*
G36*
X1915600Y3566800D02*
G01*
X1935000Y3566800D01*
X1935000Y3596700D01*
X1900200Y3596700D01*
X1900200Y3582200D01*
X1900500Y3579040D01*
X1901360Y3576200D01*
X1902780Y3573580D01*
X1904660Y3571280D01*
X1906960Y3569380D01*
X1909580Y3567980D01*
X1912440Y3567120D01*
G37*
G36*
X1945000Y3566800D02*
G01*
X1964420Y3566800D01*
X1967560Y3567120D01*
X1970420Y3567980D01*
X1973040Y3569380D01*
X1975340Y3571280D01*
X1977220Y3573580D01*
X1978640Y3576200D01*
X1979500Y3579040D01*
X1979800Y3582200D01*
X1979800Y3596700D01*
X1945000Y3596700D01*
G37*
G36*
X859980Y3595280D02*
G01*
X881060Y3595280D01*
X884220Y3595580D01*
X887060Y3596440D01*
X889700Y3597860D01*
X892000Y3599740D01*
X893880Y3602040D01*
X895280Y3604660D01*
X896140Y3607520D01*
X896460Y3610659D01*
X896460Y3635000D01*
X859980Y3635000D01*
G37*
G36*
X981380Y3597280D02*
G01*
X986820Y3597799D01*
X992159Y3599020D01*
X997300Y3600899D01*
X1002159Y3603440D01*
X1006660Y3606580D01*
X1010720Y3610260D01*
X1014260Y3614440D01*
X1017260Y3619020D01*
X1019640Y3623960D01*
X1021360Y3629160D01*
X1022400Y3634540D01*
X1022760Y3640000D01*
X1022400Y3645460D01*
X1021360Y3650840D01*
X1019640Y3656040D01*
X1017260Y3660980D01*
X1014260Y3665560D01*
X1010720Y3669740D01*
X1006660Y3673420D01*
X1002159Y3676560D01*
X997300Y3679100D01*
X992159Y3680980D01*
X986820Y3682200D01*
X981380Y3682720D01*
X975900Y3682559D01*
X970500Y3681680D01*
X965240Y3680120D01*
X960240Y3677900D01*
X955540Y3675059D01*
X951260Y3671640D01*
X947460Y3667720D01*
X944180Y3663320D01*
X941480Y3658540D01*
X939440Y3653480D01*
X938040Y3648180D01*
X937340Y3642740D01*
X937340Y3637260D01*
X938040Y3631820D01*
X939440Y3626520D01*
X941480Y3621460D01*
X944180Y3616680D01*
X947460Y3612280D01*
X951260Y3608360D01*
X955540Y3604940D01*
X960240Y3602100D01*
X965240Y3599880D01*
X970500Y3598320D01*
X975900Y3597440D01*
G37*
G36*
X1175000Y3597600D02*
G01*
X1175000Y3635000D01*
X1137620Y3635000D01*
X1138040Y3631820D01*
X1139420Y3626520D01*
X1141480Y3621460D01*
X1144160Y3616680D01*
X1147440Y3612280D01*
X1151260Y3608360D01*
X1155540Y3604940D01*
X1160220Y3602100D01*
X1165240Y3599880D01*
X1170480Y3598320D01*
G37*
G36*
X1185000Y3597620D02*
G01*
X1186820Y3597799D01*
X1192160Y3599020D01*
X1197300Y3600899D01*
X1202160Y3603440D01*
X1206660Y3606580D01*
X1210700Y3610260D01*
X1214260Y3614440D01*
X1217240Y3619020D01*
X1219620Y3623960D01*
X1221340Y3629160D01*
X1222400Y3634540D01*
X1222420Y3635000D01*
X1185000Y3635000D01*
G37*
G36*
X118100Y3603820D02*
G01*
X125700Y3604020D01*
X133240Y3604960D01*
X140640Y3606660D01*
X147840Y3609080D01*
X154760Y3612200D01*
X161340Y3616000D01*
X167500Y3620419D01*
X173200Y3625460D01*
X178359Y3631019D01*
X182960Y3637080D01*
X186920Y3643560D01*
X190219Y3650400D01*
X192800Y3657540D01*
X194680Y3664900D01*
X195820Y3672420D01*
X196200Y3680000D01*
X195820Y3687580D01*
X194680Y3695100D01*
X192800Y3702460D01*
X190219Y3709600D01*
X186920Y3716440D01*
X182960Y3722919D01*
X178359Y3728980D01*
X173200Y3734540D01*
X167500Y3739580D01*
X161340Y3744000D01*
X154760Y3747799D01*
X147840Y3750920D01*
X140640Y3753340D01*
X133240Y3755040D01*
X125700Y3755980D01*
X118100Y3756180D01*
X110520Y3755600D01*
X103040Y3754280D01*
X95740Y3752220D01*
X88660Y3749460D01*
X81900Y3745980D01*
X75520Y3741860D01*
X69580Y3737120D01*
X64140Y3731820D01*
X59260Y3726000D01*
X54980Y3719740D01*
X51360Y3713060D01*
X48400Y3706060D01*
X46160Y3698800D01*
X44660Y3691360D01*
X43900Y3683800D01*
X43900Y3676200D01*
X44660Y3668639D01*
X46160Y3661200D01*
X48400Y3653940D01*
X51360Y3646940D01*
X54980Y3640260D01*
X59260Y3634000D01*
X64140Y3628180D01*
X69580Y3622880D01*
X75520Y3618140D01*
X81900Y3614020D01*
X88660Y3610539D01*
X95740Y3607780D01*
X103040Y3605720D01*
X110520Y3604400D01*
G37*
G36*
X2478100Y3603820D02*
G01*
X2485700Y3604020D01*
X2493240Y3604960D01*
X2500640Y3606660D01*
X2507840Y3609080D01*
X2514760Y3612200D01*
X2521340Y3616000D01*
X2527500Y3620419D01*
X2533200Y3625460D01*
X2538360Y3631019D01*
X2542960Y3637080D01*
X2546920Y3643560D01*
X2550220Y3650400D01*
X2552800Y3657540D01*
X2554680Y3664900D01*
X2555820Y3672420D01*
X2556200Y3680000D01*
X2555820Y3687580D01*
X2554680Y3695100D01*
X2552800Y3702460D01*
X2550220Y3709600D01*
X2546920Y3716440D01*
X2542960Y3722919D01*
X2538360Y3728980D01*
X2533200Y3734540D01*
X2527500Y3739580D01*
X2521340Y3744000D01*
X2514760Y3747799D01*
X2507840Y3750920D01*
X2500640Y3753340D01*
X2493240Y3755040D01*
X2485700Y3755980D01*
X2478100Y3756180D01*
X2470520Y3755600D01*
X2463040Y3754280D01*
X2455740Y3752220D01*
X2448660Y3749460D01*
X2441900Y3745980D01*
X2435520Y3741860D01*
X2429580Y3737120D01*
X2424140Y3731820D01*
X2419260Y3726000D01*
X2414980Y3719740D01*
X2411360Y3713060D01*
X2408400Y3706060D01*
X2406160Y3698800D01*
X2404660Y3691360D01*
X2403900Y3683800D01*
X2403900Y3676200D01*
X2404660Y3668639D01*
X2406160Y3661200D01*
X2408400Y3653940D01*
X2411360Y3646940D01*
X2414980Y3640260D01*
X2419260Y3634000D01*
X2424140Y3628180D01*
X2429580Y3622880D01*
X2435520Y3618140D01*
X2441900Y3614020D01*
X2448660Y3610539D01*
X2455740Y3607780D01*
X2463040Y3605720D01*
X2470520Y3604400D01*
G37*
G36*
X1900200Y3606700D02*
G01*
X1935000Y3606700D01*
X1935000Y3636580D01*
X1915600Y3636580D01*
X1912440Y3636259D01*
X1909580Y3635400D01*
X1906960Y3634000D01*
X1904660Y3632120D01*
X1902780Y3629800D01*
X1901360Y3627180D01*
X1900500Y3624340D01*
X1900200Y3621180D01*
G37*
G36*
X1945000Y3606700D02*
G01*
X1979800Y3606700D01*
X1979800Y3621180D01*
X1979500Y3624340D01*
X1978640Y3627180D01*
X1977220Y3629800D01*
X1975340Y3632120D01*
X1973040Y3634000D01*
X1970420Y3635400D01*
X1967560Y3636259D01*
X1964420Y3636580D01*
X1945000Y3636580D01*
G37*
G36*
X1710000Y3612700D02*
G01*
X1747380Y3612700D01*
X1747200Y3614520D01*
X1745980Y3619860D01*
X1744100Y3625000D01*
X1741560Y3629860D01*
X1738420Y3634360D01*
X1734740Y3638420D01*
X1730580Y3641960D01*
X1725980Y3644960D01*
X1721040Y3647320D01*
X1715840Y3649060D01*
X1710000Y3650140D01*
G37*
G36*
X1662620Y3612700D02*
G01*
X1700000Y3612700D01*
X1700000Y3650140D01*
X1694160Y3649060D01*
X1688959Y3647320D01*
X1684019Y3644960D01*
X1679420Y3641960D01*
X1675260Y3638420D01*
X1671579Y3634360D01*
X1668440Y3629860D01*
X1665900Y3625000D01*
X1664019Y3619860D01*
X1662800Y3614520D01*
G37*
G36*
X1137620Y3645000D02*
G01*
X1175000Y3645000D01*
X1175000Y3682400D01*
X1170480Y3681680D01*
X1165240Y3680120D01*
X1160220Y3677900D01*
X1155540Y3675059D01*
X1151260Y3671640D01*
X1147440Y3667720D01*
X1144160Y3663320D01*
X1141480Y3658540D01*
X1139420Y3653480D01*
X1138040Y3648180D01*
G37*
G36*
X1185000Y3645000D02*
G01*
X1222420Y3645000D01*
X1222400Y3645460D01*
X1221340Y3650840D01*
X1219620Y3656040D01*
X1217240Y3660980D01*
X1214260Y3665560D01*
X1210700Y3669740D01*
X1206660Y3673420D01*
X1202160Y3676560D01*
X1197300Y3679100D01*
X1192160Y3680980D01*
X1186820Y3682200D01*
X1185000Y3682380D01*
G37*
G36*
X859980Y3645000D02*
G01*
X896460Y3645000D01*
X896460Y3669340D01*
X896140Y3672480D01*
X895280Y3675340D01*
X893880Y3677960D01*
X892000Y3680260D01*
X889700Y3682140D01*
X887060Y3683560D01*
X884220Y3684420D01*
X881060Y3684720D01*
X859980Y3684720D01*
G37*

%LPD*%
D10*
X1320000Y295000D02*
G01*
X1315000Y295000D01*
X1245000Y225000D01*
X1150000Y225000D01*
X1105000Y180000D01*
X1070000Y180000D01*
X1040000Y150000D01*
X1040000Y210000D01*
X1030000Y220000D01*
X1070000Y385000D02*
G01*
X1070000Y450000D01*
X1365000Y450000D01*
X1395000Y405000D01*
X1395000Y375000D01*
X1390000Y345000D01*
X1260000Y345000D01*
X1185000Y265000D01*
X1320000Y395000D02*
G01*
X1260000Y395000D01*
X1110000Y275000D01*
X1110000Y275000D01*
X1055000Y285000D01*
X925000Y285000D01*
X880000Y225000D01*
X905000Y183299D01*
X905000Y145000D01*
X280000Y145000D01*
X215399Y209600D01*
X1400000Y3684400D02*
G01*
X1450600Y3735000D01*
X1965000Y3755000D01*
X1980000Y3745000D01*
X2335000Y3740000D01*
X2405000Y3580599D01*
X2240000Y3580599D01*
X2240000Y3659369D02*
G01*
X2211058Y3688310D01*
X1940000Y3688310D01*
X1705000Y3702300D02*
G01*
X1718990Y3688310D01*
X1940000Y3688310D01*
D11*
X200000Y3420000D02*
G01*
X425000Y3645000D01*
X500000Y3645000D01*
X505000Y3640000D01*
X765020Y3640000D01*
D10*
X1265000Y1059998D02*
G01*
X1235000Y1029998D01*
X1235000Y840000D01*
X1265000Y810000D01*
X1325000Y810000D01*
X1660001Y935000D02*
G01*
X1625000Y899998D01*
X1625000Y810000D01*
X1425000Y810000D02*
G01*
X1420001Y814998D01*
X1420001Y935000D01*
X1598446Y1036554D02*
G01*
X1560001Y998108D01*
X1560001Y935000D01*
X1428446Y1041554D02*
G01*
X1321891Y935000D01*
X1320001Y935000D01*
X1265000Y1159998D02*
G01*
X1296554Y1191554D01*
X1428446Y1191554D01*
X1603446Y1196554D02*
G01*
X1606890Y1199998D01*
X1705000Y1199998D01*
X1580000Y1370000D02*
G01*
X1536553Y1326554D01*
X1536553Y1263445D01*
X1380000Y1370000D02*
G01*
X1361553Y1351554D01*
X1361553Y1258445D01*
X525000Y225000D02*
G01*
X805000Y225000D01*
X825000Y205000D01*
X535000Y85000D02*
G01*
X635000Y85000D01*
X435000Y85000D02*
G01*
X335000Y85000D01*
X1185000Y164998D02*
G01*
X1289998Y164998D01*
X1320000Y195000D01*
X525000Y560000D02*
G01*
X830000Y560000D01*
X835000Y565000D01*
X525000Y560000D02*
G01*
X455000Y560000D01*
X390000Y495000D01*
X140000Y535000D02*
G01*
X145000Y540000D01*
X390000Y540000D01*
X390000Y495000D01*
X2115000Y100000D02*
G01*
X2115000Y130000D01*
X2060000Y185000D01*
X1520000Y180000D01*
X1520000Y180000D01*
X1375000Y105000D01*
X1375000Y50000D01*
X1380141Y44861D01*
X1380141Y29861D01*
X1390000Y20000D01*
X1494701Y20000D01*
X1545000Y70300D01*
X1570600Y109699D02*
G01*
X1520298Y160000D01*
X2060000Y160000D01*
X2015000Y115000D01*
X2015000Y100000D01*
X1596201Y70300D02*
G01*
X1641499Y25000D01*
X1725000Y25000D01*
X1800000Y100000D01*
X1915000Y100000D01*
X1610000Y270000D02*
G01*
X1535000Y270000D01*
X1515000Y250000D01*
X1585000Y679998D02*
G01*
X1490000Y679998D01*
X1455000Y645000D01*
X1455000Y325000D01*
X1510000Y270000D01*
X1815000Y810000D02*
G01*
X1735000Y730000D01*
X1735000Y679998D01*
X2410000Y385398D02*
G01*
X2410000Y270000D01*
X2260000Y385398D02*
G01*
X2310000Y335398D01*
X2310000Y270000D01*
X2110000Y385398D02*
G01*
X2210000Y285398D01*
X2210000Y270000D01*
X1980000Y385399D02*
G01*
X2095399Y270000D01*
X2110000Y270000D01*
X1825000Y385398D02*
G01*
X1870399Y340000D01*
X1940000Y340000D01*
X2010000Y270000D01*
X1510000Y385398D02*
G01*
X1550399Y345000D01*
X1735000Y345000D01*
X1810000Y270000D01*
X1980000Y485399D02*
G01*
X2035000Y540399D01*
X2035000Y585398D01*
X1885000Y585398D02*
G01*
X1825000Y525398D01*
X1825000Y485399D01*
X2410000Y485399D02*
G01*
X2485000Y560399D01*
X2485000Y585399D01*
X2260000Y485399D02*
G01*
X2335000Y560399D01*
X2335000Y585398D01*
X2110000Y485399D02*
G01*
X2185000Y560399D01*
X2185000Y585398D01*
X1735000Y585398D02*
G01*
X1660000Y510398D01*
X1660000Y485399D01*
X1585000Y585398D02*
G01*
X1510000Y510398D01*
X1510000Y485399D01*
X2485000Y680000D02*
G01*
X2550000Y615000D01*
X2550000Y490000D01*
X2545397Y485398D01*
X2515000Y485398D01*
X2485000Y680000D02*
G01*
X2335000Y679998D01*
X2335000Y679998D02*
G01*
X2185000Y679998D01*
X2185000Y679998D02*
G01*
X2035000Y679998D01*
X1885000Y679998D02*
G01*
X2035000Y679998D01*
X1735000Y679998D02*
G01*
X1585000Y679998D01*
X1885000Y679998D02*
G01*
X1735000Y679998D01*
X1815000Y810000D02*
G01*
X1815000Y940000D01*
X2515000Y810000D02*
G01*
X2515000Y940000D01*
X2415000Y940000D02*
G01*
X2415000Y810000D01*
X2315000Y810000D02*
G01*
X2315000Y940000D01*
X2215000Y940000D02*
G01*
X2215000Y810000D01*
X2115000Y810000D02*
G01*
X2115000Y940000D01*
X2015000Y940000D02*
G01*
X2015000Y810000D01*
X1915000Y810000D02*
G01*
X1915000Y940000D01*
X2515000Y1370000D02*
G01*
X2515000Y1240000D01*
X2415000Y1240000D02*
G01*
X2415000Y1370000D01*
X2315000Y1370000D02*
G01*
X2315000Y1240000D01*
X2215000Y1240000D02*
G01*
X2215000Y1370000D01*
X2115000Y1370000D02*
G01*
X2115000Y1240000D01*
X2015000Y1240000D02*
G01*
X2015000Y1370000D01*
X1915000Y1370000D02*
G01*
X1915000Y1240000D01*
X1815000Y1240000D02*
G01*
X1815000Y1370000D01*
X860001Y1260000D02*
G01*
X920000Y1200001D01*
X920000Y1035000D01*
X885000Y1000000D01*
X760000Y1000000D01*
X750000Y1010000D01*
X750000Y1125000D01*
X1090001Y1260000D02*
G01*
X1115000Y1235001D01*
X1115000Y895000D01*
X945000Y725000D01*
X850000Y725000D01*
X1210000Y1370000D02*
G01*
X1190001Y1350001D01*
X1190001Y1260000D01*
X1110000Y1370000D02*
G01*
X1000000Y1260000D01*
X960001Y1260000D01*
X1010000Y1370000D02*
G01*
X945000Y1305000D01*
X800000Y1305000D01*
X755000Y1260000D01*
X730001Y1260000D01*
X500700Y1260000D02*
G01*
X545000Y1304299D01*
X545000Y1430000D01*
X550000Y1435000D01*
X890000Y1435000D01*
X910000Y1415000D01*
X910000Y1370000D01*
X190000Y1370000D02*
G01*
X370000Y1190000D01*
X775000Y1190000D01*
X840000Y1125000D01*
X850000Y1125000D01*
X90000Y1370000D02*
G01*
X90000Y1205000D01*
X285000Y1010000D01*
X410000Y1010000D01*
X450000Y1050000D01*
X450000Y1125000D01*
X200000Y2820001D02*
G01*
X1152519Y2820001D01*
X400000Y3120001D02*
G01*
X400000Y3320000D01*
X2400000Y2719998D02*
G01*
X1467480Y2719998D01*
X1467479Y1820000D02*
G01*
X2400000Y1819998D01*
X2400000Y1919998D02*
G01*
X1467480Y1919998D01*
X2400000Y2019998D02*
G01*
X1467480Y2019998D01*
X1467479Y2120000D02*
G01*
X2399998Y2120000D01*
X1467479Y2320000D02*
G01*
X2399998Y2320000D01*
X2400000Y2419998D02*
G01*
X1467480Y2419998D01*
X1467479Y2520000D02*
G01*
X2399998Y2520000D01*
X2400000Y2619998D02*
G01*
X1467480Y2619998D01*
X2400000Y2819998D02*
G01*
X1467480Y2819998D01*
X1467479Y2920000D02*
G01*
X2399998Y2920000D01*
X2400000Y3019998D02*
G01*
X1467480Y3019998D01*
X1467479Y3120000D02*
G01*
X2399998Y3120000D01*
X1152520Y1820000D02*
G01*
X200001Y1820000D01*
X200000Y1920001D02*
G01*
X1152519Y1920001D01*
X1152520Y2020000D02*
G01*
X200001Y2020000D01*
X200000Y2120001D02*
G01*
X1152519Y2120001D01*
X200000Y2320001D02*
G01*
X1152519Y2320001D01*
X200000Y2420001D02*
G01*
X1152519Y2420001D01*
X200000Y2620001D02*
G01*
X1152519Y2620001D01*
X1152520Y2720000D02*
G01*
X200001Y2720000D01*
X1152520Y2920000D02*
G01*
X200001Y2920000D01*
X200000Y3020001D02*
G01*
X1152519Y3020001D01*
X200000Y3120001D02*
G01*
X1152520Y3120000D01*
X825000Y205000D02*
G01*
X825000Y210000D01*
X940000Y325000D01*
X1090000Y325000D01*
X1120000Y355000D01*
X1120000Y385000D01*
X525000Y225000D02*
G01*
X480000Y180000D01*
X330000Y205000D01*
X290000Y235000D01*
X290000Y315000D01*
X1660000Y385399D02*
G01*
X1779600Y385399D01*
X1787100Y377899D01*
X1787100Y337899D01*
X1820000Y320000D01*
X1870000Y310000D01*
X1910000Y270000D01*
X40000Y535000D02*
G01*
X40000Y365000D01*
X40000Y535000D02*
G01*
X130000Y445000D01*
X315000Y445000D01*
X340000Y460000D01*
X340000Y495000D01*
X1030000Y570000D02*
G01*
X1140000Y680000D01*
X1235000Y680000D01*
X1395000Y680000D01*
X1410000Y665000D01*
X1405000Y665000D01*
X1365000Y625000D01*
X1080000Y570000D02*
G01*
X1080000Y520000D01*
X1105000Y495000D01*
X1195000Y495000D01*
X1195000Y555000D01*
X1265000Y625000D01*
X144600Y280399D02*
G01*
X224200Y360000D01*
X325000Y360000D01*
X340000Y345000D01*
X340000Y315000D01*
X140000Y365000D02*
G01*
X140000Y390000D01*
X335000Y390000D01*
X360000Y415000D01*
X390000Y415000D01*
X485000Y510000D01*
X1045000Y510000D01*
X1085000Y470000D01*
X1295000Y470000D01*
X1320000Y495000D01*
X1060000Y3240000D02*
G01*
X1060000Y3420000D01*
X1160000Y3420000D02*
G01*
X1160000Y3240000D01*
X1260000Y3240000D02*
G01*
X1260000Y3420000D01*
X1360000Y3420000D02*
G01*
X1360000Y3240000D01*
X1460000Y3240000D02*
G01*
X1460000Y3420000D01*
X1560000Y3420000D02*
G01*
X1560000Y3240000D01*
X1660000Y3240000D02*
G01*
X1660000Y3420000D01*
X960000Y3420000D02*
G01*
X960000Y3240000D01*
X960000Y1520000D02*
G01*
X960000Y1700000D01*
X1060000Y1700000D02*
G01*
X1060000Y1520000D01*
X1160000Y1520000D02*
G01*
X1160000Y1700000D01*
X1260000Y1700000D02*
G01*
X1260000Y1520000D01*
X1360000Y1520000D02*
G01*
X1360000Y1700000D01*
X1460000Y1700000D02*
G01*
X1460000Y1520000D01*
X1560000Y1520000D02*
G01*
X1560000Y1700000D01*
X1660000Y1700000D02*
G01*
X1660000Y1520000D01*
X835000Y565000D02*
G01*
X840000Y570000D01*
X1030000Y570000D01*
X2400000Y2219998D02*
G01*
X1467480Y2219998D01*
D12*
G01*
X854979Y3640000D03*
G01*
X765020Y3640000D03*
D13*
G01*
X1940000Y3688310D03*
G01*
X1940000Y3601689D03*
D14*
G01*
X2240000Y3580627D03*
D15*
G01*
X2240000Y3659369D03*
D16*
G01*
X790000Y400000D03*
G01*
X590000Y400000D03*
G01*
X1180000Y3640000D03*
G01*
X980000Y3640000D03*
G01*
X2515000Y485399D03*
G01*
X2515000Y285399D03*
D17*
G01*
X1400000Y3684369D03*
G01*
X1400000Y3605630D03*
D18*
G01*
X2099210Y3420000D03*
D19*
G01*
X2199210Y3420000D03*
G01*
X2299210Y3420000D03*
G01*
X2399210Y3420000D03*
D18*
G01*
X2099210Y3270000D03*
D19*
G01*
X2199210Y3270000D03*
G01*
X2299210Y3270000D03*
G01*
X2399210Y3270000D03*
D18*
G01*
X335000Y85000D03*
D19*
G01*
X435000Y85000D03*
G01*
X535000Y85000D03*
G01*
X635000Y85000D03*
D18*
G01*
X1320000Y495000D03*
D19*
G01*
X1320000Y395000D03*
G01*
X1320000Y295000D03*
G01*
X1320000Y195000D03*
D18*
G01*
X1380000Y1370000D03*
D19*
G01*
X1480000Y1370000D03*
G01*
X1580000Y1370000D03*
G01*
X1680000Y1370000D03*
D18*
G01*
X1325000Y810000D03*
D19*
G01*
X1425000Y810000D03*
G01*
X1525000Y810000D03*
G01*
X1625000Y810000D03*
D18*
G01*
X200790Y1520000D03*
D19*
G01*
X300790Y1520000D03*
G01*
X400790Y1520000D03*
G01*
X500790Y1520000D03*
D18*
G01*
X200790Y1670000D03*
D19*
G01*
X300790Y1670000D03*
G01*
X400790Y1670000D03*
G01*
X500790Y1670000D03*
D18*
G01*
X2100000Y1500000D03*
D19*
G01*
X2200000Y1500000D03*
G01*
X2300000Y1500000D03*
G01*
X2400000Y1500000D03*
D18*
G01*
X2100000Y1670000D03*
D19*
G01*
X2200000Y1670000D03*
G01*
X2300000Y1670000D03*
G01*
X2400000Y1670000D03*
D18*
G01*
X910000Y1370000D03*
D19*
G01*
X1010000Y1370000D03*
G01*
X1110000Y1370000D03*
G01*
X1210000Y1370000D03*
D18*
G01*
X765000Y90000D03*
D19*
G01*
X865000Y90000D03*
G01*
X965000Y90000D03*
G01*
X1065000Y90000D03*
D20*
G01*
X1660000Y3420000D03*
D21*
G01*
X1560000Y3420000D03*
G01*
X1460000Y3420000D03*
G01*
X1360000Y3420000D03*
G01*
X1260000Y3420000D03*
G01*
X1160000Y3420000D03*
G01*
X1060000Y3420000D03*
G01*
X960000Y3420000D03*
D20*
G01*
X1660000Y3240000D03*
D21*
G01*
X1560000Y3240000D03*
G01*
X1460000Y3240000D03*
G01*
X1360000Y3240000D03*
G01*
X1260000Y3240000D03*
G01*
X1160000Y3240000D03*
G01*
X1060000Y3240000D03*
G01*
X960000Y3240000D03*
D20*
G01*
X2515000Y1370000D03*
D21*
G01*
X2415000Y1370000D03*
G01*
X2315000Y1370000D03*
G01*
X2215000Y1370000D03*
G01*
X2115000Y1370000D03*
G01*
X2015000Y1370000D03*
G01*
X1915000Y1370000D03*
G01*
X1815000Y1370000D03*
D20*
G01*
X2515000Y810000D03*
D21*
G01*
X2415000Y810000D03*
G01*
X2315000Y810000D03*
G01*
X2215000Y810000D03*
G01*
X2115000Y810000D03*
G01*
X2015000Y810000D03*
G01*
X1915000Y810000D03*
G01*
X1815000Y810000D03*
D20*
G01*
X960000Y1700000D03*
D21*
G01*
X1060000Y1700000D03*
G01*
X1160000Y1700000D03*
G01*
X1260000Y1700000D03*
G01*
X1360000Y1700000D03*
G01*
X1460000Y1700000D03*
G01*
X1560000Y1700000D03*
G01*
X1660000Y1700000D03*
D20*
G01*
X960000Y1520000D03*
D21*
G01*
X1060000Y1520000D03*
G01*
X1160000Y1520000D03*
G01*
X1260000Y1520000D03*
G01*
X1360000Y1520000D03*
G01*
X1460000Y1520000D03*
G01*
X1560000Y1520000D03*
G01*
X1660000Y1520000D03*
D20*
G01*
X90000Y1370000D03*
D21*
G01*
X190000Y1370000D03*
G01*
X290000Y1370000D03*
G01*
X390000Y1370000D03*
G01*
X490000Y1370000D03*
G01*
X590000Y1370000D03*
G01*
X690000Y1370000D03*
G01*
X790000Y1370000D03*
D18*
G01*
X200000Y3320000D03*
D19*
G01*
X200000Y3420000D03*
G01*
X300000Y3320000D03*
G01*
X300000Y3420000D03*
G01*
X400000Y3320000D03*
G01*
X400000Y3420000D03*
G01*
X500000Y3320000D03*
G01*
X500000Y3420000D03*
G01*
X600000Y3320000D03*
G01*
X600000Y3420000D03*
G01*
X200000Y2520000D03*
G01*
X200000Y1820000D03*
G01*
X200000Y1920000D03*
G01*
X200000Y2020000D03*
G01*
X200000Y2120000D03*
G01*
X200000Y2220000D03*
G01*
X200000Y2320000D03*
G01*
X200000Y2420000D03*
G01*
X200000Y2620000D03*
G01*
X200000Y2720000D03*
G01*
X200000Y2820000D03*
G01*
X200000Y2920000D03*
G01*
X200000Y3020000D03*
D22*
G01*
X200000Y3120000D03*
D19*
G01*
X2400000Y3120000D03*
G01*
X2400000Y3020000D03*
G01*
X2400000Y2920000D03*
G01*
X2400000Y2820000D03*
G01*
X2400000Y2720000D03*
G01*
X2400000Y2620000D03*
G01*
X2400000Y2520000D03*
G01*
X2400000Y2420000D03*
G01*
X2400000Y2320000D03*
G01*
X2400000Y2220000D03*
G01*
X2400000Y2120000D03*
G01*
X2400000Y2020000D03*
G01*
X2400000Y1920000D03*
D22*
G01*
X2400000Y1820000D03*
D19*
G01*
X2200000Y3120000D03*
G01*
X2200000Y3020000D03*
G01*
X2200000Y2920000D03*
G01*
X2200000Y2820000D03*
G01*
X2200000Y2720000D03*
G01*
X2200000Y2620000D03*
G01*
X2200000Y2520000D03*
G01*
X2200000Y2420000D03*
G01*
X2200000Y2320000D03*
G01*
X2200000Y2220000D03*
G01*
X2200000Y2120000D03*
G01*
X2200000Y2020000D03*
G01*
X2200000Y1920000D03*
D22*
G01*
X2200000Y1820000D03*
D19*
G01*
X400000Y2520000D03*
G01*
X400000Y1820000D03*
G01*
X400000Y1920000D03*
G01*
X400000Y2020000D03*
G01*
X400000Y2120000D03*
G01*
X400000Y2220000D03*
G01*
X400000Y2320000D03*
G01*
X400000Y2420000D03*
G01*
X400000Y2620000D03*
G01*
X400000Y2720000D03*
G01*
X400000Y2820000D03*
G01*
X400000Y2920000D03*
G01*
X400000Y3020000D03*
D22*
G01*
X400000Y3120000D03*
D19*
G01*
X960000Y2520000D03*
G01*
X960000Y1820000D03*
G01*
X960000Y1920000D03*
G01*
X960000Y2020000D03*
G01*
X960000Y2120000D03*
G01*
X960000Y2220000D03*
G01*
X960000Y2320000D03*
G01*
X960000Y2420000D03*
G01*
X960000Y2620000D03*
G01*
X960000Y2720000D03*
G01*
X960000Y2820000D03*
G01*
X960000Y2920000D03*
G01*
X960000Y3020000D03*
D22*
G01*
X960000Y3120000D03*
D19*
G01*
X1660000Y3120000D03*
G01*
X1660000Y3020000D03*
G01*
X1660000Y2920000D03*
G01*
X1660000Y2820000D03*
G01*
X1660000Y2720000D03*
G01*
X1660000Y2620000D03*
G01*
X1660000Y2520000D03*
G01*
X1660000Y2420000D03*
G01*
X1660000Y2320000D03*
G01*
X1660000Y2220000D03*
G01*
X1660000Y2120000D03*
G01*
X1660000Y2020000D03*
G01*
X1660000Y1920000D03*
D22*
G01*
X1660000Y1820000D03*
D19*
G01*
X1510000Y270000D03*
G01*
X1610000Y270000D03*
G01*
X1710000Y270000D03*
G01*
X1810000Y270000D03*
G01*
X1910000Y270000D03*
G01*
X2010000Y270000D03*
G01*
X2110000Y270000D03*
G01*
X2210000Y270000D03*
G01*
X2310000Y270000D03*
D22*
G01*
X2410000Y270000D03*
D23*
G01*
X2315000Y100000D03*
G01*
X2215000Y100000D03*
G01*
X2115000Y100000D03*
G01*
X2015000Y100000D03*
D24*
G01*
X1915000Y100000D03*
D16*
G01*
X400700Y1260000D03*
G01*
X500700Y1260000D03*
G01*
X630000Y1260000D03*
G01*
X730000Y1260000D03*
G01*
X860000Y1260000D03*
G01*
X960000Y1260000D03*
G01*
X1090000Y1260000D03*
G01*
X1190000Y1260000D03*
G01*
X2410000Y485399D03*
G01*
X2410000Y385399D03*
G01*
X2260000Y485399D03*
G01*
X2260000Y385399D03*
G01*
X2110000Y485399D03*
G01*
X2110000Y385399D03*
G01*
X1825000Y485399D03*
G01*
X1825000Y385399D03*
G01*
X1660000Y485399D03*
G01*
X1660000Y385399D03*
G01*
X1510000Y485399D03*
G01*
X1510000Y385399D03*
G01*
X140000Y365000D03*
G01*
X40000Y365000D03*
G01*
X930000Y220000D03*
G01*
X1030000Y220000D03*
G01*
X215360Y209639D03*
G01*
X144639Y280360D03*
G01*
X1185000Y265000D03*
G01*
X1185000Y165000D03*
G01*
X40000Y535000D03*
G01*
X140000Y535000D03*
G01*
X1365000Y625000D03*
G01*
X1265000Y625000D03*
G01*
X1265000Y1160000D03*
G01*
X1265000Y1060000D03*
G01*
X1320000Y935000D03*
G01*
X1420000Y935000D03*
G01*
X1705000Y1200000D03*
G01*
X1705000Y1100000D03*
G01*
X1560000Y935000D03*
G01*
X1660000Y935000D03*
D21*
G01*
X1152520Y2520000D03*
D20*
G01*
X1152520Y3120000D03*
D21*
G01*
X1152520Y3020000D03*
G01*
X1152520Y2920000D03*
G01*
X1152520Y2820000D03*
G01*
X1152520Y2720000D03*
G01*
X1152520Y2620000D03*
G01*
X1152520Y2420000D03*
G01*
X1152520Y2320000D03*
G01*
X1152520Y2220000D03*
G01*
X1152520Y2120000D03*
G01*
X1152520Y2020000D03*
G01*
X1152520Y1920000D03*
G01*
X1152520Y1820000D03*
G01*
X1467479Y3120000D03*
G01*
X1467479Y3020000D03*
G01*
X1467479Y2920000D03*
G01*
X1467479Y2820000D03*
G01*
X1467479Y2720000D03*
G01*
X1467479Y2620000D03*
G01*
X1467479Y2520000D03*
G01*
X1467479Y2420000D03*
G01*
X1467479Y2320000D03*
G01*
X1467479Y2220000D03*
G01*
X1467479Y2120000D03*
G01*
X1467479Y2020000D03*
G01*
X1467479Y1920000D03*
G01*
X1467479Y1820000D03*
D25*
G01*
X350000Y725000D03*
D26*
G01*
X450000Y725000D03*
G01*
X550000Y725000D03*
G01*
X650000Y725000D03*
G01*
X750000Y725000D03*
G01*
X850000Y725000D03*
G01*
X850000Y1125000D03*
G01*
X750000Y1125000D03*
G01*
X650000Y1125000D03*
G01*
X550000Y1125000D03*
G01*
X450000Y1125000D03*
G01*
X350000Y1125000D03*
D27*
G01*
X1596199Y70300D03*
G01*
X1570600Y109699D03*
G01*
X1545000Y70300D03*
G01*
X1519399Y109699D03*
G01*
X1493800Y70300D03*
D28*
G01*
X1685749Y70300D03*
G01*
X1404250Y70300D03*
D29*
G01*
X760000Y2371460D03*
G01*
X760000Y2178539D03*
D30*
G01*
X1705000Y3607700D03*
G01*
X1705000Y3702300D03*
G01*
X2485000Y680000D03*
G01*
X2485000Y585399D03*
G01*
X2335000Y680000D03*
G01*
X2335000Y585399D03*
G01*
X2185000Y680000D03*
G01*
X2185000Y585399D03*
G01*
X2035000Y680000D03*
G01*
X2035000Y585399D03*
G01*
X1885000Y680000D03*
G01*
X1885000Y585399D03*
G01*
X1735000Y680000D03*
G01*
X1735000Y585399D03*
G01*
X1585000Y680000D03*
G01*
X1585000Y585399D03*
D16*
G01*
X1980000Y485399D03*
G01*
X1980000Y385399D03*
D31*
G01*
X1815000Y940000D03*
G01*
X1915000Y940000D03*
G01*
X2015000Y940000D03*
G01*
X2115000Y940000D03*
G01*
X2215000Y940000D03*
G01*
X2315000Y940000D03*
G01*
X2415000Y940000D03*
G01*
X2515000Y940000D03*
G01*
X1815000Y1240000D03*
G01*
X1915000Y1240000D03*
G01*
X2015000Y1240000D03*
G01*
X2115000Y1240000D03*
G01*
X2215000Y1240000D03*
G01*
X2315000Y1240000D03*
G01*
X2415000Y1240000D03*
D32*
G01*
X2515000Y1240000D03*
D33*
G01*
X290000Y495000D03*
D34*
G01*
X340000Y495000D03*
G01*
X390000Y495000D03*
D33*
G01*
X1130000Y570000D03*
D34*
G01*
X1080000Y570000D03*
G01*
X1030000Y570000D03*
D35*
G01*
X390000Y315000D03*
G01*
X340000Y315000D03*
D36*
G01*
X290000Y315000D03*
D35*
G01*
X1020000Y385000D03*
G01*
X1070000Y385000D03*
D36*
G01*
X1120000Y385000D03*
D26*
G01*
X525000Y460000D03*
G01*
X525000Y560000D03*
G01*
X835000Y465000D03*
G01*
X835000Y565000D03*
G01*
X525000Y225000D03*
G01*
X525000Y325000D03*
G01*
X825000Y205000D03*
G01*
X825000Y305000D03*
D30*
G01*
X1361549Y1258449D03*
G01*
X1428450Y1191550D03*
G01*
X1361549Y1108449D03*
G01*
X1428450Y1041550D03*
G01*
X1536549Y1263449D03*
G01*
X1603450Y1196550D03*
G01*
X1531549Y1103449D03*
G01*
X1598450Y1036550D03*
D19*
G01*
X500790Y1670000D03*
G01*
X1380000Y1370000D03*
D37*
G01*
X120000Y120000D03*
G01*
X2480000Y120000D03*
G01*
X120000Y3680000D03*
G01*
X2480000Y3680000D03*
M02*
